<?xml version="1.0" standalone="no"?>
<!DOCTYPE svg PUBLIC "-//W3C//DTD SVG 20010904//EN"
 "http://www.w3.org/TR/2001/REC-SVG-20010904/DTD/svg10.dtd">
<svg version="1.0" xmlns="http://www.w3.org/2000/svg"
 width="475.000000pt" height="475.000000pt" viewBox="0 0 475.000000 475.000000"
 preserveAspectRatio="xMidYMid meet">
<metadata>
Created by potrace 1.14, written by Peter Selinger 2001-2017
</metadata>
<g transform="translate(0.000000,475.000000) scale(0.100000,-0.100000)"
fill="#000000" stroke="none">
<path d="M794 3173 c-59 -103 -111 -190 -115 -193 -4 -3 -158 -5 -342 -5 -185
0 -334 -2 -332 -5 28 -51 257 -449 290 -506 l46 -77 -67 -116 c-37 -64 -79
-136 -94 -161 -15 -25 -39 -65 -53 -90 -14 -25 -47 -83 -74 -130 l-50 -85 338
-3 337 -2 102 -178 c56 -97 108 -183 114 -190 11 -11 33 22 122 177 l109 191
338 0 c185 0 337 2 337 4 0 2 -75 133 -167 292 l-166 288 30 56 c16 30 89 157
161 282 73 125 134 233 137 240 4 11 -58 13 -332 13 l-337 0 -66 115 c-37 63
-87 150 -112 193 l-45 79 -109 -189z m224 -194 c-10 -6 -225 -5 -232 2 -3 2
22 51 55 107 l61 103 62 -103 c34 -57 58 -106 54 -109z m-393 -91 c2 -3 -62
-116 -201 -355 l-37 -62 -118 207 -119 207 83 5 c88 5 386 4 392 -2z m456 -6
c9 -9 278 -480 282 -491 1 -5 -63 -122 -143 -259 l-145 -251 -174 2 -174 2
-121 210 c-67 116 -132 229 -145 251 l-23 42 143 250 144 251 115 3 c140 4
232 0 241 -10z m516 8 l61 0 -116 -205 c-65 -112 -120 -204 -124 -205 -5 0
-238 395 -238 405 0 7 77 10 215 8 77 -1 168 -2 202 -3z m-1115 -750 c46 -80
99 -171 117 -202 l32 -57 -241 1 c-132 0 -240 4 -238 9 13 35 235 406 240 401
3 -4 44 -72 90 -152z m1038 -17 c57 -98 111 -192 122 -210 l19 -32 -240 1
c-133 0 -241 3 -241 6 0 4 234 412 237 412 0 0 47 -80 103 -177z m-508 -355
c-11 -18 -40 -68 -64 -110 -42 -74 -45 -76 -58 -55 -24 39 -110 190 -110 193
0 2 57 4 126 4 l126 0 -20 -32z"/>
<path d="M783 2562 c-6 -4 -10 -23 -8 -42 2 -19 4 -45 4 -57 1 -21 6 -23 54
-23 30 0 56 -3 59 -6 12 -12 -13 -70 -39 -92 -16 -12 -34 -27 -40 -33 -7 -5
-13 -16 -13 -24 0 -28 42 -15 80 23 44 44 66 106 50 146 -9 26 -14 28 -80 30
-30 1 -35 5 -36 26 -3 64 -5 68 -31 52z"/>
<path d="M557 2483 c-9 -3 -15 -8 -12 -13 5 -9 22 -88 31 -150 8 -59 8 -58 59
-49 91 17 126 55 130 142 2 53 -9 77 -34 70 -15 -4 -18 -12 -13 -48 8 -79 -6
-103 -70 -119 -24 -5 -28 -3 -28 14 0 11 6 20 14 20 26 0 55 48 51 86 -4 42
-15 57 -38 49 -11 -5 -14 -15 -10 -41 6 -38 -14 -75 -28 -52 -5 7 -9 25 -9 39
0 32 -20 57 -43 52z"/>
<path d="M1066 2468 c-2 -11 2 -22 9 -24 10 -4 13 -25 13 -72 -1 -119 -10
-109 86 -108 47 1 88 4 92 8 3 4 7 46 7 93 0 113 -5 118 -117 120 -75 1 -85
-1 -90 -17z m160 -40 c4 -7 8 -36 9 -65 l1 -54 -56 3 -55 3 0 55 c-1 30 1 58
3 63 5 12 90 8 98 -5z"/>
<path d="M950 2460 c0 -13 9 -22 25 -26 14 -3 26 -14 26 -23 1 -9 3 -41 4 -71
3 -79 3 -78 23 -76 26 4 24 166 -3 196 -24 27 -75 27 -75 0z"/>
<path d="M1848 2510 c-52 -41 -32 -98 51 -142 24 -13 32 -24 29 -40 -5 -34
-45 -37 -57 -4 -7 16 -16 23 -28 21 -10 -2 -21 -4 -25 -4 -12 -2 -1 -34 20
-56 16 -16 33 -22 66 -22 51 0 72 16 80 61 7 37 -11 63 -59 88 -48 25 -57 36
-44 60 13 24 40 23 46 -3 8 -29 60 -23 55 6 -5 31 -25 46 -68 52 -30 4 -45 0
-66 -17z"/>
<path d="M2020 2394 l0 -135 28 3 c26 3 27 5 26 61 l-1 57 39 0 38 0 0 -60 c0
-59 0 -60 29 -60 l28 0 0 135 -1 135 -28 0 c-17 0 -28 -5 -27 -12 1 -7 1 -32
0 -55 -1 -43 -1 -43 -40 -43 l-38 0 1 55 c1 54 1 55 -26 55 l-28 0 0 -136z"/>
<path d="M2274 2395 l-41 -135 29 0 c24 0 30 5 35 30 5 27 9 30 43 30 34 0 38
-3 44 -30 5 -25 10 -30 34 -30 l29 0 -40 135 c-39 128 -42 135 -66 135 -25 0
-28 -7 -67 -135z m85 -17 c1 -12 -6 -18 -19 -18 -23 0 -25 16 -9 57 l12 28 7
-25 c5 -14 8 -33 9 -42z"/>
<path d="M2470 2396 l0 -136 75 0 c68 0 75 2 75 20 0 17 -7 20 -48 20 l-47 0
0 113 0 112 -27 3 -28 3 0 -135z"/>
<path d="M2683 2518 c-44 -21 -63 -136 -34 -205 25 -60 121 -70 156 -16 19 28
28 107 18 155 -12 63 -80 95 -140 66z m75 -40 c7 -7 12 -41 12 -83 0 -73 -10
-95 -42 -95 -26 0 -38 31 -38 99 0 76 33 114 68 79z"/>
<path d="M2860 2396 l0 -136 28 0 28 0 -2 83 c-2 86 0 84 31 -25 12 -44 21
-58 35 -58 18 0 22 8 58 140 8 28 10 18 7 -52 l-2 -88 28 0 29 0 0 136 0 135
-37 -3 -37 -3 -16 -70 c-27 -119 -30 -120 -55 -20 l-22 90 -37 3 -36 3 0 -135z"/>
<path d="M3140 2395 l0 -135 28 0 c27 0 28 1 27 58 l0 57 43 3 c34 3 42 7 42
23 0 16 -7 19 -43 19 -42 0 -43 1 -44 35 l-1 35 47 0 c40 0 47 3 48 20 2 18
-4 20 -73 20 l-74 0 0 -135z"/>
<path d="M3324 2395 l0 -135 26 0 26 0 -1 133 0 132 -25 3 -26 3 0 -136z"/>
<path d="M3420 2395 l0 -135 24 0 c29 0 31 7 31 93 0 37 2 67 5 67 3 0 12 -17
19 -37 8 -21 23 -57 34 -81 17 -37 24 -43 46 -40 l26 3 0 130 0 130 -27 3 -27
3 1 -76 c0 -42 -1 -78 -4 -80 -2 -3 -20 31 -38 75 -31 73 -36 80 -62 80 l-28
0 0 -135z"/>
<path d="M3690 2447 c-13 -45 -25 -86 -26 -92 -1 -5 -9 -29 -18 -52 l-15 -43
30 0 c25 0 30 5 36 30 5 27 9 30 43 30 34 0 38 -3 44 -30 5 -25 10 -30 35 -30
l29 0 -24 78 c-13 42 -31 103 -40 135 -15 51 -19 57 -43 57 -24 0 -28 -7 -51
-83z m64 -49 c6 -34 5 -38 -14 -38 -22 0 -25 15 -10 56 13 32 15 30 24 -18z"/>
<path d="M3870 2394 l0 -135 28 3 27 3 -1 85 -1 85 28 -60 c16 -33 33 -72 38
-87 8 -22 16 -28 38 -28 l28 0 0 133 0 132 -27 3 c-28 3 -28 3 -27 -55 2 -122
1 -124 -27 -58 -14 33 -30 72 -36 88 -8 21 -16 27 -39 27 l-29 0 0 -136z"/>
<path d="M4137 2515 c-56 -41 -55 -204 0 -240 29 -20 97 -15 119 7 21 21 22
63 2 61 -33 -1 -36 -3 -41 -23 -6 -22 -36 -27 -55 -8 -15 15 -16 132 -2 159 6
10 19 19 30 19 20 0 44 -32 33 -44 -3 -3 8 -6 25 -6 36 0 39 8 17 49 -21 41
-91 55 -128 26z"/>
<path d="M4310 2395 l0 -135 73 0 c78 0 89 4 80 26 -3 9 -21 14 -53 14 l-47 0
1 40 1 40 42 0 c36 0 43 3 43 20 0 17 -7 20 -43 20 -42 0 -43 1 -43 33 1 31 2
32 49 35 39 3 47 6 47 23 0 17 -7 19 -75 19 l-75 0 0 -135z"/>
<path d="M1847 2202 l-38 -3 3 -82 3 -82 1323 -1 1322 -2 0 84 c0 80 -1 84
-22 84 -128 3 -2563 4 -2591 2z m677 -61 c4 -5 -3 -7 -14 -4 -23 6 -26 13 -6
13 8 0 17 -4 20 -9z m140 0 c4 -5 -3 -7 -14 -4 -23 6 -26 13 -6 13 8 0 17 -4
20 -9z m93 -11 c3 -10 2 -11 -4 -4 -4 7 -17 14 -28 17 -16 5 -15 5 4 4 14 -1
26 -9 28 -17z m90 0 c3 -10 2 -11 -4 -4 -4 7 -17 14 -28 17 -16 5 -15 5 4 4
14 -1 26 -9 28 -17z m77 11 c4 -5 -3 -7 -14 -4 -23 6 -26 13 -6 13 8 0 17 -4
20 -9z m90 -7 c3 -8 2 -12 -4 -9 -6 3 -10 10 -10 16 0 14 7 11 14 -7z m60 7
c3 -4 -6 -6 -19 -3 -14 2 -25 6 -25 8 0 8 39 4 44 -5z m167 -8 c12 -16 12 -17
-1 -7 -8 6 -22 14 -30 17 -13 5 -12 6 1 6 9 1 23 -7 30 -16z m83 8 c4 -5 -3
-7 -14 -4 -23 6 -26 13 -6 13 8 0 17 -4 20 -9z m66 -12 c0 -6 -4 -7 -10 -4 -5
3 -10 11 -10 16 0 6 5 7 10 4 6 -3 10 -11 10 -16z m161 4 c12 -16 12 -17 -1
-7 -8 7 -24 14 -35 17 -19 4 -19 5 1 6 12 0 28 -7 35 -16z m66 11 c-3 -3 -12
-4 -19 -1 -8 3 -5 6 6 6 11 1 17 -2 13 -5z m124 -11 c13 -16 12 -17 -3 -4 -17
13 -22 21 -14 21 2 0 10 -8 17 -17z m46 -14 c1 -19 1 -20 -4 -4 -3 11 -10 24
-17 28 -7 6 -6 7 4 4 8 -2 16 -14 17 -28z m-1217 6 c-6 -8 -8 -20 -4 -27 5
-10 4 -10 -6 -1 -11 10 -11 15 0 28 7 8 15 15 17 15 3 0 0 -7 -7 -15z m127
-17 c-3 -7 -5 -2 -5 12 0 14 2 19 5 13 2 -7 2 -19 0 -25z m429 12 c0 -12 -4
-16 -9 -11 -5 5 -6 14 -3 20 10 15 12 14 12 -9z m-149 -22 c-3 -8 -6 -5 -6 6
-1 11 2 17 5 13 3 -3 4 -12 1 -19z m381 -3 c-3 -3 -9 2 -12 12 -6 14 -5 15 5
6 7 -7 10 -15 7 -18z m269 -1 c-3 -3 -12 -4 -19 -1 -8 3 -5 6 6 6 11 1 17 -2
13 -5z"/>
</g>
</svg>
