<?xml version="1.0" encoding="utf-8"?>
<!-- Generator: Adobe Illustrator 24.3.0, SVG Export Plug-In . SVG Version: 6.00 Build 0)  -->
<svg version="1.1" baseProfile="tiny" id="Calque_1"
	 xmlns="http://www.w3.org/2000/svg" xmlns:xlink="http://www.w3.org/1999/xlink" x="0px" y="0px" viewBox="0 0 179.8 194.1"
	 overflow="visible" xml:space="preserve">
<g>
	<polygon fill="#00915A" points="141.3,89.1 136.7,97.1 107.5,46.4 102.8,38.4 89.9,16 76.9,38.4 67.7,38.4 89.9,0 112.1,38.4 
		116.7,46.4 	"/>
	<polygon fill="#00915A" points="179.8,155.7 76.9,155.7 72.3,147.7 165.9,147.7 141.3,105.1 145.9,97.1 	"/>
</g>
<g>
	<polygon fill="#016741" points="179.8,38.4 145.9,97.1 141.3,105.1 116.7,147.7 107.5,147.7 136.7,97.1 141.3,89.1 165.9,46.4 
		116.7,46.4 112.1,38.4 	"/>
	<polygon fill="#016741" points="107.5,46.4 13.8,46.4 38.5,89.1 33.8,97.1 0,38.4 102.8,38.4 	"/>
	<polygon fill="#016741" points="112.1,155.7 89.9,194.1 67.7,155.7 63.1,147.7 38.5,105.1 43.1,97.1 72.3,147.7 76.9,155.7 
		89.9,178.1 102.8,155.7 	"/>
	<polygon fill="#00915A" points="63.1,147.7 67.7,155.7 0,155.7 33.8,97.1 38.5,89.1 63.1,46.4 72.3,46.4 43.1,97.1 38.5,105.1 
		13.8,147.7 	"/>
</g>
<g>
	<rect x="53.7" y="82" fill="none" width="96.9" height="61.3"/>
	<text transform="matrix(1 0 0 1 53.7351 108.3042)" font-family="'MyriadHebrew-Regular'" font-size="37px">ש</text>
	<text transform="matrix(1 0 0 1 77.4524 108.3042)" font-family="'MyriadHebrew-Regular'" font-size="37px">ל</text>
	<text transform="matrix(1 0 0 1 94.3987 108.3042)" font-family="'MyriadHebrew-Regular'" font-size="37px">ו</text>
	<text transform="matrix(1 0 0 1 105.9055 108.3042)" font-family="'MyriadHebrew-Regular'" font-size="37px">ם</text>
	<rect x="53.7" y="82" fill="none" width="96.9" height="61.3"/>
	<text transform="matrix(1 0 0 1 53.7351 108.3042)" fill="#016741" font-family="'MyriadHebrew-Regular'" font-size="37px">ש</text>
	<text transform="matrix(1 0 0 1 77.4524 108.3042)" fill="#016741" font-family="'MyriadHebrew-Regular'" font-size="37px">ל</text>
	<text transform="matrix(1 0 0 1 94.3987 108.3042)" fill="#016741" font-family="'MyriadHebrew-Regular'" font-size="37px">ו</text>
	<text transform="matrix(1 0 0 1 105.9055 108.3042)" fill="#016741" font-family="'MyriadHebrew-Regular'" font-size="37px">ם</text>
	<rect x="53.7" y="82" fill="none" width="96.9" height="61.3"/>
	
		<text transform="matrix(1 0 0 1 53.7351 108.3042)" fill="none" stroke="#016741" font-family="'MyriadHebrew-Regular'" font-size="37px">ש</text>
	
		<text transform="matrix(1 0 0 1 77.4524 108.3042)" fill="none" stroke="#016741" font-family="'MyriadHebrew-Regular'" font-size="37px">ל</text>
	
		<text transform="matrix(1 0 0 1 94.3987 108.3042)" fill="none" stroke="#016741" font-family="'MyriadHebrew-Regular'" font-size="37px">ו</text>
	
		<text transform="matrix(1 0 0 1 105.9055 108.3042)" fill="none" stroke="#016741" font-family="'MyriadHebrew-Regular'" font-size="37px">ם</text>
</g>
</svg>
