<svg xmlns="http://www.w3.org/2000/svg" xmlns:xlink="http://www.w3.org/1999/xlink" width="188" height="188" viewBox="0 0 188 188">
    <defs>
        <filter id="l3d0t2z8xc" width="140.6%" height="120.6%" x="-20.3%" y="-10.3%" filterUnits="objectBoundingBox">
            <feOffset dx="-1" in="SourceAlpha" result="shadowOffsetOuter1"/>
            <feGaussianBlur in="shadowOffsetOuter1" result="shadowBlurOuter1" stdDeviation="1"/>
            <feColorMatrix in="shadowBlurOuter1" result="shadowMatrixOuter1" values="0 0 0 0 0 0 0 0 0 0 0 0 0 0 0 0 0 0 0.0589215472 0"/>
            <feMerge>
                <feMergeNode in="shadowMatrixOuter1"/>
                <feMergeNode in="SourceGraphic"/>
            </feMerge>
        </filter>
        <filter id="mfgt8xboud" width="125%" height="117.4%" x="-12.5%" y="-8.7%" filterUnits="objectBoundingBox">
            <feOffset dx="-1" in="SourceAlpha" result="shadowOffsetOuter1"/>
            <feGaussianBlur in="shadowOffsetOuter1" result="shadowBlurOuter1" stdDeviation=".5"/>
            <feColorMatrix in="shadowBlurOuter1" result="shadowMatrixOuter1" values="0 0 0 0 0 0 0 0 0 0 0 0 0 0 0 0 0 0 0.142018138 0"/>
            <feMerge>
                <feMergeNode in="shadowMatrixOuter1"/>
                <feMergeNode in="SourceGraphic"/>
            </feMerge>
        </filter>
        <circle id="hlzwseppsa" cx="93.52" cy="93.52" r="93.52"/>
    </defs>
    <g fill="none" fill-rule="evenodd">
        <g>
            <g>
                <g transform="translate(-190 -762) translate(140 624) translate(50 138)">
                    <mask id="sf62a2jjfb" fill="#fff">
                        <use xlink:href="#hlzwseppsa"/>
                    </mask>
                    <use fill="#E5F4EE" xlink:href="#hlzwseppsa"/>
                    <g mask="url(#sf62a2jjfb)">
                        <g>
                            <g>
                                <path fill="#FCB050" d="M16.005 74.26c8.804-.043 15.927-2.997 15.908-6.595l.023 4.659c.022 3.598-7.103 6.552-15.908 6.598-8.807.043-15.96-2.839-15.98-6.437l-.023-4.657c.018 3.595 7.173 6.476 15.98 6.431" transform="matrix(-1 0 0 1 108.92 110.88) translate(54.04)"/>
                                <path fill="#D1903D" d="M16.005 74.26C7.198 74.303.043 71.422.025 67.827c-.017-3.596 7.108-6.554 15.914-6.596 8.805-.049 15.952 2.839 15.974 6.433.02 3.598-7.104 6.552-15.908 6.594" transform="matrix(-1 0 0 1 108.92 110.88) translate(54.04)"/>
                                <path fill="#FFDF33" d="M15.996 72.554c-6.506.035-11.787-2.09-11.803-4.748-.013-2.661 5.249-4.84 11.753-4.874 6.5-.031 11.784 2.096 11.8 4.755.013 2.654-5.252 4.835-11.75 4.867" transform="matrix(-1 0 0 1 108.92 110.88) translate(54.04)"/>
                                <path fill="#FCB050" d="M16.003 68.726c8.804-.044 15.925-2.996 15.909-6.594l.022 4.659c.024 3.596-7.105 6.552-15.91 6.596C7.22 73.43.066 70.547.05 66.952L.025 62.29c.016 3.6 7.17 6.48 15.978 6.435" transform="matrix(-1 0 0 1 108.92 110.88) translate(54.04)"/>
                                <path fill="#D1903D" d="M16.003 68.726C7.194 68.77.04 65.891.025 62.291c-.018-3.596 7.103-6.553 15.912-6.596 8.805-.045 15.954 2.84 15.975 6.437.016 3.598-7.105 6.55-15.91 6.594" transform="matrix(-1 0 0 1 108.92 110.88) translate(54.04)"/>
                                <path fill="#FFDF33" d="M15.992 67.024c-6.504.03-11.783-2.098-11.796-4.754-.016-2.657 5.244-4.838 11.748-4.872 6.5-.034 11.785 2.097 11.8 4.754.011 2.658-5.25 4.837-11.752 4.872" transform="matrix(-1 0 0 1 108.92 110.88) translate(54.04)"/>
                                <path fill="#FCB050" d="M16.003 63.3c8.804-.042 15.93-2.994 15.91-6.594l.023 4.659c.022 3.604-7.104 6.552-15.912 6.598C7.22 68.006.066 65.125.05 61.526l-.024-4.659c.016 3.598 7.17 6.478 15.978 6.433" transform="matrix(-1 0 0 1 108.92 110.88) translate(54.04)"/>
                                <path fill="#D1903D" d="M16.003 63.3C7.194 63.345.04 60.465.025 56.867c-.018-3.596 7.105-6.55 15.912-6.594 8.805-.045 15.954 2.837 15.977 6.433.02 3.6-7.107 6.552-15.911 6.594" transform="matrix(-1 0 0 1 108.92 110.88) translate(54.04)"/>
                                <path fill="#FFDF33" d="M15.992 61.595c-6.502.033-11.783-2.093-11.796-4.748-.016-2.66 5.246-4.835 11.75-4.87 6.498-.034 11.783 2.094 11.799 4.751.01 2.656-5.25 4.833-11.753 4.867" transform="matrix(-1 0 0 1 108.92 110.88) translate(54.04)"/>
                                <path fill="#FCB050" d="M16.003 57.752c8.804-.044 15.93-2.998 15.912-6.596l.02 4.66c.023 3.601-7.103 6.55-15.91 6.594C7.22 62.452.066 59.573.048 55.974l-.023-4.657c.017 3.597 7.168 6.478 15.977 6.435" transform="matrix(-1 0 0 1 108.92 110.88) translate(54.04)"/>
                                <path fill="#D1903D" d="M16.003 57.752C7.194 57.795.043 54.914.026 51.317c-.019-3.596 7.104-6.551 15.91-6.594 8.806-.045 15.962 2.837 15.98 6.433.018 3.598-7.109 6.552-15.913 6.596" transform="matrix(-1 0 0 1 108.92 110.88) translate(54.04)"/>
                                <path fill="#FFDF33" d="M15.992 56.047c-6.502.031-11.782-2.094-11.796-4.752-.014-2.654 5.246-4.835 11.75-4.868 6.5-.033 11.783 2.096 11.8 4.753.013 2.656-5.252 4.837-11.754 4.867" transform="matrix(-1 0 0 1 108.92 110.88) translate(54.04)"/>
                                <path fill="#FCB050" d="M16.003 52.127c8.806-.05 15.93-2.998 15.912-6.597l.02 4.661c.023 3.599-7.102 6.55-15.91 6.595C7.221 56.83.066 53.953.048 50.354l-.023-4.663c.017 3.597 7.172 6.48 15.977 6.436" transform="matrix(-1 0 0 1 108.92 110.88) translate(54.04)"/>
                                <path fill="#D1903D" d="M16.003 52.127C7.198 52.17.043 49.288.026 45.69c-.019-3.597 7.107-6.55 15.91-6.595 8.808-.043 15.962 2.838 15.98 6.434.018 3.599-7.107 6.547-15.913 6.597" transform="matrix(-1 0 0 1 108.92 110.88) translate(54.04)"/>
                                <path fill="#FFDF33" d="M15.994 50.423c-6.504.035-11.785-2.096-11.798-4.754-.014-2.653 5.246-4.837 11.75-4.868 6.5-.033 11.783 2.096 11.8 4.754.01 2.655-5.248 4.834-11.752 4.868" transform="matrix(-1 0 0 1 108.92 110.88) translate(54.04)"/>
                                <path fill="#FCB050" d="M16.003 46.577c8.804-.044 15.93-2.994 15.91-6.595l.023 4.663c.022 3.595-7.104 6.547-15.912 6.593C7.22 51.282.067 48.405.05 44.806l-.023-4.663c.017 3.597 7.172 6.478 15.977 6.434" transform="matrix(-1 0 0 1 108.92 110.88) translate(54.04)"/>
                                <path fill="#D1903D" d="M16.003 46.577C7.198 46.62.043 43.74.026 40.143c-.019-3.595 7.107-6.551 15.91-6.595 8.806-.043 15.955 2.84 15.978 6.434.02 3.6-7.107 6.55-15.911 6.595" transform="matrix(-1 0 0 1 108.92 110.88) translate(54.04)"/>
                                <path fill="#FFDF33" d="M15.992 44.875c-6.502.033-11.783-2.096-11.796-4.75-.016-2.657 5.246-4.839 11.75-4.872 6.5-.035 11.783 2.096 11.8 4.752.01 2.655-5.252 4.84-11.754 4.87" transform="matrix(-1 0 0 1 108.92 110.88) translate(54.04)"/>
                                <path fill="#FCB050" d="M16.003 40.953c8.804-.043 15.929-2.996 15.91-6.595l.023 4.661c.022 3.599-7.107 6.549-15.912 6.591C7.22 45.656.066 42.777.05 39.179l-.024-4.66c.016 3.597 7.17 6.482 15.978 6.434" transform="matrix(-1 0 0 1 108.92 110.88) translate(54.04)"/>
                                <path fill="#D1903D" d="M16.003 40.953C7.194 41 .04 38.116.025 34.52c-.018-3.598 7.105-6.554 15.912-6.596 8.805-.045 15.954 2.835 15.977 6.434.018 3.599-7.107 6.552-15.911 6.595" transform="matrix(-1 0 0 1 108.92 110.88) translate(54.04)"/>
                                <path fill="#FFDF33" d="M15.992 39.247C9.49 39.281 4.21 37.153 4.196 34.5c-.016-2.657 5.246-4.842 11.75-4.874 6.498-.03 11.783 2.099 11.799 4.754.01 2.655-5.25 4.837-11.753 4.868" transform="matrix(-1 0 0 1 108.92 110.88) translate(54.04)"/>
                                <path fill="#FCB050" d="M15.99 35.403c8.809-.044 15.931-2.996 15.91-6.593l.024 4.66c.017 3.596-7.1 6.552-15.911 6.596C7.21 40.108.058 37.227.037 33.629l-.024-4.657c.017 3.594 7.17 6.479 15.977 6.431" transform="matrix(-1 0 0 1 108.92 110.88) translate(54.04)"/>
                                <path fill="#D1903D" d="M15.99 35.403C7.184 35.451.03 32.566.013 28.972c-.016-3.6 7.108-6.55 15.912-6.598 8.806-.043 15.959 2.84 15.975 6.436.021 3.597-7.101 6.549-15.91 6.593" transform="matrix(-1 0 0 1 108.92 110.88) translate(54.04)"/>
                                <path fill="#FFDF33" d="M15.981 33.7c-6.502.033-11.785-2.093-11.799-4.753-.011-2.655 5.246-4.838 11.751-4.868 6.5-.032 11.787 2.095 11.797 4.752.016 2.657-5.245 4.837-11.749 4.868" transform="matrix(-1 0 0 1 108.92 110.88) translate(54.04)"/>
                                <path fill="#FCB050" d="M15.98 29.777c8.803-.042 15.926-2.994 15.907-6.594l.026 4.663c.019 3.594-7.106 6.55-15.91 6.592C7.195 34.482.04 31.603.023 28.005L0 23.345c.017 3.6 7.173 6.478 15.98 6.432" transform="matrix(-1 0 0 1 108.92 110.88) translate(54.04)"/>
                                <path fill="#D1903D" d="M15.98 29.777C7.172 29.823.016 26.944 0 23.346c-.02-3.6 7.107-6.552 15.912-6.594 8.806-.047 15.96 2.835 15.975 6.43.02 3.601-7.104 6.553-15.908 6.595" transform="matrix(-1 0 0 1 108.92 110.88) translate(54.04)"/>
                                <path fill="#FFDF33" d="M15.968 28.074c-6.504.033-11.786-2.093-11.797-4.75-.016-2.66 5.247-4.837 11.75-4.87 6.502-.034 11.784 2.094 11.8 4.751.01 2.656-5.252 4.837-11.753 4.869" transform="matrix(-1 0 0 1 108.92 110.88) translate(54.04)"/>
                                <path fill="#FCB050" d="M15.993 23.987c8.803-.043 15.926-2.996 15.907-6.597l.023 4.661c.022 3.599-7.103 6.554-15.906 6.597C7.207 28.692.056 25.81.037 22.21l-.025-4.656c.018 3.595 7.175 6.476 15.981 6.432" transform="matrix(-1 0 0 1 108.92 110.88) translate(54.04)"/>
                                <path fill="#D1903D" d="M15.993 23.987C7.187 24.03.03 21.15.012 17.555c-.017-3.596 7.108-6.553 15.913-6.597 8.806-.045 15.955 2.84 15.975 6.432.019 3.6-7.104 6.554-15.907 6.597" transform="matrix(-1 0 0 1 108.92 110.88) translate(54.04)"/>
                                <path fill="#FFDF33" d="M15.983 22.281c-6.505.034-11.786-2.089-11.803-4.748-.012-2.661 5.25-4.839 11.754-4.874 6.501-.031 11.783 2.097 11.8 4.756.012 2.653-5.252 4.835-11.75 4.866" transform="matrix(-1 0 0 1 108.92 110.88) translate(54.04)"/>
                                <path fill="#FCB050" d="M15.99 18.453c8.805-.044 15.925-2.996 15.908-6.596l.023 4.66c.024 3.598-7.103 6.553-15.908 6.597C7.208 23.157.054 20.274.037 16.68l-.025-4.66c.017 3.6 7.17 6.479 15.978 6.434" transform="matrix(-1 0 0 1 108.92 110.88) translate(54.04)"/>
                                <path fill="#D1903D" d="M15.99 18.453C7.182 18.498.03 15.62.012 12.018-.005 8.42 7.116 5.463 15.924 5.421c8.807-.043 15.956 2.842 15.974 6.436.017 3.6-7.103 6.552-15.908 6.596" transform="matrix(-1 0 0 1 108.92 110.88) translate(54.04)"/>
                                <path fill="#FFDF33" d="M15.98 16.75c-6.504.031-11.783-2.096-11.796-4.752-.016-2.657 5.244-4.839 11.749-4.872C22.43 7.09 27.717 9.222 27.73 11.88c.014 2.657-5.249 4.836-11.75 4.87" transform="matrix(-1 0 0 1 108.92 110.88) translate(54.04)"/>
                                <path fill="#FCB050" d="M15.99 13.028c8.805-.043 15.931-2.994 15.91-6.595l.022 4.66c.023 3.601-7.102 6.551-15.91 6.596C7.209 17.733.055 14.854.038 11.252L.012 6.594c.017 3.599 7.17 6.478 15.978 6.434" transform="matrix(-1 0 0 1 108.92 110.88) translate(54.04)"/>
                                <path fill="#FCB050" d="M15.99 13.028C7.182 13.072.03 10.193.012 6.594-.005 2.997 7.118.044 15.924.001 24.731-.044 31.88 2.837 31.9 6.433c.021 3.6-7.105 6.552-15.91 6.595" transform="matrix(-1 0 0 1 108.92 110.88) translate(54.04)"/>
                                <path fill="#E4A555" d="M15.98 11.322c-6.502.034-11.783-2.093-11.796-4.75-.016-2.657 5.246-4.833 11.75-4.868 6.497-.034 11.783 2.095 11.797 4.752.014 2.655-5.249 4.833-11.75 4.866" transform="matrix(-1 0 0 1 108.92 110.88) translate(54.04)"/>
                            </g>
                            <g filter="url(#l3d0t2z8xc)" transform="matrix(-1 0 0 1 108.92 110.88) translate(25.76 16.52)">
                                <path fill="#FCB050" d="M16.005 57.48c8.803-.042 15.926-2.996 15.908-6.592l.022 4.657c.022 3.596-7.103 6.55-15.908 6.592-8.806.046-15.96-2.835-15.979-6.432l-.024-4.653c.018 3.593 7.174 6.473 15.981 6.429"/>
                                <path fill="#D1903D" d="M16.005 57.48C7.198 57.526.042 54.646.025 51.053c-.02-3.595 7.108-6.55 15.914-6.594 8.804-.047 15.952 2.84 15.974 6.43.018 3.596-7.105 6.55-15.908 6.593"/>
                                <path fill="#FFDF33" d="M15.995 55.776c-6.504.033-11.787-2.09-11.802-4.748-.013-2.658 5.25-4.836 11.753-4.87 6.5-.032 11.783 2.096 11.8 4.752.013 2.654-5.252 4.834-11.75 4.866"/>
                                <path fill="#FCB050" d="M16.002 51.948c8.805-.044 15.926-2.994 15.91-6.589l.021 4.655c.024 3.595-7.104 6.549-15.91 6.595-8.802.04-15.958-2.84-15.975-6.434l-.024-4.657c.016 3.599 7.17 6.476 15.978 6.43"/>
                                <path fill="#D1903D" d="M16.002 51.948C7.193 51.994.04 49.117.024 45.518c-.018-3.596 7.104-6.552 15.911-6.592 8.807-.045 15.957 2.837 15.976 6.433.017 3.595-7.104 6.545-15.91 6.59"/>
                                <path fill="#FFDF33" d="M15.992 50.247c-6.505.03-11.784-2.094-11.797-4.751-.015-2.654 5.245-4.836 11.75-4.868 6.498-.034 11.784 2.096 11.798 4.752.013 2.654-5.249 4.832-11.75 4.867"/>
                                <path fill="#FCB050" d="M16.002 46.525c8.805-.04 15.93-2.99 15.911-6.589l.021 4.655c.023 3.602-7.103 6.55-15.91 6.595C7.22 51.228.065 48.35.048 44.752l-.024-4.655c.016 3.595 7.17 6.474 15.978 6.428"/>
                                <path fill="#D1903D" d="M16.002 46.525C7.193 46.571.04 43.692.024 40.097c-.018-3.596 7.105-6.548 15.911-6.59 8.807-.045 15.957 2.833 15.978 6.43.02 3.598-7.106 6.548-15.911 6.588"/>
                                <path fill="#FFDF33" d="M15.992 44.823c-6.502.033-11.784-2.092-11.797-4.748-.015-2.658 5.247-4.832 11.751-4.868 6.497-.033 11.783 2.094 11.797 4.75.013 2.656-5.249 4.832-11.75 4.866"/>
                                <path fill="#FCB050" d="M16.002 40.98c8.805-.044 15.93-2.996 15.913-6.59l.02 4.656c.022 3.6-7.104 6.545-15.911 6.59C7.22 45.68.067 42.803.048 39.206l-.022-4.657c.016 3.595 7.167 6.475 15.976 6.432"/>
                                <path fill="#D1903D" d="M16.002 40.98C7.193 41.023.042 38.143.026 34.548c-.02-3.592 7.103-6.546 15.91-6.59 8.806-.045 15.962 2.837 15.979 6.431.018 3.595-7.108 6.547-15.913 6.591"/>
                                <path fill="#FFDF33" d="M15.992 39.276c-6.502.033-11.782-2.092-11.797-4.748-.013-2.654 5.247-4.832 11.751-4.868 6.5-.033 11.783 2.096 11.801 4.752.012 2.654-5.253 4.834-11.755 4.864"/>
                                <path fill="#FCB050" d="M16.002 35.357c8.806-.048 15.93-2.996 15.913-6.59l.02 4.658c.022 3.596-7.103 6.545-15.911 6.59-8.803.043-15.957-2.83-15.976-6.43l-.022-4.66c.016 3.597 7.172 6.477 15.976 6.432"/>
                                <path fill="#D1903D" d="M16.002 35.357C7.198 35.402.042 32.522.026 28.925c-.02-3.594 7.106-6.544 15.91-6.59 8.807-.045 15.962 2.837 15.979 6.431.018 3.595-7.107 6.543-15.913 6.591"/>
                                <path fill="#FFDF33" d="M15.993 33.656c-6.502.034-11.785-2.096-11.798-4.751-.014-2.652 5.247-4.836 11.75-4.868 6.5-.03 11.784 2.098 11.802 4.75.01 2.656-5.25 4.836-11.754 4.87"/>
                                <path fill="#FCB050" d="M16.002 29.81c8.805-.044 15.93-2.992 15.911-6.59l.021 4.661c.023 3.593-7.103 6.544-15.91 6.588C7.22 34.513.067 31.639.048 28.043l-.022-4.66c.016 3.594 7.172 6.473 15.976 6.427"/>
                                <path fill="#D1903D" d="M16.002 29.81C7.198 29.856.042 26.977.026 23.382c-.02-3.594 7.106-6.55 15.91-6.592 8.806-.043 15.956 2.839 15.977 6.43.02 3.598-7.106 6.546-15.911 6.59"/>
                                <path fill="#FFDF33" d="M15.992 28.111c-6.502.034-11.784-2.095-11.797-4.747-.015-2.658 5.247-4.837 11.751-4.872 6.5-.033 11.783 2.097 11.801 4.751.009 2.653-5.253 4.837-11.755 4.868"/>
                                <path fill="#FCB050" d="M16.002 24.19c8.805-.043 15.929-2.995 15.911-6.592l.021 4.66c.023 3.595-7.105 6.546-15.91 6.588C7.22 28.89.065 26.014.048 22.418L.024 17.76c.016 3.593 7.17 6.476 15.978 6.428"/>
                                <path fill="#D1903D" d="M16.002 24.19C7.193 24.236.04 21.353.024 17.76c-.018-3.596 7.105-6.554 15.911-6.594 8.807-.045 15.957 2.833 15.978 6.431.018 3.597-7.106 6.549-15.911 6.591"/>
                                <path fill="#FFDF33" d="M15.992 22.486C9.49 22.52 4.208 20.393 4.195 17.74c-.015-2.656 5.247-4.838 11.751-4.87 6.497-.03 11.783 2.096 11.797 4.752.013 2.652-5.249 4.832-11.75 4.865"/>
                                <path fill="#FCB050" d="M15.99 18.644c8.807-.046 15.93-2.995 15.91-6.59l.023 4.657c.019 3.595-7.1 6.547-15.91 6.592C7.208 23.345.057 20.465.037 16.869l-.025-4.655c.018 3.595 7.17 6.476 15.978 6.43"/>
                                <path fill="#D1903D" d="M15.99 18.644C7.183 18.69.03 15.809.012 12.214-.003 8.616 7.12 5.67 15.924 5.622c8.807-.043 15.958 2.837 15.977 6.433.019 3.594-7.104 6.543-15.91 6.589"/>
                                <path fill="#FFDF33" d="M15.981 16.941c-6.503.032-11.786-2.093-11.8-4.75-.011-2.655 5.246-4.835 11.75-4.865 6.502-.032 11.79 2.092 11.798 4.748.018 2.657-5.245 4.834-11.748 4.867"/>
                                <path fill="#FCB050" d="M15.98 13.021c8.803-.044 15.927-2.994 15.907-6.591l.026 4.659c.018 3.594-7.106 6.546-15.911 6.59C7.193 17.725.04 14.845.022 11.25L0 6.592c.017 3.599 7.172 6.474 15.98 6.43"/>
                                <path fill="#FCB050" d="M15.98 13.021C7.171 13.065.016 10.19 0 6.591-.02 2.993 7.105.045 15.91.001c8.806-.047 15.961 2.833 15.977 6.429.02 3.597-7.104 6.547-15.908 6.591"/>
                                <path fill="#E4A555" d="M15.967 11.317C9.463 11.352 4.181 9.225 4.17 6.569 4.154 3.91 9.416 1.737 15.92 1.703c6.502-.033 11.784 2.092 11.8 4.75.012 2.654-5.252 4.832-11.753 4.864"/>
                            </g>
                            <g filter="url(#mfgt8xboud)" transform="matrix(-1 0 0 1 108.92 110.88) translate(0 33.04)">
                                <path fill="#FCB050" d="M15.978 40.943c8.805-.042 15.927-3.011 15.91-6.63l.02 4.688c.02 3.617-7.102 6.587-15.908 6.634-8.807.04-15.96-2.853-15.979-6.476L0 34.473c.016 3.617 7.172 6.517 15.978 6.47"/>
                                <path fill="#D1903D" d="M15.978 40.943C7.172 40.99.016 38.09 0 34.473c-.02-3.616 7.106-6.585 15.912-6.631 8.805-.044 15.954 2.854 15.976 6.47.017 3.62-7.105 6.589-15.91 6.631"/>
                                <path fill="#FFDF33" d="M15.97 39.234c-6.507.03-11.79-2.11-11.801-4.778-.015-2.678 5.25-4.868 11.75-4.904 6.502-.033 11.784 2.107 11.8 4.782.014 2.674-5.25 4.862-11.75 4.9"/>
                                <path fill="#FCB050" d="M15.976 35.378c8.803-.042 15.929-3.013 15.908-6.632l.025 4.688c.02 3.619-7.107 6.586-15.914 6.634C7.193 40.11.04 37.213.02 33.594L0 28.906c.013 3.621 7.168 6.515 15.976 6.472"/>
                                <path fill="#D1903D" d="M15.976 35.378C7.168 35.421.013 32.528 0 28.906c-.02-3.616 7.103-6.589 15.908-6.635 8.805-.041 15.958 2.859 15.976 6.475.02 3.62-7.105 6.59-15.908 6.632"/>
                                <path fill="#FFDF33" d="M15.967 33.665c-6.505.034-11.786-2.106-11.797-4.777-.017-2.675 5.245-4.87 11.746-4.902 6.502-.033 11.787 2.108 11.8 4.78.015 2.673-5.25 4.865-11.749 4.899"/>
                                <path fill="#FCB050" d="M15.976 29.923c8.803-.042 15.929-3.009 15.912-6.634l.024 4.688c.017 3.62-7.106 6.59-15.917 6.632C7.193 34.656.04 31.762.02 28.14L0 23.451c.013 3.623 7.168 6.517 15.976 6.472"/>
                                <path fill="#D1903D" d="M15.976 29.923C7.168 29.968.013 27.074 0 23.451c-.02-3.616 7.104-6.587 15.908-6.631 8.805-.045 15.958 2.855 15.98 6.47.017 3.624-7.109 6.59-15.912 6.633"/>
                                <path fill="#FFDF33" d="M15.967 28.21c-6.505.034-11.786-2.103-11.797-4.777-.017-2.675 5.247-4.868 11.746-4.9 6.502-.033 11.787 2.105 11.8 4.78.015 2.673-5.25 4.863-11.749 4.897"/>
                                <path fill="#FCB050" d="M15.976 24.344c8.803-.049 15.929-3.015 15.912-6.635l.024 4.685c.017 3.622-7.106 6.589-15.917 6.633C7.193 29.072.04 26.178.02 22.555L0 17.87c.016 3.619 7.168 6.518 15.976 6.474"/>
                                <path fill="#D1903D" d="M15.976 24.344C7.168 24.388.016 21.489 0 17.87c-.02-3.617 7.104-6.584 15.908-6.63 8.805-.043 15.96 2.851 15.98 6.47.017 3.619-7.109 6.585-15.912 6.634"/>
                                <path fill="#FFDF33" d="M15.967 22.628c-6.504.034-11.785-2.106-11.797-4.775-.014-2.674 5.247-4.868 11.746-4.898 6.505-.037 11.787 2.105 11.804 4.777.014 2.673-5.25 4.865-11.753 4.896"/>
                                <path fill="#FCB050" d="M15.976 18.684c8.807-.045 15.929-3.017 15.912-6.632l.024 4.687c.017 3.62-7.106 6.586-15.917 6.63C7.195 23.417.04 20.52.02 16.9L0 12.212c.016 3.619 7.172 6.516 15.976 6.472"/>
                                <path fill="#D1903D" d="M15.976 18.684C7.172 18.728.016 15.83 0 12.212c-.02-3.617 7.106-6.585 15.908-6.63 8.809-.047 15.96 2.851 15.98 6.47.017 3.615-7.105 6.587-15.912 6.632"/>
                                <path fill="#FFDF33" d="M15.967 16.974c-6.504.03-11.786-2.11-11.797-4.782-.014-2.668 5.247-4.865 11.746-4.899 6.505-.03 11.787 2.109 11.804 4.78.01 2.672-5.25 4.866-11.753 4.901"/>
                                <path fill="#FCB050" d="M15.976 13.102c8.803-.042 15.929-3.011 15.912-6.628l.024 4.69c.017 3.613-7.106 6.581-15.917 6.628C7.193 17.834.04 14.94.02 11.322L0 6.636c.016 3.619 7.172 6.513 15.976 6.466"/>
                                <path fill="#FCB050" d="M15.976 13.102C7.172 13.15.016 10.255 0 6.636-.02 3.018 7.106.045 15.908 0c8.805-.043 15.958 2.855 15.98 6.474.017 3.617-7.109 6.586-15.912 6.628"/>
                                <path fill="#E4A555" d="M15.967 11.39C9.463 11.427 4.181 9.286 4.17 6.614 4.153 3.945 9.417 1.75 15.916 1.717c6.505-.035 11.787 2.105 11.804 4.776.01 2.67-5.25 4.864-11.753 4.898"/>
                            </g>
                        </g>
                    </g>
                    <g mask="url(#sf62a2jjfb)">
                        <g>
                            <path fill="#005031" d="M98.524 26.352l5.964-1.7c10.557.941 15.836 9.407 15.836 25.395 0 23.983-24.181 40.103-31.502 40.103-4.88 0-7.38-6.738-7.501-20.213l17.203-43.585z" transform="translate(40.88 28.84)"/>
                            <path fill="#EAD5B3" d="M106.238 32.877s7.162 11.394-8.942 30.525c-1.662 1.935-5.845-1.054-15.924 3.852-6.023 2.677-28.097-2.578-34.693-7.132-6.596-4.553-21.563-23.524-19.906-31.143 1.658-7.618 14.625-11.93 22.355-10.125 7.73 1.805 43.955 1.856 57.11 14.023z" transform="translate(40.88 28.84)"/>
                            <path fill="#D8C19D" d="M56.857 27.912c0 2.29 2.35 6.278-7.73 11.184-6.022 2.677-10.472 5.77-17.068 1.217-6.596-4.553-6.943-3.715-5.286-11.334 1.658-7.618 14.625-11.93 22.355-10.125 2.168.507 7.73.092 7.73 9.058z" transform="translate(40.88 28.84)"/>
                            <path fill="#D8C19D" d="M29.228 46.364c.811 2.734 1.53 5.319 2.155 7.755.626 2.435 1.778 4.386 3.456 5.852 8.927 1.706 14.06 2.93 15.403 3.675 2.012 1.116 3.204 5.546-.867 5.735-4.071.189-13.217-.054-15.751-1.336-2.535-1.282-7.962-7.686-9.227-10.09-1.266-2.404-3.825-7.173 0-11.108 2.55-2.623 4.16-2.784 4.831-.483z" transform="translate(40.88 28.84) rotate(-29 37.235 57.094)"/>
                            <path fill="#E4CEAB" d="M24.004 32.263c1.131 3.81 2.133 7.414 3.006 10.809.872 3.395 2.478 6.114 4.818 8.158l14.879 8.247c2.806 1.556 5.158 9.04-.52 9.303-5.677.263-12.001-3.348-15.536-5.135-3.534-1.787-11.619-11.874-13.384-15.226-1.765-3.35-5.333-9.998 0-15.483 3.556-3.656 5.802-3.88 6.737-.673z" transform="translate(40.88 28.84) rotate(-29 32.06 49.404)"/>
                            <path fill="#EAD5B3" d="M24.88 17.443c10.409 1.26 15.954 2.681 16.636 4.266.661 1.538-7.595 8.11-8.443 8.943-2.16 2.121-3.952 3.697-5.378 4.729 7.527 7.425 14.219 11.137 20.075 11.137 8.785 0 1.37 9.206-5.222 9.206-6.592 0-14.134 1.788-17.668 0C21.346 53.937 13.26 43.85 11.496 40.5c-1.765-3.352-5.333-9.999 0-15.484 3.556-3.656 8.017-6.18 13.384-7.572z" transform="translate(40.88 28.84)"/>
                            <path fill="#F1DEBF" d="M.121 45.992c-.724 5.505 1.796 7.145 7.56 4.918 3.02-1.167 5.06-4.918 6.801-12.32.637-2.707 4.254-9.78 8.458-10.802 10.18-2.477 19.57-5.34 23.208-7 3.638-1.66 6.104 1.85 6.764 2.74.66.89 1.955 2.766.898 5.451-1.057 2.686-1.911 3.724-4.912 4.426-8.2 1.92-16.591 1.734-20.024 3.551-4.689 2.483-6.667 5.79-5.934 9.922.8 5.071 3.746 7.891 8.839 8.46 8.585.96 16.527-5.943 26.556-6.898 3.525-.335 1.868 4.447 11.498 7.835 9.63 3.389 15.228.735 16.937 0 6.716-2.889 27.405-15.193 18.701-25.087-2.991-3.4-4.706-2.658-12.142-5.742-4.958-2.056-14.105-7.055-27.442-14.998L52.912 1.706c-4.235-2.275-8.417-2.275-12.548 0-4.13 2.274-10.925 4.891-20.383 7.852-4.974.907-8.584 4.388-10.829 10.442-3.367 9.08-7.88 12.516-7.88 18.59 0 4.05-.383 6.517-1.15 7.402z" transform="translate(40.88 28.84)"/>
                            <path fill="#FAECDD" d="M23.822 46.763c-.198-2.4.995-4.32 2.523-5.553 1.529-1.232 5.028-1.73 6.245-1.73 1.218 0 3.444 1.96 3.894 3.825.45 1.864 1.195 5.55 1.254 7.067.039 1.011-.665 1.86-2.11 2.547-3.35.525-5.931.315-7.745-.631-2.721-1.419-3.864-3.124-4.061-5.525z" transform="translate(40.88 28.84) rotate(5 30.77 46.34)"/>
                            <path fill="#F6F6F6" d="M81.743 67.118C87.493 77.8 93.283 83.14 99.116 83.14c5.832 0 10.022-3.542 12.57-10.624L96.462 63.95c-4.381-.048-7.973.46-10.776 1.527-2.802 1.066-4.117 1.613-3.944 1.64z" transform="translate(40.88 28.84)"/>
                            <path fill="#FFF" d="M98.302 27.321c10.136 4.542 10.795 14.542 1.975 30-3.74 6.553-6.98 10.91-9.72 13.071-2.482 1.957 1.3 2.941 11.349 2.954h9.768c.552 0 1.06-.301 1.325-.785 11.685-21.302 11.54-36.425-.434-45.37-6.208-2.736-10.962-2.693-14.263.13z" transform="translate(40.88 28.84)"/>
                            <path fill="#FCB050" d="M7.218 43.12h14.587c.584 0 1.058.474 1.058 1.058 0 .032-.001.064-.004.096-.032.348-.048.746-.048 1.193 0 .469.018.887.052 1.256.055.582-.373 1.098-.955 1.152-.033.003-.066.005-.099.005H7.22c-.585 0-1.059-.474-1.059-1.058v-2.644c0-.584.474-1.058 1.058-1.058z" transform="translate(40.88 28.84)"/>
                            <path fill="#00915A" d="M88.822 90.15c17.82-.418 30.25-1.618 37.29-3.601 7.04-1.983 13.633-2.318 19.779-1.004v-67.1c-22.304 1.835-38.093 4.471-47.367 7.907 13.572 0 23.828 5.878 21.8 23.695-2.376 20.877-12.877 34.244-31.502 40.103z" transform="translate(40.88 28.84)"/>
                        </g>
                    </g>
                </g>
            </g>
        </g>
    </g>
</svg>
