<svg xmlns="http://www.w3.org/2000/svg" xmlns:xlink="http://www.w3.org/1999/xlink" width="188" height="188" viewBox="0 0 188 188">
    <defs>
        <filter id="9pjxwy1lnc" width="106.9%" height="104%" x="-3.5%" y="-2%" filterUnits="objectBoundingBox">
            <feGaussianBlur in="SourceGraphic" stdDeviation=".252"/>
        </filter>
        <filter id="41kx5lq8bd" width="106.9%" height="104%" x="-3.4%" y="-2%" filterUnits="objectBoundingBox">
            <feGaussianBlur in="SourceGraphic" stdDeviation=".252"/>
        </filter>
        <circle id="2umwqgxn1a" cx="93.52" cy="93.52" r="93.52"/>
    </defs>
    <g fill="none" fill-rule="evenodd">
        <g>
            <g>
                <g>
                    <g transform="translate(-494 -762) translate(140 624) translate(339 138) translate(15)">
                        <mask id="mcjwbigmkb" fill="#fff">
                            <use xlink:href="#2umwqgxn1a"/>
                        </mask>
                        <use fill="#E5F4EE" xlink:href="#2umwqgxn1a"/>
                        <g mask="url(#mcjwbigmkb)">
                            <g transform="translate(33.04 29.96)">
                                <path fill="#FFF" d="M0 6.932L40.6 0 40.6 108.428 0 115.36z"/>
                                <path fill="#E5E5E5" d="M40.04 0L80.64 11.363 80.64 119.56 40.04 108.197z"/>
                                <path fill="#FFF" d="M80.92 0L121.52 11.363 121.52 119.56 80.92 108.197z" transform="matrix(-1 0 0 1 202.44 0)"/>
                                <path stroke="#00915A" stroke-linecap="round" stroke-width="1.96" d="M12.735 54.465L40.465 38.215M12.74 54.32L12.74 38.08"/>
                                <path stroke="#00915A" stroke-linecap="round" stroke-linejoin="round" stroke-width="1.96" d="M40.6 38.36L55.933 47.893 55.933 90.243 80.988 99.68 109.76 68.109 109.76 48.283"/>
                                <circle cx="13.02" cy="34.3" r="3.78" stroke="#00915A" stroke-width="1.764"/>
                                <g stroke="#00915A" stroke-linecap="round" stroke-width="1.764">
                                    <path d="M4.246 0L4.246 8.069" transform="rotate(45 5.9 152.205)"/>
                                    <path d="M4.246 0.004L4.246 8.065" transform="rotate(45 5.9 152.205) rotate(-90 4.246 4.035)"/>
                                </g>
                            </g>
                        </g>
                        <g mask="url(#mcjwbigmkb)">
                            <g>
                                <path fill="#BEA387" d="M26.186 41.109c.13 1.393 1.28 2.219 1.28 5.531 2.667-2.717 6.258-7.252 9.084-15.115 1.812-6.948 3.62-7.987 4.96-9.585 1.34-1.597 7.012-9.157 4.195-12.081-2.817-2.924-8.642 3.523-10.4 7.284-.278.593-3.833 6.976-10.665 19.148.788.599 1.303 2.205 1.546 4.818z" filter="url(#9pjxwy1lnc)" opacity=".153" transform="translate(5.6 82.72)"/>
                                <path fill="#BEA387" d="M134.776 41.583c.13 1.396 1.29 2.224 1.29 5.543 2.689-2.723 6.31-7.267 9.16-15.145 1.826-6.962 3.65-8.004 5-9.604 1.352-1.601 7.071-9.176 4.23-12.106-2.84-2.93-8.713 3.53-10.487 7.299-.28.594-3.864 6.99-10.753 19.186.795.6 1.314 2.21 1.56 4.827z" filter="url(#41kx5lq8bd)" opacity=".153" transform="translate(5.6 82.72) scale(-1 1) rotate(-11 0 1526.182)"/>
                                <g>
                                    <path fill="#DDC0A1" d="M20.519 51.694c1.387-4.581 1.682-6.371 3.873-8.376 2.192-2.004 7.703-6.347 11.676-17.359 1.78-6.8 3.557-7.818 4.874-9.381 1.316-1.564 6.89-8.964 4.122-11.826s-8.491 3.448-10.22 7.13c-1.031 2.2-3.917 6.795-5.05 6.795-1.452 0-1.311-.511-2.382-2.1-.538-.798-.426-2.221-.016-3.728 0-1.467.016-11.103 0-12.73-.115.083-1.908 1.417-5.38 4-1.2.829-2.116 1.438-2.748 1.828-1.85 1.144-3.281 1.17-3.787 2.24-1.147 2.427-6.76 23.312-8.416 31.555-1.656 8.244-2.341 7.946-3.757 11.952-1.415 4.006-1.94 5.25-2.98 7.893-1.04 2.642 14.396 11.267 16.848 9.293.993-4.616 1.955-12.605 3.343-17.186z" transform="translate(5.6 82.72) translate(0 3.24)"/>
                                    <path fill="#F4E6D7" d="M40.632 6.276c.454-.67.91-1.66 2.581-2.164 1.673-.504 2.864 1.28 2.612 2.418-.252 1.137-1.1 2.585-1.794 3.4-.463.545-.871.736-1.226.574-1.493-1.122-2.33-1.817-2.508-2.084-.268-.4-.12-1.473.335-2.144z" transform="translate(5.6 82.72) translate(0 3.24)"/>
                                    <path fill="#C4AD93" d="M37.445 12.412c1.753-.415 3.258-.465 4.516-.15 1.258.317-.248.367-4.516.15z" transform="translate(5.6 82.72) translate(0 3.24) rotate(38 39.918 12.301)"/>
                                    <path fill="#C4AD93" d="M35.836 14.138c1.487-.007 2.763-.01 3.83-.008 1.066.001-.211.004-3.83.008z" transform="translate(5.6 82.72) translate(0 3.24) scale(1 -1) rotate(-38 -3.115 0)"/>
                                    <path fill="#C4AD93" d="M37.608 13.587c1.143-.277 2.125-.31 2.945-.1.82.211-.161.244-2.945.1z" transform="translate(5.6 82.72) translate(0 3.24) rotate(37 39.22 13.513)"/>
                                    <path fill="#C4AD93" d="M29.941 18.847c-1.074 1.695-1.938 2.714-2.59 3.056-.653.343.21-.676 2.59-3.056z" transform="translate(5.6 82.72) translate(0 3.24)"/>
                                    <path fill="#C4AD93" d="M28.813 17.881c-1.073 1.692-1.936 2.708-2.59 3.049-.652.34.211-.676 2.59-3.049z" transform="translate(5.6 82.72) translate(0 3.24) rotate(-145 27.413 19.438)"/>
                                </g>
                                <g>
                                    <path fill="#CDB59B" d="M5.056 71.823c-.313-5.677-.469-9.882-.469-12.616 0-4.101-1.183-9.687-2.516-11.852-1.333-2.164-1.314-3.03-1.925-5.27l2.09-3.932c.423-.795 2.17 6.984 2.82 11.523.649 4.54 3.639 17.53 3.105 21.208-.356 2.453-1.39 2.766-3.105.939zM13.442 17.42l4.453-8.587c2.56 6.043 2.144 11.939-1.25 17.687-.607.745-.911.357-.911-1.164-1.768-3.7-2.652-6.015-2.652-6.944 0-.368.12-.699.36-.992z" transform="translate(5.6 82.72) rotate(-28 91.729 -251.706)"/>
                                    <path fill="#DDC0A1" d="M8.109 70.496c-2.27-16.637-4.243-27.465-5.92-32.483-2.513-7.527 3.292-17.26 3.788-18.537.495-1.276.482-7.59.482-10.015 0-2.426.732-7.374 2.294-8.727 1.563-1.353 3.55-.42 3.55-.42s1.532.5 1.532 5.562v6.229c0 1.127-.897 6.116 0 8.093.897 1.977 2.255 5.05 2.255 6.492 0 1.442 4.064-6.05 2.9-12.586-.384-2.148-.813-3.8-1.288-4.955l3.102-5.961c.832 1.656 1.57 3.794 1.885 5.43.36 1.871 1.246 3.9 2.658 6.087 1.15 1.306 1.15 3.344 0 6.112-1.726 4.153-3.525 14.619-4.535 17.867-1.01 3.247-1.223 7.597-1.117 10.704.107 3.108 5.15 19.474 5.15 22.328 0 1.902-5.58 1.495-16.736-1.22z" transform="translate(5.6 82.72) rotate(-28 91.729 -251.706)"/>
                                    <path fill="#F4E6D7" d="M8.803 1.921c-.418 2.4-.274 3.786.43 4.162 1.057.563 2.465.903 3.533.31.712-.394.712-1.984 0-4.77C12.421.783 11.52.468 10.063.68c-.667.097-1.087.51-1.26 1.242z" transform="translate(5.6 82.72) rotate(-28 91.729 -251.706)"/>
                                    <path fill="#C4AD93" d="M8.409 9.958c1.752-.418 3.255-.47 4.511-.157 1.256.313-.247.366-4.511.157z" transform="translate(5.6 82.72) rotate(-28 91.729 -251.706)"/>
                                    <path fill="#C4AD93" d="M8.57 12.58c1.485-.236 2.76-.265 3.826-.088 1.065.177-.21.206-3.826.088z" transform="translate(5.6 82.72) rotate(-28 91.729 -251.706) matrix(1 0 0 -1 0 25.029)"/>
                                    <path fill="#C4AD93" d="M9.376 11.489c1.142-.279 2.123-.314 2.943-.105.819.209-.162.244-2.943.105z" transform="translate(5.6 82.72) rotate(-28 91.729 -251.706)"/>
                                </g>
                            </g>
                        </g>
                    </g>
                </g>
            </g>
        </g>
    </g>
</svg>
