<svg xmlns="http://www.w3.org/2000/svg" xmlns:xlink="http://www.w3.org/1999/xlink" width="188" height="188" viewBox="0 0 188 188">
    <defs>
        <circle id="od03fnbafa" cx="93.52" cy="93.52" r="93.52"/>
    </defs>
    <g fill="none" fill-rule="evenodd">
        <g>
            <g>
                <g>
                    <g transform="translate(-1143 -762) translate(140 624) translate(984 138) translate(19)">
                        <mask id="a8ood9lrgb" fill="#fff">
                            <use xlink:href="#od03fnbafa"/>
                        </mask>
                        <use fill="#E5F4EE" xlink:href="#od03fnbafa"/>
                        <g mask="url(#a8ood9lrgb)">
                            <g>
                                <path fill="#005C39" d="M100.422 138.12c-.122 2.2 10.283 6.538 10.71 3.363.429-3.175-10.4-8.932-10.71-3.363" transform="translate(56.28 22.4)"/>
                                <path fill="#A37767" d="M109.288 140.037c.18 1.012 1.13 8.034.682 9.289-.015.047-.031.095-.055.142-.51 1.208-2.04 2.361-2.542 3.177-.526.847-1.467.981-2.228 1.655-.76.683-2.675.8-2.675.8s-3.013 2.213-3.1 1.005c-.101-1.506 1.664-2.817 1.664-2.817l1.342-3.397s-.784-4.582-1.671-4.582c-.887.009-.557 1.9-1.004 3.405-.29.997-1.412.84-1.412.84l-.11-2.746s.18-3.938.69-4.683c.502-.746 3.036-3.359 3.036-3.359l1.06-5.664 7.594.456s-1.46 5.468-1.271 6.48" transform="translate(56.28 22.4)"/>
                                <path fill="#7F5C55" d="M109.915 149.468c-.51 1.208-2.04 2.361-2.542 3.177-.526.847-1.467.981-2.228 1.655-.76.683-2.675.8-2.675.8.722-.572 2.024-3.773 2.354-3.969.33-.196.525.259 1.114.259.588 0 .846-1.177 1.435-.981.588.196 1.177.267 1.632-.518.196-.337.549-.408.91-.423" transform="translate(56.28 22.4)"/>
                                <path fill="#005C39" d="M16.894 66.216c-1.825-2.113-9.216 6.648-6.289 9.807 2.929 3.16 8.597-3.161 8.597-3.161s-.4-4.435-2.308-6.646" transform="translate(56.28 22.4)"/>
                                <path fill="#A37767" d="M3.057 65.967c1.01.131 3.808 1.632 3.808 1.632 2 1.57 3.114 2.427 4.53 2.709 1.41.289 3.43 3.626 3.43 3.626s2.673-2.447 3.394-5.95c0 0-1.548-1.308-1.7-1.933-.31-1.242.705-2.942-.328-5.09-1.037-2.154-1.282-5.355-1.282-5.355s-1.2-.533-1.476.678c-.277 1.225.452 3.03.163 3.533-.06.102-.125.197-.204.277 0 0-.006.007-.015.027-.278.319-.662.531-1.024.515-.02.005-.053.01-.085.001-1.402-.196-3.645-2.422-4.546-3.504-1.252-1.507-3.094-3.489-3.689-2.357-.595 1.131.945 1.23 3.104 5.082l-.3.338c.14.287-2.41-1.37-4.373-3.307-1.356-1.33-1.825.014-1.634.642.184.632 1.743 1.77 2.712 2.744.646.637 1.324 1.295 1.728 1.684l-.201.562C1.486 61.3 1.07 59.853.2 60.53c-.863.672 1.26 2.493 2.398 2.896.49.177 1.301.732 2.064 1.303-2.921-.4-3.53-1.416-4.103-.727-.588.716 1.488 1.834 2.497 1.965" transform="translate(56.28 22.4)"/>
                                <path fill="#007F4F" d="M52.812 41.76L32.597 78.787s-.91-2.08-1.944-1.246c-1.033.834-13.76-11.324-13.76-11.324s.978 7.423-6.288 9.807c0 0 16.83 14.884 22.354 18.42 5.524 3.534 24.21-27.822 24.21-27.822l-4.357-24.86" transform="translate(56.28 22.4)"/>
                                <path fill="#0E5559" d="M97.305 110.371c0 16.741-1.647 33.79-2.07 38.116-.423 4.324-4.902 52.638-5.532 71.328-.323 9.575-3.396 21.163-3.396 21.163s-9.12-7.372-14.288-1.895l-1.294-7.47 2.422-5.882s-2.588-4.866-.47-8.646c2.116-3.78 2.765-84.58 2.765-84.58l-4.074-.26-19.551 93.486v5.325s-4.25 6.782-4.287 11.112l-12.99-4.419 2.116-6.137-1.408-8.762 4.719-11.426s13.503-89.364 12.405-99.391l44.933-1.662" transform="translate(56.28 22.4)"/>
                                <path fill="#D4ECF7" d="M69.486 121.216c-11.728-1.856-17.053-7.582-17.053-7.582s-.036-15.447-.478-32.052c-.476-17.845-1.292-37.028.857-39.821 3.016-3.917 8.943-5.597 16.674-6.006 2.916-.149 6.085-.122 9.455.036 2.496.115 4.864.52 7.068 1.132 8.65 2.415 14.712 8.088 15.633 12.54.672 3.249-2.987 23.842-4.458 41.254-1.058 12.526 0 23.836 0 23.836s-7.052 9.933-27.698 6.663z" transform="translate(56.28 22.4)"/>
                                <g>
                                    <path fill="#7F5C55" d="M5.46 29.66l1.877 11.121s3.002 1.73 9.98-2.201c0 0-2.843-8.576.743-14.217 0 0-.79-.017-2.047.03 0 0-1.774 6.38-10.553 5.268" transform="translate(56.28 22.4) translate(64.68)"/>
                                    <path fill="#253C45" d="M1.503 10.092s-3.17-2.609-.303-3.458c0 0-1.21-3.193.178-3.715 1.386-.521 2.801.762 3.57-.606C5.718.945 7.395-1.247 10.36.9c2.964 2.148 4.613-1.377 5.887-.238 1.274 1.14.496 2.982 2.575 3.257 2.079.276 4.025.764 3.553 2.861-.473 2.097 1.816 2.235 1.923 3.515.107 1.278-.868 1.65-.956 2.74-.087 1.09 1.451 1.555.9 3.192-.552 1.639-2.127 1.405-2.002 2.579.124 1.175 1.158 3.771-.334 4.14-1.491.369-2.05 3.013-3.79 2.638-1.74-.376-16.612-15.492-16.612-15.492" transform="translate(56.28 22.4) translate(64.68)"/>
                                    <path fill="#A37767" d="M20.573 19.117c.38 10.421-14.6 14.902-17.413 9.937-.902-1.591-1.796-6.007-2.125-9.056-.077-.691-.132-1.39-.164-2.09-.212-4.748.64-9.47 3.386-10.516 9.557-3.648 15.85-1.054 16.316 11.725" transform="translate(56.28 22.4) translate(64.68)"/>
                                    <path fill="#253C45" d="M17.47 19.38s.224-3.804-2.075-6.003c-2.3-2.201-.3-5.439-.3-5.439s-9.213-1.56-13.315 2.17c0 0-3.068-5.403 5.697-7.608 8.764-2.206 23 4.61 11.04 23.12l1.952-6.407-2.999.167" transform="translate(56.28 22.4) translate(64.68)"/>
                                    <path fill="#A37767" d="M17.688 18.673s2.042-2.453 3.973-.984c1.93 1.47-1.241 5.973-3.311 5.828-2.07-.145-.662-4.844-.662-4.844" transform="translate(56.28 22.4) translate(64.68)"/>
                                </g>
                                <path fill="#00915A" d="M67.965 44.608s8.97 21.94 7.056 49.808l-2.83 5.143-3.19-4.38s-.514-37.012-3.061-50.659l2.025.088z" transform="translate(56.28 22.4) matrix(-1 0 0 1 141.228 0)"/>
                                <path fill="#008452" d="M73.773 41.16l2.449 3.294s-1.434 1.924-3.982.503l1.533-3.797z" transform="translate(56.28 22.4) matrix(-1 0 0 1 148.462 0)"/>
                                <path fill="#B3D9EB" d="M71.252 35.28c-1.6.223-2.216.882-1.85 1.979.366 1.096 1.172 3.656 2.418 7.681 1.196-1.531 2.036-2.738 2.52-3.622-1.727-1.406-2.757-3.418-3.088-6.038z" transform="translate(56.28 22.4) rotate(-4 71.82 40.11)"/>
                                <path fill="#B3D9EB" d="M81.22 35.28l1.94.885c-1.232 3.358-3.56 6.563-6.985 9.615l-1.415-4.271c2.844-1.268 4.997-3.345 6.46-6.229z" transform="translate(56.28 22.4) rotate(4 78.96 40.53)"/>
                                <path fill="#00915A" d="M78.798 126.145s-3.704-69.73-2.703-76.266c0 0 .2-3.37 2.703-6.223 2.523-2.877 3.4-7.037 3.543-8 8.65 2.416 18.586 5.595 19.507 10.047.605 2.924-3.557 25.888-4.543 45.014-.897 17.401 1.397 31.247 1.397 31.247s-8.923 5.941-19.904 4.181zM65.457 47.857c-.439 4.11-7.38 75.289-7.38 75.289-6.266-.036-7.694-3.618-7.694-3.618s.933-13.752.908-29.714c-.032-20.656-.819-45.012 1.52-48.053 3.017-3.917 8.944-5.597 16.675-6.006-1.179 1.876-3.386 6.086-4.029 12.102z" transform="translate(56.28 22.4)"/>
                                <path fill="#007F4F" d="M101.11 43.656c-5.932 3.117-8.032 16.103-7.402 21.37l8.398 25.596s.21 2.978 1.26 3.398l-2.944 44.1c.846-1.675 9.493-.31 10.71 3.363 0 0 5.886-42.574 5.044-54.258-.168-2.319-15.066-43.57-15.066-43.57" transform="translate(56.28 22.4)"/>
                            </g>
                        </g>
                        <g mask="url(#a8ood9lrgb)">
                            <g>
                                <path fill="#165A6F" d="M27.706 198.42c.256-16.217 3.495-40.768 3.94-44.835.289-2.627 2.548-9.487 5.569-19.52 7.006-23.267 7.462-40.055 5.062-55.208l-15.652.36c-2.71 12.034-18.068 25.02-7.62 38.938.421 5.196 3.387 22.82 2.129 30.582-1.485 9.158-2.371 13.642-1.814 24.278.231 4.429 2.634 18.308 2.622 25.405h5.764" transform="translate(22.96 44.24)"/>
                                <path fill="#F8BC95" d="M67.78 46.532l-3 3.57c-3.01 3.567-2.254 3.854-1.687 6.306.527 2.293 4.823 1.791 6.533 1.1 1.449-.575 5.308.312 6.376-.488.432-.322.002-.496-1.244-.618-1.463-.147-2.753-.782-2.753-.782.92-1.353 6.16-.298 6.925-1.893.37-.778-5.889.605-6.485-.198 0 0 .287-.523 3.302-1.448 1.73-.534 3.517-1.067 3.618-1.648.176-1.057-3.254.686-7.605 1.075 0 0 1.756-.902 3.44-1.627 1.54-.656 3.047-1.11 2.69-1.767-.29-.54-2.666.55-4.206 1.187-2.87 1.183-5.229 1.424-6.454 1.46-.586.024-.913-.014-.913-.014 2.758-3.893 1.462-4.215 1.462-4.215" transform="translate(22.96 44.24)"/>
                                <path fill="#253C45" d="M6.988 4.965c-3.892 4.918-7.028 47.059 0 62.248 0 0 13.763 2.221 24.68-1.516 0 0 2.62-54.753-3.947-61.583l-20.733.851" transform="translate(22.96 44.24)"/>
                                <path fill="#E35053" d="M29.085 34.533c10.13 2.44 12.02 3.209 17.69 31.7 0 0 14.753-16.96 17.648-15.7 0 0-.952 1.522 1.087 5.06 1.189 2.066 3.316 2.172 3.316 2.172.42 3.36-14.54 26.248-19.345 27.718-4.805 1.47-17.566-14.141-19.48-19.25-1.915-5.11-.916-31.7-.916-31.7" transform="translate(22.96 44.24)"/>
                                <path fill="#C2454B" d="M13.806 29.945c.627-1.171 11.558.781 12.63 1.673 1.072.893-4.098 4.845-6.868 3.709-2.77-1.136-6.497-4.011-5.762-5.382" transform="translate(22.96 44.24)"/>
                                <path fill="#165A6F" d="M6.036 132.207c.625 5.18 1.79 8.646 2.255 13.005.677 6.347-3.204 15.542-.687 25.763 1.191 4.839 2.92 20.814 3.819 29.65h5.9c.005-.084.008-.172.014-.252 1.542-21.504 1.204-46.3 2.342-56.048.48-4.108 3.338-10.78 4.453-16.083.006-.026 3.393-15.42 5.714-16.713 9.5-5.288 12.43-32.672 12.43-32.672l-23.355 1.086S4.553 91.244 6.671 111.362c0 0-.03.206-.074.568-1.247 9.47-1.127 15.582-.561 20.277" transform="translate(22.96 44.24)"/>
                                <path fill="#C2454B" d="M7.428 106.273c4.237 9.555 43.3 6.613 41.88-2.1-3.792-23.26-9.62-37.685-9.62-37.685 10.735-18.325-8.02-31.164-8.02-31.164s-17.5-6.41-27.098 1.824c-9.599 8.235 10.718 33.674 10.718 33.674-2.761 6.802-9.683 31.342-7.86 35.451" transform="translate(22.96 44.24)"/>
                                <path fill="#F8BC95" d="M12.285 4.2S26.08-.417 28.857 9.295c2.778 9.712.255 19.955-6.22 19.27-9.11-.963-21.067-18.9-10.352-24.363" transform="translate(22.96 44.24)"/>
                                <path fill="#253C45" d="M17.78 9.192s-3.158 4.023-2.996 9.246c0 0-2.315-2.837-3.525-.372-1.21 2.465 3.638 6.065 3.638 6.065s-7.808.44-8.724-9.657c-.387-4.254 5.135-8.138 11.606-5.282" transform="translate(22.96 44.24)"/>
                                <path fill="#F7B275" d="M15.068 21.952c1.058 2.85 5.116 7.787 9.413 6.377 0 0-1.08 4.25.708 5.798 0 0 1.888 3.288-2.41 3.757-5.376.585-8.37-3.757-8.37-3.757 2.343-5.215-.874-11.65-.874-11.65 1.16.767 1.533-.525 1.533-.525" transform="translate(22.96 44.24)"/>
                                <path fill="#253C45" d="M11.076 1.75C2.57 5.588 6.173 14.474 6.173 14.474c.87-3.39 7.362-5.85 7.362-5.85-.482 2.624 1.973 5.044 1.973 5.044.678-.956 1.437-1.738 2.24-2.384.173-.441.341-.924.471-1.422.116-.45.215-.906.269-1.34.027-.216.06-.426.064-.627.006-.2.031-.391.018-.566-.002-.352-.02-.646-.053-.85l-.039-.323.075.317c.055.2.106.492.148.847.033.178.029.372.046.577.017.205.009.421.006.646-.005.45-.055.928-.123 1.404-.039.267-.089.531-.145.79.308-.21.62-.404.936-.578.116-.19.23-.385.335-.587.378-.723.635-1.508.73-2.12.043-.306.068-.565.06-.746l.004-.288.033.286c.03.181.039.443.033.76-.017.633-.178 1.477-.476 2.278l-.026.064c.926-.436 1.867-.743 2.782-.947-.027-.257-.06-.526-.102-.796-.09-.597-.228-1.186-.368-1.62-.143-.43-.278-.707-.278-.707s.18.247.399.657c.216.41.46.981.655 1.57.09.264.17.53.243.785.586-.107 1.16-.178 1.705-.218-.089-.447-.215-.995-.377-1.541-.18-.616-.414-1.217-.628-1.652-.215-.433-.4-.704-.4-.704s.226.236.513.637c.286.402.622.971.906 1.567.286.583.525 1.189.693 1.655.969-.033 1.83.016 2.512.088 0-.068.002-.139 0-.222-.006-.4-.04-.942-.145-1.474-.1-.533-.27-1.055-.442-1.43-.085-.189-.166-.342-.23-.444l-.096-.167.125.146c.084.09.192.226.314.4.245.344.523.844.732 1.377.214.53.359 1.089.447 1.514.032.154.054.285.072.4.523.08.828.153.828.153.63-8.4-10.393-10.92-18.898-7.083" transform="translate(22.96 44.24)"/>
                                <path fill="#E35053" d="M11.966 33.576c.09 2.068 5.41 5.873 11.78 5.09 6.37-.782 3.855-6.328 2.69-7.048 0 0-3.81 2.666-12.63-1.673 0 0-1.19.659-1.05 1.919.14 1.26-.79 1.712-.79 1.712" transform="translate(22.96 44.24)"/>
                                <path fill="#F7B275" d="M9.396 122.548s.368 1.562 0 2.516-1.965 3.05-1.717 4.204c.247 1.155-1.013 1.68-.908-1.575.105-3.255 0-5.775 2.625-5.145" transform="translate(22.96 44.24)"/>
                                <path fill="#F8BC95" d="M7.679 122.968l-.908 4.725s-.63 3.255-1.26 3.15c-.63-.105-.945-2.625-.945-2.625s-1.575-.837-1.68-1.311c-.105-.474-.104-2.154-.892-2.364-.788-.21-.578-6.09-.578-6.09s5.595 2.94 6.263 4.515" transform="translate(22.96 44.24)"/>
                                <path fill="#E35053" d="M4.57 37.148c4.285-3.06 9.637 12.951 10.286 18.76 1.47 13.157-.42 63.316-3.99 67.55-3.57 4.235-7.77-1.047-10.08-2.816-2.31-1.769 1.208-37.679 1.208-37.679s-5.61-39.97 2.576-45.815" transform="translate(22.96 44.24)"/>
                            </g>
                        </g>
                    </g>
                </g>
            </g>
        </g>
    </g>
</svg>
