<svg xmlns="http://www.w3.org/2000/svg" xmlns:xlink="http://www.w3.org/1999/xlink" width="188" height="188" viewBox="0 0 188 188">
    <defs>
        <circle id="gr7hpxyica" cx="93.52" cy="93.52" r="93.52"/>
    </defs>
    <g fill="none" fill-rule="evenodd">
        <g>
            <g>
                <g>
                    <g transform="translate(-817 -762) translate(140 624) translate(658 138) translate(19)">
                        <mask id="0izqn24lwb" fill="#fff">
                            <use xlink:href="#gr7hpxyica"/>
                        </mask>
                        <use fill="#E5F4EE" xlink:href="#gr7hpxyica"/>
                        <g mask="url(#0izqn24lwb)">
                            <g>
                                <g>
                                    <path fill="#FFF" d="M120.071 152.378L89.94 114.01 221.808 114.01 225.281 142.264z" transform="translate(-20.16 20.784)"/>
                                    <path fill="#B27868" d="M128.296 13.622c1.333 1.037 2.64 2.194 4.089 3.048 1.935 1.14 3.496 2.846 4.985 4.518 1.607 1.803 2.634 3.979 2.848 6.42.052.588.016 1.174.163 1.747.067.26.127.48.104.754-.068.831-.452 1.634-.674 2.428-.215.768-.407 1.293-.88 1.92-.218.288-.414.591-.647.868-.709.843-1.636 1.66-2.66 2.07-.52.21-1.056.544-1.603.64-.22.038-.327.07-.532.163-.204.092-.438.072-.628.16-.216.101-.361.23-.614.307-.826.253-1.577.753-2.378 1.08-.517.211-1.02.373-1.458.743-1.438 1.218-1.95 3.194-1.365 5.017.263.818.394 1.688.614 2.524.367 1.395.662 2.67.662 4.128 0 .729.017 1.447-.178 2.156-.137.498-.358.988-.552 1.465-.33.81-.804 1.598-1.31 2.298-.226.314-.392.659-.654.944-.212.23-.466.427-.663.67-.17.21-.772.723-.722.979.003-.004.005-.01.006-.015-.423.437-.885.904-1.32 1.356-.001-.002.012-.012.007-.008 0-.002-.001-.013.004-.012.03.236-.232.466-.335.642-.147.251-.267.524-.396.789-.242.497-.478.999-.727 1.493-.325.644-.335 1.496-.295 2.24.011.21.095.333.137.534.051.249.003.516.009.77.014.614.216 1.379.436 1.949.223.577.581 1 .884 1.526.243.422.404.775.72 1.133.271.308.995 1.18.806 1.56-.02.04-.202.239-.253.264-.239.118-.264-.035-.44-.085-.158-.046-.305-.018-.465-.046-.137-.025-.29-.117-.458-.15-.535-.103-1.151-.331-1.662-.521-.354-.131-.657-.369-1.02-.482-.471-.147-.932-.207-1.389-.41-.998-.448-1.826-1.08-2.753-1.646-1.037-.633-1.978-1.387-2.915-2.16-.769-.635-1.527-1.323-2.022-2.216-.252-.454-.5-.904-.784-1.338-.267-.41-.408-.793-.606-1.229-.178-.39-.34-.586-.444-1.008-.056-.224-.096-.455-.16-.676-.094-.314-.23-.737-.38-1.029-.428-.838-1.015-1.493-1.75-2.058-.513-.395-1.024-.804-1.515-1.225-.776-.664-1.644-1.217-2.415-1.878-.476-.407-1.062-.59-1.6-.892-.507-.284-.928-.506-1.342-.934-1.525-1.576-2.598-3.357-3.637-5.3-1.532-2.866-2.052-6.252-2.038-9.49.006-1.242-.06-2.49.078-3.727.16-1.417.511-2.752.793-4.141.5-2.462 1.337-4.805 2.648-6.93.738-1.197 1.312-2.497 2.248-3.549.862-.97 1.84-1.838 2.718-2.8.783-.861 1.973-1.337 2.646-2.297.208-.296.46-.527.621-.855.164-.334.34-.609.524-.932.526-.923 1-1.874 1.459-2.836.133-.279.25-.565.36-.855.366-.973.629-1.985 1.023-2.948.362-.883.957-1.609 1.345-2.472.705-1.568 2.478-2.834 4.13-3.13.391-.07.83-.01 1.23-.01.193 0 .387.003.58 0 .218-.003.312.073.47.116.312.084.554.165.84.332.748.435 1.48.957 2.182 1.493.243.185.547.354.74.597.11.14.162.309.272.449.315.401.661.818 1.018 1.183.497.508.79 1.147 1.204 1.724.21.292.404.616.64.884.237.27.403.57.633.846.248.298.568.494.836.765.237.237.41.534.655.766.614.581 1.302 1.092 1.972 1.601l.3.231" transform="translate(-20.16 20.784)"/>
                                    <path fill="#B27868" d="M124.246 18.167c.217.048.436.346.584.505.44.469.875.958 1.3 1.444.431.492.986.953 1.356 1.49.336.489.747.938 1.15 1.374.178.193.395.318.572.514.268.297.567.598.808.918.331.438.799.78 1.067 1.273.168.307.425.517.634.796.178.237.345.478.53.709.18.222.327.454.458.707.146.281.328.516.513.775.42.585.786 1.234 1.102 1.883.587 1.205.893 2.501 1.324 3.764.19.562.423 1.11.624 1.667.034.095.135.256.128.357-.015.199-.295.248-.44.358-.233.185-.446.397-.686.574-.28.206-.598.348-.906.506-.391.2-.719.505-1.111.7-.288.142-.652.129-.874.39-.023-.29.353-.721.448-.99.308-.86.6-1.802.586-2.721-.014-.946.392-2.2-.062-3.107-.198-.397-.467-.605-.818-.859-.348-.251-.639-.577-1.013-.788-.493-.276-.96-.515-1.492-.702-.199-.07-.434-.205-.651-.204-.353.002-.766.298-1.065.463-1.42.785-1.411 2.517-1.12 3.92.365 1.764.396 3.648.037 5.418-.083.412-.177.715-.365 1.085-.163.322-.273.651-.432.975-.194.393-.483.798-.772 1.12-.467.523-1.148 1.015-1.745 1.337-.25.135-.47.342-.72.448-.285.121-.574.197-.84.336-.23.12-.452.23-.692.335-.16.07-.266.09-.453.137-.68.169-1.173.686-1.858.85-.838.2-1.613.663-2.352 1.105-.902.54-1.84 1.274-2.228 2.316-.309.83-.532 2.091.285 2.702.443.331 1.216.459 1.73.62.81.255 1.607.475 2.36.883 2.312 1.249 4.074 4.438 2.782 7.032-.519 1.042-1.211 2.04-2.08 2.808-.69.611-1.702 1.203-2.586 1.415-.738.177-1.769.337-2.393.781-.215.153-.513.303-.673.519-.129.173-.15.398-.255.56.173.109.12.311.12.49 0 .246.06.371.114.597.1.418.233.852.311 1.27.096.514-.3.507-.625.354-.168-.08-.267-.09-.451-.142-.35-.099-.53-.374-.655-.703-.163-.426-.21-.646-.518-1.004-.478-.556-.986-1.243-1.372-1.863-.665-1.07-1.185-2.216-1.835-3.289-.34-.56-.723-1.01-1.223-1.419-.533-.437-1.045-.962-1.605-1.355-.217-.153-.466-.215-.687-.355-.2-.127-.351-.329-.546-.463-.163-.113-.354-.164-.513-.284-.215-.161-.37-.422-.571-.605-.469-.425-1.007-.764-1.48-1.193-.624-.567-1.192-1.2-1.796-1.793-.478-.47-1.016-.887-1.441-1.414-.525-.65-1.148-1.185-1.614-1.884-1.032-1.55-2.103-3.26-2.698-5.051-.167-.502-.224-1.003-.324-1.517-.108-.555-.267-1.083-.335-1.647-.173-1.446-.186-3.059.15-4.468.108-.454.172-.941.39-1.351.202-.38.474-.761.715-1.119.723-1.072 1.905-1.539 2.972-2.16.668-.389 1.288-.77 2.022-1.016.708-.237 1.432-.437 2.145-.665 1.936-.619 3.922-1.04 5.822-1.781.915-.357 1.816-.718 2.695-1.162 1.094-.553 2.25-.996 3.249-1.723.72-.523 1.508-.975 2.173-1.57.851-.764 1.514-1.723 2.248-2.6.64-.766 1.29-1.612 1.84-2.45.136-.206.237-.436.426-.598.145-.123.348-.2.498-.329.222-.19.423-.388.667-.557.553-.38.953-.864 2.036-1.68" transform="translate(-20.16 20.784)"/>
                                    <path fill="#FFD8B8" d="M82.494 46.095h3.339c.81 0 1.579-.003 2.371-.115.485-.07.942-.053 1.426-.15.456-.091.918.022 1.375-.066 1.085-.21 1.74-.171 2.829-.413.577-.127 1.179-.275 1.752-.42.33-.083.85-.364 1.184-.428.192-.037.94-.125 1.134-.177 1.957-.527 3.2-1.22 5.076.177 2.2 1.639 4.005 5.293 6.96 2.987 1.663-1.297 2.808-3.125 4.09-4.783.439-.567.968-1.526 1.735-1.61.574-.063 1.936.432 2.516.593.396.11.9.125 1.313.078.286-.033.62-.186.8-.448.051-.073.215-.348.226-.447.023-.219-.122-.266-.164-.445-.375-1.587-.316-4.26.199-5.795.405-1.208 1.14-2.18 1.802-3.246 1.761-2.837 2.87-5.443 3.093-8.889.164-2.534-.453-6.032-2.067-8.032-.908-1.124-1.771-2.336-2.802-3.394-.777-.797-1.586-1.47-2.46-2.154-.787-.616-1.667-1.087-2.555-1.496-.914-.421-1.776-.708-2.775-.876-1.111-.186-2.21-.178-3.337-.178-.742 0-1.486-.022-2.227-.003-.732.018-1.465.231-2.16.48-.977.351-1.989.84-2.881 1.371-1.017.607-2.01 1.29-2.807 2.184-1.375 1.544-2.796 3.073-3.893 4.846-.556.899-1.249 1.684-1.752 2.625-.5.935-.976 1.887-1.558 2.756-.316.473-.632.94-.94 1.418-.353.547-.819.871-1.238 1.345-.926 1.046-2.214 1.791-3.371 2.549-.625.409-1.31.686-1.941 1.08-.602.374-1.247.44-1.892.706-.642.266-1.31.368-1.99.49-.981.174-2.072.272-3.065.257" transform="translate(-20.16 20.784)"/>
                                    <path fill="#7DBBB8" d="M89.94 114.01L89.94 118.895 115.968 151.966 117.452 147.688z" transform="translate(-20.16 20.784)"/>
                                    <path fill="#0A3A44" d="M118.803 36.824c1.8-1.063 4.147-3.549 4.147-3.549l-2.304-2.247-2.895 4.42s-1.253 2.736 1.052 1.376m.806-6.299l-9.314-7.66.442-.906 10.255 8.078 2.051 2.354c.37.365.37.974-.002 1.336-1.265 1.234-4.019 3.762-5.679 4.102 0 0-1.713.155-.734-2.292 1.003-2.508 2.981-5.012 2.981-5.012" transform="translate(-20.16 20.784)"/>
                                    <path fill="#B27868" d="M123.615 17.918c-.126-.001-.272-.138-.362-.222-.13-.12-.205-.191-.374-.27-.421-.194-.785-.508-1.209-.693-.265-.115-.582-.15-.865-.19-.76-.106-1.493.265-2.211.476-.73.215-1.389.627-1.99 1.096-.657.512-1.217 1.181-1.8 1.777-.296.302-.562.622-.868.913-.215.205-.34.458-.532.68-.429.494-.773 1.116-1.158 1.628-.245.327-.44.653-.732.953-.123.127-.21.253-.31.396-.152.215-.339.389-.493.6-.221.305-.436.55-.697.822-.207.214-.363.46-.553.694-.147.18-.315.342-.464.52-.18.213-.304.475-.487.682-.16.18-.343.375-.518.543-.209.202-.474.54-.738.656.27.003.614-.284.839-.403.467-.246.873-.58 1.268-.928.566-.499 1.12-1.046 1.554-1.673.177-.255.41-.427.63-.64.285-.277.544-.563.818-.848.444-.462 1.015-.833 1.502-1.239.539-.449 1.046-.933 1.567-1.41.133-.121.3-.205.427-.327.128-.124.213-.289.34-.412.165-.158.311-.33.47-.496.162-.168.331-.31.467-.492.118-.157.276-.222.409-.36.172-.179.277-.35.494-.489.205-.132.273-.254.433-.428.121-.132.256-.168.396-.268.25-.178.435-.365.719-.499.493-.232 1.165-.453 1.7-.447.404.003.76-.034 1.153-.092.651-.096 1.242.078 1.175.39" transform="translate(-20.16 20.784)"/>
                                    <path fill="#B27868" d="M130.937 15.628c-.665-.014-1.211-.222-1.846-.479-.55-.222-1.093-.463-1.648-.675-.724-.277-1.347-.688-2.03-1.05-.934-.496-1.889-.968-2.808-1.492-.985-.563-2.183-1.178-3.302-1.355-1.14-.181-2.23-.276-3.356.04-1.008.285-2.024.711-2.914 1.277-.915.583-1.815 1.18-2.61 1.934-.701.664-1.306 1.465-1.967 2.173-.639.684-1.28 1.424-1.849 2.17-.564.738-1.27 1.324-1.819 2.086-.374.519-.774 1.011-1.192 1.49-.285.327-.632.59-.891.941-.156.21-.263.459-.419.669-.66.885-1.574 1.643-2.371 2.394-.435.409-.968.77-1.426 1.16-.235.2-.866.415-.967.668.092.22.469.17.663.154.56-.047 1.255-.113 1.788-.295.714-.245 1.442-.436 2.16-.672.45-.148 1.124-.38 1.592-.212.055.312.06.797.004 1.11-.115.64-1.232 1.154-1.72 1.47-2.438 1.576-5.084 2.414-7.876 3.08-1.081.257-2.195.427-3.292.589-.556.082-1.099.294-1.654.299-.364.003-.567.153-.94.15-.926-.01-1.854-.007-2.78 0-1 .005-1.969-.158-2.973-.146-1.244.015-2.633-.144-3.843-.445-2.94-.73-5.843-1.661-8.654-2.812-1.697-.696-3.307-1.891-3.638-3.836-.116-.68-.065-1.613.016-2.287.113-.942.396-1.96 1.277-2.434.814-.439 1.563-.79 2.47-.996 1.304-.296 2.639-.477 3.96-.677 2.267-.343 4.652-.307 6.804-1.229 2.027-.868 4.041-1.873 5.71-3.36.394-.35.85-.594 1.264-.908.471-.357.9-.791 1.344-1.183.953-.84 1.898-1.72 2.734-2.686.874-1.011 1.66-2.059 2.627-2.99.479-.46.928-.95 1.404-1.41.51-.495 1.106-.894 1.65-1.351 1.997-1.68 4.173-2.926 6.627-3.734 3.82-1.258 8.117-.782 11.715.97 1.643.8 3.097 1.787 4.385 3.095.296.3.665.52.957.822.31.32.611.692.906 1.028.63.72 1.316 1.307 2 1.958.698.664 1.463 1.274 2.041 2.062.5.682 1.162 1.232 1.707 1.881 1.198 1.427 2.508 2.894 2.98 3.044" transform="translate(-20.16 20.784)"/>
                                    <path fill="#FFD8B8" d="M99.61 79.87c5.027 1.543 9.732 4.189 14.84 5.707 5.174 1.537 10.67 2.373 16.05 2.604 3.394.146 7.008.253 10.2.209 2.505-.034 4.891-.054 6.947 1.829 1.365 1.25 1.851 2.578 3.56 3.528 2.283 1.268 4.595 2.282 6.64 3.89-2.485 1.354-5.665-2.7-8.463-1.462-1.289.57-2.246 2.257-3.546 2.918-2.093 1.063-3.614.344-5.883-.375-4.58-1.451-8.826-4.78-13.753-4.96-5.581-.205-11.137.517-16.712.485-4.424-.025-14.184.115-16.993-4.07" transform="translate(-20.16 20.784)"/>
                                    <path fill="#00915A" d="M88.794 76.308c-2.472-2.027-1.657-6.208-5.218-7.655.693-3.376 1.35-6.762 1.875-10.17.346-2.245-.17-6.209 1.387-7.962.819-.921 2.096-.854 2.934-1.543 1.435-1.18.773-2.093-.236-4.132-.969-1.956-2.36-3.64-3.885-5.167-2.754-2.76-6.41-4.498-10.284-4.635-5.472-.195-10.57-1.068-16.041-.843-5.737.237-11.393 1.578-16.697 3.82-5.156 2.177-9.786 6.213-14.194 9.618-4.29 3.314-8.683 6.95-11.846 11.495C9.539 69.266 6.154 82.131 1.9 93.59c-.976 2.628-3.748 8.032.344 9.414 2.836.957 5.786-2.695 8.847-2.644 3.991.065 7.526 2.417 11.36 3.177 7.052 1.397 14.26 1.12 21.163-1.085 3.781-1.21 7.295-2.05 8.906-6.103 1.31-3.297 2.217-6.81 3.351-10.171.542-1.606 1.08-4.909 2.658-5.837 1.669-.981 5.837-.149 7.676.106 2.16.299 3.983-.144 5.872-1.174.448 2.996 3.855 7.397 5.858 9.547 2.604 2.795 10.906 7.141 14.385 4.024 1.672-1.498 2.534-4.35 3.419-6.389.67-1.547 1.32-3.004 2.33-4.374.808-1.095 2.374-1.913 1.267-3.26-.671-.818-2.437-.98-3.375-1.156-1.953-.366-5.549-.028-7.168-1.356" transform="translate(-20.16 20.784)"/>
                                    <path fill="#007649" d="M93.166 91.833c.032-.006.065-.01.098-.012.693-.048 2.112 1.136 2.84 1.39 2.053.719 4.315.993 6.477.984 6.661-.028 13.538-.168 20.17-.46 7.72-.339 13.751 6.279 21.328 5.63-3.505.363-6.383-2.609-9.11-4.464-2.648-1.803-4.936-2.711-8.148-2.706-7.839.014-15.898.13-23.305-2.862-1.78-.72-3.548-1.485-5.218-2.47-2.156-1.271-3.34-3.124-5.54-1.1-1.283 1.181-2.009 3.445-4.164 2.481-1.943-.869-.072-3.75-.922-5.234-1.288-2.248-2.98.04-4.47.802-3.569 1.822-2.54-3.974-1.777-5.78 1.068-2.527 2.636-6.155 2.211-9.051-1.67 3.121-3.157 6.625-6.568 8.074-1.3.552-2.783.685-4.248.703-3.029.038-5.86-.617-8.717-1.513-2.219-.696-5.262-1.55-7.074-3.072.018 1.496-.387 3.237.497 4.514 1.167 1.687 3.933 1.865 5.754 2.167 3.14.522 5.762.061 8.715-.587-.11.025 2.507 4.962 2.796 5.385 1.25 1.83 2.754 3.495 4.506 4.83 2.794 2.128 7.891 5.765 11.497 4.227.85-.364 1.477-1.724 2.372-1.876" transform="translate(-20.16 20.784)"/>
                                    <path fill="#FFBE94" d="M102.86 37.848c.007-1.823.453-3.628.291-5.418-.16-1.783-1.484-2.297-2.994-1.183-1.853 1.366-3.762 4.728-4.74 6.772-1.133 2.364-2.833 7.054-5.598 7.786 3.835.252 7.077-1.812 10.827-1.79 1.955.012 2.63.595 3.957 2.012.763.815 3.216 3.233 3.931 1.712-3.269-1.888-5.687-5.88-5.673-9.89zM125.399 23.271c0-.791-.25-1.735-1.043-1.975-1.476-.445-3.313.132-4.772.405-1.5.281-3.272.913-4.76.802 1.75-1.478 3.058-3.546 5.094-4.689 1.084-.608 2.085-.86 3.298-.469 2.288.738 2.36 2.496 2.36 3.951 0 1.456-.177 2.767-.177 1.975z" transform="translate(-20.16 20.784)"/>
                                    <path fill="#B27868" d="M125.41 19.959c0-.443-.206-.619-.434-1.009-.262-.447-.693-.868-1.162-1.076-.553-.244-1.285-.198-1.872-.162-.796.048-1.6.357-2.286.754-.56.325-1.18.6-1.636 1.078-.42.44-.784.93-1.227 1.353-.406.388-.844.709-1.24 1.117-.627.646-1.292 1.24-1.934 1.869-.164.16-.295.372-.461.527-.268.25-.581.324-.817.627-.39.503-.785.839-1.305 1.195-.392.267-.746.69-1.09 1.016-.504.475-1.035.828-1.597 1.22-.977.68-1.884 1.624-2.98 2.099-1.18.512-2.147 1.445-3.385 1.825-1.72.527-3.302 1.471-5.052 1.905-1.52.377-3.034.915-4.578 1.045-.438.037-.87.117-1.309.182-.385.058-.785.081-1.168.15-.475.086-.953.121-1.422.229-.452.104-.9.219-1.35.335-1.66.43-3.258 1.146-4.794 1.946-1.442.751-3.379.516-4.87.043-3.04-.965-6.23-2.698-8.236-5.305-.998-1.297-1.378-2.86-1.84-4.405-.406-1.358-.39-2.859-.04-4.23.318-1.249.641-2.336 1.438-3.359.36-.462.752-.873 1.18-1.266.58-.534 1.212-.71 1.944-.96 1.374-.469 3.031-.249 4.461-.233.65.007 1.267-.165 1.916-.153 1.001.02 2.075-.16 3.037-.448.586-.176 1.098-.352 1.661-.598.684-.298 1.24-.701 1.892-1.041.578-.301 1.044-.754 1.56-1.154.797-.616 1.513-1.283 2.211-2.011.548-.572 1.176-1.044 1.724-1.614.623-.648 1.235-1.318 1.88-1.942 1.47-1.42 2.905-2.827 4.554-4.032.709-.517 1.43-1.018 2.16-1.505.751-.5 1.517-.917 2.288-1.377.615-.367 1.21-.64 1.888-.856.385-.123.717-.284 1.083-.451.504-.231 1.022-.278 1.543-.444 2.29-.731 4.91-.832 7.259-.344.684.142 1.424.342 2.082.584.401.147 1.02.276 1.314.618.136.157.254.335.39.515.097.128.128.285.211.419.148.238.394.377.56.597.497.657.83 1.426 1.306 2.09.507.707 1.044 1.377 1.56 2.088.332.457.614.978.913 1.456.162.257.27.538.433.795.172.27.427.5.589.776.187.32.317.627.534.934.092.13.202.236.295.366.038.14.097.27.178.39.097.055.185.122.263.203.077.104.103.307.173.427.128.22.321.404.444.63.144.265.28.49.43.74.17.287.367.594.546.89.787 1.306.998 2.693.184 4.942" transform="translate(-20.16 20.784)"/>
                                </g>
                                <path fill="#61696E" d="M192.227 90.546L177.97 135.95s-1.164 2.689-4.364 2.987c-3.201.3-38.988.598-38.988.598l-13.383-15.832 43.351-.298 12.22-39.728 15.42 6.87z" transform="translate(-20.16 20.784)"/>
                                <path fill="#147394" d="M106.013 182.744c.32.202.63.417.944.62 1.448.937 2.958 1.837 4.385 2.842.768.54 1.646.994 2.262 1.717.456.535.863.805 1.448 1.195 1.251.833 2.353 1.879 3.572 2.772 1.047.767 2.1 1.659 3.249 2.241.555.281.92.231 1.42.656.436.37.719.899 1.207 1.217.515.336.915.494 1.395.888.263.216.525.458.788.664.324.254.683.398 1.02.638.84.597 1.316 1.78 1.678 1.976l.242-.05c.375-1.76.978-3.773 1.649-5.478.29-.738.309-1.571.648-2.253.253-.51.437-.937.663-1.463.885-2.064 2.046-3.937 2.908-5.974.161-.382.554-1.12.603-1.5.136-1.065-.893-.365-1.454-.3-2.097.241-4.164.156-6.29.28-.576.033-1.072.287-1.652.325-.535.035-1.087-.014-1.623-.015-1.084-.002-2.168 0-3.252 0h-3.643c-.521 0-1.055.04-1.576.011-.615-.034-1.156-.29-1.77-.321-1.782-.089-3.61-.01-5.395.01-.9.01-1.617-.32-2.46-.53-.275-.068-.627-.099-.966-.168-.31-.196-.63-.38-.97-.526.208.313.58.446.97.526m-47.296-3.652c.152-1.753.686-3.594 1.178-5.28.748-2.562 1.82-5.163 2.917-7.59 1.062-2.35 2.976-4.184 4.581-6.144 1.362-1.663 2.862-3.186 4.359-4.72 1.795-1.84 4.233-3.24 6.438-4.519 1.007-.584 1.99-1.199 2.983-1.807 3.148-1.93 6.253-2.894 12.421-1.135.998.641 2.577.611 3.677.882 2.137.526 4.236 1.099 6.324 1.807 2.505.85 5.105 1.207 7.674 1.792 1.406.32 2.824.635 4.24.91 1.6.312 3.231.34 4.829.634 3.818.704 7.57 1.88 11.394 2.57 2.023.366 4.164.594 6.115 1.256 1.631.552 3.525 1.037 5.02 1.867 2.145 1.188 4.29 2.346 6.3 3.733.712.491 1.453 1.036 2.1 1.618 1.012.913 1.667 2.146 2.473 3.235 2.535 3.422 3.252 7.89 3.281 12.084.059 8.58-7.204 13.907-7.64 21.911-.29 5.311 2.736 10.634 1.618 16.223-1.297 6.484-6.176 11.526-4.562 18.484.772 3.329 1.939 4.545-1.825 4.632-3.928.09-6.899.055-10.943.897-4.188.87-8.429 1.156-12.647 1.842-3.938.64-9.768 2.183-13.774 1.457.009.005.016.012.022.02-.005-4.337.055-8.65.283-12.97.197-3.731 1.724-7.856-2.01-10.141-2.769-1.696-6.529-1.651-9.476-3.167-6.058-3.114-12.1-7.018-17.616-11.013-1.566-1.133-3.08-2.358-4.635-3.511-.86-.639-1.795-1.157-2.625-1.851-.941-.787-1.805-1.7-2.69-2.553-1.19-1.144-2.44-2.018-3.491-3.294-.23-.278-.54-.576-.791-.852-.188-.208-.407-.289-.594-.463-.4-.374-.433-.73-.703-1.197-.921-1.588-1.867-2.941-2.56-4.682-.894-2.247-1.647-4.278-1.7-6.725-.03-1.408-.066-2.837.055-4.24" transform="translate(-20.16 20.784)"/>
                                <path fill="#00566B" d="M106.013 182.744c.32.202.63.417.944.62 1.448.937 2.958 1.837 4.385 2.842.768.54 1.646.994 2.262 1.717.456.535.863.805 1.448 1.195 1.251.833 2.353 1.879 3.572 2.772 1.047.767 2.1 1.659 3.249 2.241.555.281.92.231 1.42.656.436.37.719.899 1.207 1.217.515.336.915.494 1.395.888.263.216.525.458.788.664.324.254.683.398 1.02.638.84.597 1.316 1.78 1.678 1.976l.242-.05c.375-1.76.978-3.773 1.649-5.478.29-.738.309-1.571.648-2.253.253-.51.437-.937.663-1.463.885-2.064 2.046-3.937 2.908-5.974.161-.382.554-1.12.603-1.5.136-1.065-.893-.365-1.454-.3-2.097.241-4.164.156-6.29.28-.576.033-1.072.287-1.652.325-.535.035-1.087-.014-1.623-.015-1.084-.002-2.168 0-3.252 0h-3.643c-.521 0-1.055.04-1.576.011-.615-.034-1.156-.29-1.77-.321-1.782-.089-3.61-.01-5.395.01-.9.01-1.617-.32-2.46-.53-.275-.068-.627-.099-.966-.168-.31-.196-.63-.38-.97-.526.208.313.58.446.97.526m1.814 1.776c-18.035-11.984-42.039-22.482-40.434-24.442 1.362-1.663 2.862-3.186 4.359-4.72 1.795-1.84 4.233-3.24 6.438-4.519 1.007-.584 1.99-1.199 2.983-1.807 3.148-1.93 6.253-2.894 12.421-1.135.998.641 2.577.611 3.677.882 2.137.526 4.236 1.099 6.324 1.807 2.505.85 5.105 1.207 7.674 1.792 1.406.32 2.824.635 4.24.91 1.6.312 3.231.34 4.829.634 3.818.704 7.57 1.88 11.394 2.57 2.023.366 4.164.594 6.115 1.256 1.631.552 3.525 1.037 5.02 1.867 2.145 1.188 4.29 2.346 6.3 3.733.712.491 1.453 1.036 2.1 1.618 1.012.913 1.667 2.146 2.473 3.235 2.535 3.422 3.252 7.89 3.281 12.084.059 8.58-7.204 13.907-7.64 21.911-.245 4.476 1.866 8.96 1.867 13.605 0 .41.018-5.774-9.478-10.652-3.537-1.817-8.258-2.059-12.051-4.979-7.846-6.039-15.679-11.521-21.892-15.65z" opacity=".725" transform="translate(-20.16 20.784)"/>
                                <g>
                                    <path fill="#FFD8B8" d="M.246 7.645c.272 0 .47-.03.733-.095.363-.088.707-.146 1.04-.326.426-.23.88-.358 1.314-.57.957-.464 1.821-1.188 2.69-1.79.436-.302.93-.44 1.44-.562.744-.179 1.436-.385 2.198-.49.88-.118 1.768-.342 2.606-.646.908-.33 1.744-.74 2.607-1.18.447-.227.922-.35 1.326-.659.403-.308.867-.57 1.317-.796 1.378-.698 2.797-.237 4.166.242.729.256 1.366.669 2.02 1.068.353.215.72.405 1.069.63.374.241.7.55 1.073.796.181.119.35.205.492.364.08.088.13.177.227.255.221.177.488.29.735.42.545.287 1.09.568 1.635.855.26.138.581.21.727.49.104.201.128.595.051.801-.16.431-.678.623-1.05.717-.428.11-.835.252-1.308.169-.314-.055-.568-.193-.899-.19-.29.002-.528.008-.799.077-.258.066-.523.076-.78.144-.253.066-.505.156-.774.18-.237.02-.438.087-.676.096-.233.008-.351-.104-.583-.099-.25.005-.44-.074-.679-.1-.157-.017-.239-.056-.387-.12-.301-.127-.635-.162-.932-.291-.1-.044-.157-.098-.24-.164-.315-.246-.663-.434-1.016-.622-.296-.158-.595-.287-.915-.373-.134-.036-.236-.03-.367 0-.023.048-.061.075-.114.082l-.2-.01c-.214.035-.404.166-.583.278-.491.306-.93.71-1.455 1.001-.15.084-.327.14-.482.22-.09.046-.171.081-.267.123-.101.044-.202.051-.31.095.017.122.17.123.28.152.208.057.317.135.492.23.208.112.44.184.607.368.26.286.21.787.072 1.122-.2.487-.837.956-1.287 1.2-.623.339-1.34.393-1.966.742-.295.164-.575.303-.863.49-.205.132-.385.284-.59.418-.196.13-.405.268-.572.436-.189.19-.372.3-.591.457-.532.382-.974.924-1.544 1.236-.227.125-.436.276-.672.397-.552.28-1.15.327-1.748.415-.225.033-.384.1-.579.212-.549.316-1.288.477-1.905.47-.446-.005-.892 0-1.338 0-.215 0-.436.013-.652.003-.217-.01-.415-.088-.632-.103-.135-.01-.863-.265-.861-.124l.087.024" transform="translate(-20.16 20.784) translate(110.32 115.36)"/>
                                </g>
                                <g>
                                    <path fill="#FFD8B8" d="M8.792 14.15c.205.234.67.201.936.2 1.583-.008 3.154.135 4.738.102 1.207-.025 2.448-.169 3.624-.449.422-.1.796-.308 1.195-.476.427-.18.867-.325 1.286-.524.722-.343 1.483-.632 2.238-.899.662-.234 1.351-.492 2.034-.647.527-.119 1.072-.142 1.595-.267.563-.135 1.228-.218 1.808-.23 1.002-.023 1.98-.014 2.903.446.4.2.764.54 1.096.834.213.19.38.407.602.592.193.162.404.255.627.371.114.06.22.114.342.152.089.028.197.082.284.102.095.023.206-.033.3-.01.093.022.136.087.234.109.173.037.516.037.686 0 .185-.041.405-.102.52-.264.122-.176.137-.42.11-.639-.025-.195-.133-.403-.216-.587-.07-.156-.17-.296-.227-.46-.05-.139-.064-.284-.154-.406.044.037.184.132.228.141.153.03.208-.05.36-.084.211-.05.457.052.67.01.165-.032.337-.103.5-.151.525-.156.897-.8.566-1.29-.274-.405-.535-.81-.76-1.257-.104-.207-.25-.336-.388-.515-.168-.217-.288-.413-.409-.651-.191-.376-.432-.738-.6-1.13-.15-.344-.243-.71-.372-1.063-.14-.38-.373-.745-.534-1.137-.136-.329-.298-.642-.437-.97-.085-.202-.113-.346-.264-.506-.143-.153-.26-.304-.388-.471-.21-.276-.48-.56-.773-.746-.13-.082-.277-.13-.412-.196-.229-.112-.384-.13-.615-.187-.129-.032-.202-.084-.336-.093-.135-.009-.275.023-.41.008-.163-.019-.297-.093-.46-.107-.173-.015-.376-.012-.548-.001-.185.01-.339.096-.523.107-.147.008-.296-.015-.444-.008-.162.008-.289.082-.446.108-.228.038-.502-.005-.735-.005h-.75c-.3.001-.532-.07-.822-.122-.163-.029-.33-.117-.49-.154-.13-.03-.255.005-.385-.017-.298-.052-.587-.178-.897-.21-.194-.02-.382.012-.577-.017-.237-.035-.442-.08-.686-.077-.438.005-.842-.102-1.275-.1-.512.005-1.003.015-1.506-.077-.582-.106-1.133.056-1.702.081-.258.011-.518-.014-.776-.007-.244.006-.461.078-.7.106-.642.072-1.269.175-1.907.296-.678.127-1.334.303-1.995.497-.269.08-.519.203-.78.302-.388.146-.792.22-1.167.393-1.028.476-2.054.967-3.103 1.401-1.267.525-2.56.935-3.875 1.314-.613.177-1.236.319-1.847.496-.194.056-.388.138-.58.201-.145.048-.242.047-.39.07-.066.01-.084.07-.138.083-.12.03-.231.006-.347.041-.13.04-.262.143-.386.205-.416.208-.66.527-.682 1.016-.014.298-.048.668.018.958.07.302.32.553.508.782.443.538 1.04.997 1.565 1.442.562.477 1.125.966 1.705 1.417 1.19.925 2.437 1.636 4.936 2.823" transform="translate(-20.16 20.784) translate(127.96 121.8)"/>
                                </g>
                                <g>
                                    <path fill="#F2C30A" d="M44.122 11.03c-.406.25-.922.31-1.383.493-1.156.46-2.26.588-3.471.75-.62.082-1.113.205-1.745.111-.54-.08-1.015-.162-1.562-.159-.74.004-1.43-.213-2.177-.199-.532.01-.972-.174-1.49-.204-.614-.035-1.136-.103-1.741-.195-1.646-.252-3.238-.837-4.867-1.154-.888-.173-1.778-.172-2.66-.39-1.462-.36-2.872-.91-4.308-1.388-1.436-.478-2.676-1.212-3.938-2.057-.36-.241-.771-.36-1.117-.63-.374-.293-.641-.537-1.066-.758-.72-.375-1.297-.968-1.994-1.393C9.087 2.93 7.716 1.76 6.292.705c-.66-.49-1.793-.719-2.598-.626-1.178.135-1.91.952-2.448 1.98C.752 3.005.32 4.053.28 5.14.242 6.213.05 7.263.082 8.34c.065 2.22.57 4.391 1.125 6.523.416 1.597 1.11 3.129 2.124 4.433 1.335 1.713 3.07 2.837 4.907 3.882 1.528.869 3.085 1.732 4.8 2.14.838.199 1.706.372 2.522.647.984.332 1.943.362 2.954.542.583.104 1.156.242 1.75.265.76.029 1.528-.093 2.284.034 1.185.2 2.489.275 3.69.11 2.072-.282 4.176-.42 6.231-.801 2.494-.464 5.213-.54 7.626-1.345 1.472-.491 2.927-1.018 4.357-1.598-.414.102-.986-.665-1.159-.99-.292-.553-.544-1.132-.82-1.693-.276-.562-.534-1.182-.662-1.792-.108-.516-.022-1.162-.016-1.693.006-.63.2-1.203.344-1.792.063-.256.02-.501.086-.752.02-.074.138-.127.162-.233.03-.13-.052-.289-.022-.42.047-.205.153-.37.205-.586.06-.253.103-.43.218-.673.325-.686.574-1.144 1.334-1.518" transform="translate(-20.16 20.784) translate(69.16 110.88)"/>
                                </g>
                                <g>
                                    <path fill="#FFD926" d="M70.297 14.956c.855-.828 1.03-2.234.997-3.38-.015-.506-.174-.9-.34-1.363-.138-.384-.21-.774-.306-1.17-.363-1.502-1.064-2.904-2.06-4.068-.71-.828-1.558-1.53-2.426-2.172-.6-.444-.987-.885-1.668-1.18-.708-.306-1.374-.8-2.102-1.063-.485-.174-1.058-.155-1.57-.262-.504-.106-1.042-.041-1.555-.049-.867-.013-1.738.3-2.527.652-.29.13-.626.316-.847.546-.244.254-.355.498-.693.683-.764.42-1.522.51-2.373.513-.497.002-.887-.084-1.366-.16-.45-.07-.735.034-1.16.161-.958.287-1.676.696-2.473 1.292-.765.572-1.151 1.498-1.742 2.247-.575.73-1.478 1.265-2.327 1.587-.427.163-.793.165-1.227.244-.476.088-.788.236-1.292.215-.536-.023-1.014-.206-1.55-.214-.593-.008-1.213-.039-1.798.05-1.007.15-1.966.222-2.963.498-.535.15-.975.432-1.472.677-.548.27-1.192.425-1.696.77-.77.529-1.689.975-2.597 1.25-.8.243-1.657.14-2.484.145-3.027.02-5.622-1.602-8.455-2.472-2.343-.718-4.614-1.153-7.061-.776-2.53.389-4.654 1.838-6.552 3.533-2.043 1.825-3.285 4.646-3.93 7.292-.579 2.37-.561 4.883.003 7.254.554 2.33 1.5 4.586 2.892 6.529 1.09 1.52 2.787 2.649 4.399 3.526 1.402.764 2.783 1.644 4.27 2.2 1.438.539 2.82.84 4.343 1.041 1.85.244 3.586.055 5.437-.05.49-.028.978-.086 1.461-.17 1.433-.25 2.824-.733 4.135-1.374 1.123-.55 2.147-1.254 3.33-1.667 1.026-.357 1.779-.894 2.621-1.592 1.137-.942 2.444-1.642 3.597-2.563.284-.227.646-.39.911-.637.4-.37.563-.475 1.019-.747.644-.384 1.336-.925 1.885-1.449.727-.693 1.56-1.26 2.333-1.903.818-.68 1.695-1.382 2.603-1.943.987-.608 2.087-1.266 2.982-2.003.473-.39.83-.846 1.35-1.186.408-.266.863-.445 1.26-.73 1.034-.743 2.16-1.327 3.264-1.953.872-.493 1.662-1.037 2.556-1.488 1.795-.905 3.64-1.3 5.59-1.649.333-.06.649-.044.99-.04.52.008.922-.162 1.424-.214.331-.034.661.046.992-.007.308-.048.583-.152.901-.182 1.047-.097 2.222-.25 3.024-.988l.043-.04" transform="translate(-20.16 20.784) translate(67.2 125.44)"/>
                                </g>
                                <g>
                                    <path fill="#FFD926" d="M24.388.526c.041-.357-.767-.298-.97-.298-.375-.001-.714.043-.993.298-.693.635-.887 1.658-1.286 2.49-.232.482-.535.968-.679 1.501-.181.675-.599 1.265-.92 1.884-.21.401-.44.732-.707 1.093-.3.403-.484.89-.84 1.25-.44.441-.904.859-1.289 1.352-.492.63-.928 1.324-1.342 2.008-.565.932-1.073 1.778-1.793 2.587-.603.677-.952 1.46-1.512 2.161-1.148 1.436-2.27 2.938-3.37 4.41-1.146 1.535-2.154 3.182-3.293 4.725-1.475 1.999-2.31 4.473-3.06 6.829C.804 37.623.142 42.558.142 47.599c0 1.823.022 3.45.374 5.236.226 1.15.196 2.32.415 3.472.22 1.158.529 2.288.737 3.45.22 1.225.664 2.35.877 3.584.194 1.124.586 2.247.957 3.319.909 2.618 1.365 5.286 2.338 7.894.464 1.242.89 2.504 1.233 3.787.327 1.228.87 2.366 1.243 3.582.383 1.249.967 2.426 1.308 3.684.387 1.424.639 2.888 1.038 4.314.683 2.436 1.592 4.798 2.352 7.207.926 2.935 1.621 5.943 2.468 8.905.788 2.76 1.182 5.533 1.534 8.378.168 1.353.33 2.69.398 4.054.097 1.921.525 3.833.56 5.751.025 1.42.278 2.777.283 4.217.006 1.498-.283 2.915-.298 4.418-.008.8.226 1.411.314 2.182.071.62-.06 1.275-.026 1.898.027.496.186.914.303 1.388.213.859.195 1.787.431 2.633.66 2.366 1.527 4.865 2.767 6.988 1.408 2.409 3.35 4.555 5.276 6.525 1.988 2.033 3.892 3.976 6.136 5.7.847.65 1.62 1.553 2.558 2.033 1.023.524 1.99 1.204 3.058 1.649.973.404 2.013.707 3.014.97.366.096.653.07 1.012.13.512.086.74.402 1.29.295.413-.081.521-.284 1.048-.277.382.006.799.05 1.175.006.684-.08 1.405-.333 2.03-.615.653-.295 1.467-.28 2.175-.626.761-.371 1.558-.972 2.288-1.449.462-.302.688-.736 1.085-1.07.277-.232.653-.328.903-.593.386-.41.691-1.067.935-1.578.287-.603.608-1.173.875-1.801.57-1.338.516-3.401.805-4.874l-.63-5.474v.135c0-1.118.068-2.224-.15-3.317-.144-.715.004-1.472-.034-2.195-.046-.87-.206-1.689-.203-2.574.003-1.115-.028-2.165-.152-3.27-.156-1.39-.005-2.757.108-4.137.12-1.467-.008-2.937.034-4.406.036-1.304.245-2.672.445-3.959.68-4.39 1.47-8.75 3.056-12.907.49-1.284.825-2.578 1.396-3.833.428-.941.913-1.852 1.377-2.775.41-.814.946-1.55 1.388-2.346.601-1.085 1.198-2.235 1.894-3.258 1.331-1.958 2.363-4.067 3.459-6.175.91-1.75 1.745-3.572 2.564-5.371 1.018-2.237 1.386-4.58 1.775-6.993.327-2.031.19-4.294-.266-6.299-.459-2.017-1.237-4.044-2.334-5.786-1-1.59-2.195-3.087-3.064-4.764-1.192-2.304-2.585-4.476-3.728-6.808-1.249-2.546-2.138-5.307-2.958-8.023-1.713-5.676-2.76-11.75-5.442-17.065-.949-1.88-2.418-3.629-3.65-5.326-1.243-1.712-2.594-3.415-4.022-4.963-.862-.935-1.77-1.83-2.656-2.74-.297-.305-.644-.751-1.057-.881" transform="translate(-20.16 20.784) translate(13.44 62.44)"/>
                                </g>
                                <path fill="#F2C30A" d="M80.829 164.441c-.103-.175-.261-.34-.489-.493-1.026-.688-2.431-1.034-3.59-1.42-.98-.326-1.85-.716-2.746-1.225-4.797-2.724-6.235-8.919-10.669-12.319-2.596-1.991-6.165-2.534-8.076-5.368-2.08-3.083 1.832-7.867 2.17-11.46.475-5.057-5.493-7.479-9.121-9.488-4.592-2.543-9.156-5.164-13.594-7.937-4.155-2.596-8.082-5.632-10.851-9.786-1.019-1.528-1.777-3.119-2.09-4.935-.081-.471-.007-.924-.034-1.398-.025-.433-.192-.813-.208-1.245-.026-.708.012-1.422.005-2.132-.009-.83.133-1.754.34-2.553.197-.767.331-1.486.586-2.246.205-.614.394-1.303.359-1.963-.013-.233-.061-.46-.053-.693.025-.779.258-1.643.416-2.406.196-.945.442-1.972 1.021-2.758.277-.375.472-.75.717-1.147.194-.316.515-.571.719-.871.213-.314.372-.61.673-.885.35-.322.652-.7 1.004-1.015.735-.66 1.564-1.401 2.441-1.855.278-.144.495-.201.748-.416.061-.052.076-.147.131-.193.044-.036.14-.007.183-.04.26-.192.504-.411.8-.582.482-.279.985-.464 1.45-.785.52-.357.942-.683 1.373-1.158.296-.326.523-.743.763-1.12.12-.188.17-.396.282-.584.137-.23.364-.375.502-.61.442-.756.703-1.629 1.159-2.377.242-.398.457-.81.732-1.197.172-.241.546-.647.562-.948-.382-.216-.642-.521-1.007-.739-.246-.146-.408-.395-.615-.602-.216-.216-.301-.448-.51-.672-.184-.198-.367-.443-.512-.668-.123-.19-.239-.623-.425-.766-.245-.187-.788-.019-.947.182-.187.239-.31.673-.453.954-.56 1.101-1.25 2.093-1.99 3.077-1.098 1.458-2.355 2.798-3.504 4.216-.717.885-1.293 1.961-2.096 2.753-.698.689-1.2 1.54-1.892 2.238-1.336 1.343-2.68 2.91-3.601 4.594-.45.822-.997 1.586-1.466 2.4-.408.708-.772 1.449-1.228 2.128-.258.384-.461.794-.72 1.18-.192.284-.418.526-.65.775-.362.39-.671.828-.96 1.278-.29.452-.65.829-.907 1.302-.548 1.006-.97 2.082-1.432 3.131-.512 1.164-1.11 2.29-1.507 3.504-.908 2.774-1.164 5.494-1.306 8.405-.16 3.296-.323 6.578-.224 9.881.213 7.073 2.517 13.762 4.311 20.517.776 2.92 1.362 5.924 2.18 8.812.218.774.45 1.428.766 2.178.66 1.567 1.24 3.16 1.89 4.73 1.904 4.594 3.792 9.163 5.198 13.95.345 1.173.534 2.381.911 3.544.352 1.086.693 2.153.927 3.275.513 2.458 1.161 4.883 1.648 7.352.837 4.243 1.355 8.66 1.358 12.987.003 3.69 0 7.381 0 11.07 0 3.825-.198 7.73.508 11.506.283 1.511.556 2.93 1.088 4.374.565 1.537 1.148 3.121 1.946 4.548.283.506.572 1.017.911 1.487.51.707 1.114 1.168 1.712 1.782 1.102 1.13 2.166 2.343 3.383 3.356 2.955 2.46 6.948 3.523 10.626 4.178 1.725.307 3.484.455 5.23.569 1.879.122 3.735-.21 5.578-.565 2.073-.4 4.054-1.31 6.02-2.053 2.503-.948 5.16-2.43 7.056-4.37 3.123-3.19 4.439-7.639 4.85-12.062.214-2.293.22-4.62.18-6.921-.034-2.028-.34-4.024-.407-6.05-.099-3.002-.605-5.912-.926-8.884-.332-3.073-.632-6.243-.624-9.333.007-2.326.327-4.544.543-6.851.142-1.527.314-3.051.517-4.571.19-1.419.305-2.906.661-4.293.25-.975.81-1.78 1.41-2.56.597-.776 1.373-1.812.886-2.645" transform="translate(-20.16 20.784)"/>
                                <g>
                                    <path fill="#F2C30A" d="M27.353 50.885c.047-.21-.121-.39-.183-.58-.104-.317-.131-.616-.276-.928-.528-1.14-1.183-2.165-1.763-3.275-.857-1.638-1.988-3.098-3.157-4.507-1.515-1.823-2.806-3.794-4.078-5.8-.59-.93-1.175-1.834-1.643-2.836-.494-1.059-.793-2.127-1.12-3.25-.386-1.325-.775-2.643-1.172-3.964-.381-1.272-.827-2.528-1.16-3.813-.802-3.103-2.224-6.075-3.626-8.926-1.423-2.895-3.199-5.601-5.098-8.187-.472-.641-.857-1.3-1.39-1.891-.367-.41-.732-.825-1.119-1.216-.313-.318-.579-.67-.887-.99C.491.525.281.44.208.151c.367.754.49 1.514.653 2.342.256 1.294.603 2.548.81 3.856.258 1.626.769 3.19 1.03 4.817.32 1.99.683 4.071 1.26 6.001.538 1.8 1.461 3.353 2.476 4.9.33.506.783.913 1.131 1.404.453.636.815 1.176 1.364 1.724 1.053 1.049 1.804 2.367 2.855 3.432.797.808 1.505 1.7 2.298 2.513.199.204.382.42.571.628.285.315.496.618.762.95.28.353.535.638.733 1.058.207.44.48.864.663 1.307.567 1.371.652 2.864.897 4.305.09.53.19 1.03.186 1.569-.004.529.139 1.025.151 1.553.01.454-.005.912-.005 1.366 0 .27.062.622.007.886-.098.47-.39 1.054.134 1.347.112.062.302.078.437.147.316.16.656.294.982.443.402.184.949.352 1.32.594.233.153.385.406.61.572.396.29.768.685 1.076 1.077.165.21.29.47.42.714.07.133.15.375.247.485.183.206.19.11.432-.003.219-.102.492-.261.733-.306.822-.153 1.432.405 2.192.575.232.052.57-.05.782.041.204.09.253.354.467.449-.031-.004-.062-.008-.529-.012" transform="translate(-20.16 20.784) translate(58.24 83.72)"/>
                                </g>
                                <g>
                                    <path fill="#FFD926" d="M5.065 41.349c.35-.024-.037-.928-.096-1.201-.26-1.183-.123-2.392.519-3.424.832-1.338 1.741-2.64 2.776-3.823 1.123-1.286 2.535-2.364 3.8-3.5 1.522-1.368 3.355-2.31 4.988-3.53 1.587-1.186 2.989-2.684 4.43-4.047 2.027-1.92 4.635-3.883 5.462-6.755.854-2.96-.328-7.068-3.406-8.025-2.11-.657-4.265-.507-6.415-.758-1.057-.123-2.161-.378-3.209-.58-1.37-.265-2.673-.564-3.994-.998-1.332-.439-2.63-.857-3.918-1.395-.642-.268-1.306-.448-1.916-.795-.22-.124-.433-.3-.662-.409-.312-.145-.681-.135-.982-.29-.444-.23-.825-.644-1.256-.894C.796.699.513.567.207.198.163.678.45.97.561 1.367c.138.49.294.95.455 1.447.367 1.134.428 2.388.892 3.492.46 1.095.58 2.223.824 3.39.068.323.19.488.204.832.011.261-.043.536-.015.796.076.688.318 1.363.406 2.04.038.294-.025.611-.012.908.014.313.131.57.182.874.081.488-.014 1.014.012 1.51.014.268.13.441.182.69.06.287.017.603.016.898-.002.705 0 1.409 0 2.113 0 .33-.071.72-.01 1.04.06.305.191.523.212.844.047.735-.007 1.494-.008 2.231 0 .31.024.63.008.939-.023.415-.186.79-.212 1.207-.04.654.001 1.334.01 1.99.004.312-.1.404-.15.627-.092.412-.05.753.054 1.156.171.674.096 1.4.096 2.098 0 .778.065 1.509.216 2.277.344 1.746.603 3.678 1.142 6.583" transform="translate(-20.16 20.784) translate(27.72 163.8)"/>
                                </g>
                                <g>
                                    <path fill="#FFD8B8" d="M4.029 42.53c.37-.656.748-1.314.96-2.036.218-.735.463-1.448.642-2.197.402-1.674.597-3.39.606-5.112.003-.75-.102-1.458-.215-2.197-.12-.778-.072-1.557-.181-2.339-.115-.82-.135-1.66-.246-2.486-.055-.4-.062-.773-.066-1.176-.005-.445-.136-.864-.155-1.307-.021-.504.02-.976-.065-1.476-.067-.405-.063-.703 0-1.11.128-.819.153-1.683.216-2.512.103-1.38.391-2.905.855-4.207.454-1.273.861-2.528 1.566-3.692.538-.888 1.015-2.035 1.742-2.78.222-.228.432-.363.622-.627.194-.267.398-.441.633-.663.5-.472.956-1.006 1.46-1.485.498-.474 1.07-.837 1.6-1.265.284-.229.628-.342.926-.556.282-.203.532-.407.847-.556.647-.307 1.341-.708 2.014-.935.662-.224 1.328-.413 1.983-.67 1.28-.504 2.839-.832 4.2-.886 3.803-.152 7.75.108 11.324 1.503 1.062.415 2.08.903 3.088 1.442.97.52 2.009 1.09 2.907 1.736 1.695 1.22 3.09 2.68 4.446 4.264.273.32.444.717.697 1.054.257.344.43.716.649 1.084.376.638.71 1.302.945 2.007.06.186.136.344.22.52.098.204.135.424.214.633.125.33.251.688.291 1.03.04.345.152.68.148 1.03-.002.165.028.302.056.465.04.231.016.476.016.71.001 1.209-.195 2.38-.31 3.58-.041.419-.063.834-.138 1.248-.121.662-.27 1.307-.335 1.98-.038.407-.136.835-.12 1.242.006.132.026.262.022.394-.002.093-.015.184-.027.276-.056.388-.045.778-.093 1.166-.049.4-.137.722-.13 1.128.01.599-.107 1.208-.212 1.796-.103.575-.233 1.102-.532 1.608-.409.69-.983 1.24-1.116 2.078-.165 1.045.032 2.417.364 3.396.396 1.168.936 2.322 1.228 3.51.04.16.102.328.16.485.085.228.057.391.1.63.042.233.161.313.122.548-.014.085-.132.383-.18.477-.237.47-.737.81-1.21 1.019-.686.303-1.428.544-2.112.763-.097.031-.265.162-.356.22-.056.034-.072.125-.131.158-.077.042-.202-.006-.26.025-.267.141-.466.398-.674.629-.266.295-.312.345-.319.764-.004.25-.074.348-.13.58-.074.3-.047.632-.157.934-.129.357-.282.74-.411 1.12-.179.522-.37.911-.626 1.389-.444.831-.901 1.671-1.47 2.413-.507.663-1.017 1.31-1.268 2.134-.133.435-.278 1.16-.53 1.535-.222.328-.568.649-.885.866-1.074.738-2.609.778-3.846.585-.943-.147-1.928-.182-2.793-.658-.716-.393-1.487-.58-2.177-1.024-.583-.376-1.073-.581-1.774-.584-.377-.001-.534-.027-.833.212-.288.23-.542.43-.801.694-.543.555-.97 1.273-1.429 1.905-.46.633-.928 1.394-1.215 2.125-.274.694-.566 1.368-.805 2.08-.146.432-.118.965-.193 1.422-.125.766-.032 1.615-.032 2.386-.006-.027.248.093.242.066-.218-.023-.317-.204-.425-.374-.099-.157-.218-.29-.323-.44-.13-.19-.213-.39-.366-.567-.835-.966-1.463-2.116-2.362-3.022-1.03-1.039-1.946-2.23-3.051-3.184-.857-.74-1.796-1.344-2.647-2.09-.206-.181-.39-.358-.616-.512-.37-.254-.658-.6-1.008-.877-.592-.47-1.241-.865-1.82-1.348-.452-.379-.896-.757-1.378-1.096-.383-.27-.67-.645-1.063-.897-.641-.412-1.24-.886-1.881-1.29-.317-.2-.674-.47-.959-.723-.257-.229-.538-.404-.795-.625-.301-.26-.675-.484-1.004-.707-.07-.048-.143-.088-.22-.121-.118-.05-.246-.067-.356-.135-.24-.148-.319-.412-.441-.652-.137-.266-.352-.323-.53-.533-.26-.312.138-.496.379-.628.469-.256.84-.5 1.174-.934.441-.576.804-1.21 1.143-1.854.333-.632.644-1.276.996-1.898" transform="translate(-20.16 20.784) translate(36.4 15.96)"/>
                                </g>
                                <path fill="#FFD8B8" d="M85.811 36.113c-.033.11-.08.197-.146.25-.076-.325-.272-.582-.412-.878-.148-.312-.37-.61-.622-.839-.538-.486-1.042-1.024-1.62-1.461-.452-.343-2.474-1.796-2.924-.71-.17.411.001 1.166.08 1.572.12.622.367 1.2.45 1.832.1.766.084 1.56-.12 2.308-.084.306-.222.59-.292.9-.05.22-.035.365-.198.54-.376.405-1.04.47-1.515.697-.955.454-1.847 1.254-2.878 1.51-.703.176-1.15.415-1.772.778-.485.284-.975.47-1.345.922-.496.606-1.133 1.115-1.557 1.755-.257.39-.825 1.415-1.356.826-.45-.497-.285-1.463-.284-2.092 0-.566.124-1.08.15-1.636.022-.448-.01-.903-.005-1.352.007-.698-.184-1.365-.418-1.959-.297-.754-.971-1.61-1.824-1.66-.857-.051-1.798-.17-2.587.253-.587.314-.973.63-1.455 1.086-.435.413-.864.739-1.138 1.303-.298.611-.563 1.235-.873 1.837-.244.472-.367.982-.543 1.485-.708 2.027-.915 4.184-1.45 6.236-.324 1.238-.783 2.394-1.456 3.477-.38.611-.734 1.22-1.204 1.766-.62.721-1.329 1.3-2.042 1.922-.225.197-.456.416-.706.579-.452.293-1.002.357-1.47.623-.725.413-1.4.559-2.186.789-1.539.448-3.087.56-4.683.56-1.158 0-2.23-.044-3.346-.335-.556-.146-1.106-.454-1.666-.4.312-.125.56-.604.712-.872.289-.511.573-1.02.83-1.549.116-.24.132-.5.178-.76.06-.34.145-.677.274-.997.062-.156.065-.222.068-.39.005-.352.127-.686.062-1.053-.037-.2-.122-.39-.165-.589-.034-.16-.05-.323-.086-.483-.106-.471-.183-.939-.276-1.413-.063-.322-.091-.627-.13-.951-.06-.495-.224-1-.347-1.481-.158-.618-.367-1.216-.495-1.844-.13-.636-.265-1.274-.382-1.912-.122-.66-.302-1.304-.404-1.967-.117-.763-.196-1.543-.238-2.314-.057-1.055-.033-2.13.039-3.184.06-.868.116-1.735.309-2.585.075-.332.191-.656.278-.986.109-.41.183-.826.31-1.232.192-.619.478-1.185.716-1.784.277-.7.534-1.391.865-2.07.286-.586.609-1.108.968-1.648.316-.475.636-.94.973-1.398.39-.53.727-1.092 1.187-1.566 1.68-1.727 3.557-3.198 5.66-4.342.693-.378 1.356-.786 2.065-1.136.595-.295 1.194-.57 1.816-.801 1.218-.452 2.434-.944 3.695-1.26.435-.108.888-.146 1.328-.235.278-.058.54-.114.826-.137.617-.051 1.248-.012 1.867-.012 1.256 0 2.485.006 3.721.267.67.142 1.356.242 2.019.42.574.154 1.142.32 1.725.437 1.04.211 2.13.495 3.089.973.97.484 1.925.984 2.88 1.5.215.117.45.19.658.323.094.062.193.133.255.23.136.215.254.328.493.48.275.176.47.412.732.596.28.196.54.337.785.586.324.33.638.639.948.98.758.835 1.458 1.87 2.04 2.842.342.569.76 1.085 1.093 1.66.25.434.428.878.646 1.324.65 1.327 1.178 2.722 1.511 4.17.167.725.285 1.463.344 2.205.023.29.101 1.046-.029 1.474" transform="translate(-20.16 20.784)"/>
                                <g>
                                    <path fill="#0A3A44" d="M20.613.138c-2.833.247-5.328 2.485-6.846 4.82-1.08 1.662-2.637 6.78-5.146 6.499-.174-.811-.826-3.597-1.781-3.716-1.126-.141-2.72 3.01-3.307 3.897-1.16 1.753-1.978 3.75-3.403 5.226 2.955 1.955 9.257.75 12.103-.801 3.433-1.87 5.841-4.94 6.59-8.802.46-2.367 1.284-4.718 1.79-7.123" transform="translate(-20.16 20.784) translate(40.88 41.72)"/>
                                </g>
                                <g>
                                    <path fill="#0A3A44" d="M32.422 119.102c-5.165-8.499-3.511-20.198-3.491-29.877.019-8.882-1.607-17.93-3.564-26.578-3.328-14.702-11.457-28.574-13.594-43.312-.87-6.003-.587-11.822-.932-17.87C-7.607-6.668 2.786 27.16 5.67 34.324c4.451 11.06 8.673 22.506 9.885 34.476 1.082 10.695-1.75 21.713-.37 32.306.733 5.626 3.35 10.374 8 13.507 2.463 1.66 5.944 2.709 9.237 4.49" transform="translate(-20.16 20.784) translate(5.6 92.12)"/>
                                </g>
                                <g>
                                    <path fill="#00915A" d="M24.117 6.024L10.297 50.083 0.259 38.433 12.042 0.199z" transform="translate(-20.16 20.784) translate(165.2 85.12)"/>
                                </g>
                                <g>
                                    <path fill="#0A3A44" d="M.638 43.476c.08-1.934.283-3.785.612-5.552.493-2.652-.512-3.632-1.043-11.186-.531-7.555-1.222-19.443 15.305-25.202 16.527-5.76 36.13 9.121 29.654 21.87 0 0-1.82 1.03-3.731.145-1.43-.66-2.639.941-2.639.941s-5.605 1.575-8.353 5.307c-3.365 4.57-1.38-.096-2.28-4.669-.9-4.573-6.188-2.612-6.29.628-.257 8.223-3.471 12.391-4.08 13.063-.635.701-1.793 3.449-7.655 5.04-3.909 1.06-7.075.932-9.5-.385z" transform="translate(-20.16 20.784) translate(39.76 15.12)"/>
                                </g>
                                <g>
                                    <path fill="#FFF" d="M32.526 52.591L0.231 14.058 68.313 0.168 125.049 1.961 237.647 18.09 195.314 52.591z" transform="translate(-20.16 20.784) translate(119.84 138.32)"/>
                                </g>
                                <path fill="#7DBBB8" d="M115.968 151.966L152.366 190.911 152.803 185.982 117.452 147.689z" transform="translate(-20.16 20.784)"/>
                            </g>
                        </g>
                    </g>
                </g>
            </g>
        </g>
    </g>
</svg>
