<svg id="Calque_1" data-name="Calque 1" xmlns="http://www.w3.org/2000/svg" viewBox="0 0 179.78 194.14"><defs><style>.cls-1{fill:#00915a;}.cls-2,.cls-6{fill:#016741;}.cls-3,.cls-6,.cls-7{font-size:37px;font-family:MyriadHebrew-Regular, Myriad Hebrew;}.cls-3{fill:#1d1d1b;}.cls-4{letter-spacing:-0.01em;}.cls-5{letter-spacing:0em;}.cls-7{fill:none;stroke:#016741;}</style></defs><polygon class="cls-1" points="141.32 89.07 136.7 97.07 107.47 46.44 102.85 38.44 89.89 16 76.93 38.44 67.7 38.44 89.89 0 112.08 38.44 116.7 46.44 141.32 89.07"/><polygon class="cls-1" points="179.78 155.69 76.93 155.69 72.31 147.69 165.93 147.69 141.32 105.06 145.93 97.07 179.78 155.69"/><polygon class="cls-2" points="179.78 38.44 145.93 97.07 141.32 105.06 116.71 147.69 107.47 147.69 136.7 97.07 141.32 89.07 165.93 46.44 116.7 46.44 112.08 38.44 179.78 38.44"/><polygon class="cls-2" points="107.47 46.44 13.85 46.44 38.46 89.07 33.85 97.07 0 38.44 102.85 38.44 107.47 46.44"/><polygon class="cls-2" points="112.09 155.69 89.89 194.14 67.69 155.69 63.07 147.69 38.46 105.06 43.08 97.07 72.31 147.69 76.93 155.69 89.89 178.14 102.85 155.69 112.09 155.69"/><polygon class="cls-1" points="63.07 147.69 67.69 155.69 0 155.69 33.85 97.07 38.46 89.07 63.08 46.44 72.31 46.44 43.08 97.07 38.46 105.06 13.85 147.69 63.07 147.69"/><text class="cls-3" transform="translate(53.74 108.3)"><tspan class="cls-4">ש</tspan><tspan class="cls-5" x="23.72" y="0">ל</tspan><tspan x="40.66" y="0">ום</tspan></text><text class="cls-6" transform="translate(53.74 108.3)"><tspan class="cls-4">ש</tspan><tspan class="cls-5" x="23.72" y="0">ל</tspan><tspan x="40.66" y="0">ום</tspan></text><text class="cls-7" transform="translate(53.74 108.3)"><tspan class="cls-4">ש</tspan><tspan class="cls-5" x="23.72" y="0">ל</tspan><tspan x="40.66" y="0">ום</tspan></text></svg>