<svg id="Calque_1" data-name="Calque 1" xmlns="http://www.w3.org/2000/svg" viewBox="0 0 474.21 196.46"><defs><style>.cls-1{fill:#00915a;}.cls-2,.cls-6,.cls-8{fill:#016741;}.cls-3,.cls-6,.cls-7,.cls-8{font-size:37px;}.cls-3{fill:#1d1d1b;}.cls-3,.cls-6,.cls-7{font-family:MyriadHebrew-Regular, Myriad Hebrew;}.cls-4{letter-spacing:-0.01em;}.cls-5{letter-spacing:0em;}.cls-7{fill:none;stroke:#016741;}.cls-8{font-family:RobotoCondensed-Bold, Roboto Condensed;font-weight:700;}.cls-9{letter-spacing:0.01em;}.cls-10{letter-spacing:-0.03em;}</style></defs><polygon class="cls-1" points="141.32 89.07 136.7 97.07 107.47 46.44 102.85 38.44 89.89 16 76.93 38.44 67.7 38.44 89.89 0 112.08 38.44 116.7 46.44 141.32 89.07"/><polygon class="cls-1" points="179.78 155.69 76.93 155.69 72.31 147.69 165.93 147.69 141.32 105.06 145.93 97.07 179.78 155.69"/><polygon class="cls-2" points="179.78 38.44 145.93 97.07 141.32 105.06 116.71 147.69 107.47 147.69 136.7 97.07 141.32 89.07 165.93 46.44 116.7 46.44 112.08 38.44 179.78 38.44"/><polygon class="cls-2" points="107.47 46.44 13.85 46.44 38.46 89.07 33.85 97.07 0 38.44 102.85 38.44 107.47 46.44"/><polygon class="cls-2" points="112.09 155.69 89.89 194.14 67.69 155.69 63.07 147.69 38.46 105.06 43.08 97.07 72.31 147.69 76.93 155.69 89.89 178.14 102.85 155.69 112.09 155.69"/><polygon class="cls-1" points="63.07 147.69 67.69 155.69 0 155.69 33.85 97.07 38.46 89.07 63.08 46.44 72.31 46.44 43.08 97.07 38.46 105.06 13.85 147.69 63.07 147.69"/><text class="cls-3" transform="translate(53.74 108.3)"><tspan class="cls-4">ש</tspan><tspan class="cls-5" x="23.72" y="0">ל</tspan><tspan x="40.66" y="0">ום</tspan></text><text class="cls-6" transform="translate(53.74 108.3)"><tspan class="cls-4">ש</tspan><tspan class="cls-5" x="23.72" y="0">ל</tspan><tspan x="40.66" y="0">ום</tspan></text><text class="cls-7" transform="translate(53.74 108.3)"><tspan class="cls-4">ש</tspan><tspan class="cls-5" x="23.72" y="0">ל</tspan><tspan x="40.66" y="0">ום</tspan></text><text class="cls-8" transform="translate(179.78 109.78)">S<tspan class="cls-9" x="19.98" y="0">H</tspan><tspan x="43.02" y="0">A</tspan><tspan class="cls-10" x="65.11" y="0">L</tspan><tspan x="81.66" y="0">OMFI</tspan><tspan class="cls-9" x="159.65" y="0">N</tspan><tspan x="182.63" y="0">ANCE</tspan></text><path class="cls-2" d="M455.85,141.64H191.49V124.93H455.85Zm-193.44-6h.77v-3.39c0-1.63-.32-2-1.74-2h-1.37a10.81,10.81,0,0,1-1.37,0l-.17.88a5.9,5.9,0,0,0,1.14.07h1.7c.94,0,1,.43,1,1.54Zm-3.68,0h.77v-2.86h-.77Zm6.59.07c.34,0,.95-.11,1.58-.22a3.25,3.25,0,0,0,3-3.57,6.35,6.35,0,0,0-.24-1.75l-1,.08a5.77,5.77,0,0,1,.34,1.87,2.17,2.17,0,0,1-2,2.5,8,8,0,0,1-1.08.16c-.07-.33-.17-1-.2-1.14,1.69-.32,2-1.18,2-2.12a5.64,5.64,0,0,0-.21-1.36l-.94.09a4.87,4.87,0,0,1,.27,1.4c0,.72-.17,1.12-1.17,1.35-.3-1.85-.43-2.6-.51-2.84l-.94.09C264.52,131.07,265.11,134.39,265.32,135.71Zm6.39-2.15a3.81,3.81,0,0,0,.79-2.06c0-.73-.33-1-1.27-1.24a5.93,5.93,0,0,1-.59-.17l-.17.87a6.06,6.06,0,0,0,.61.21c.46.12.64.24.64.56a3.2,3.2,0,0,1-.62,1.53Zm4.34,2.08h.77v-3.38c0-1.7-.28-2-1.74-2h-.62a11.1,11.1,0,0,1-1.38,0l-.17.88a5.31,5.31,0,0,0,1.1.07h1c.94,0,1.05.43,1.05,1.42Zm3.07,0h.78v-3.27c0-1.51-.36-1.88-1.48-2.12a3.79,3.79,0,0,1-.68-.16l-.17.87a4,4,0,0,0,.68.2c.77.18.87.49.87,1.35Zm1.59,0a8.75,8.75,0,0,1,1,0h.79l.13-.9c0-.7-.09-3-.15-3.62h1.76c.93,0,1,.43,1,1.42v3.1h.78v-3.38c0-1.7-.28-2-1.75-2h-1.63a11.92,11.92,0,0,1-1.57,0l-.18.87a2.73,2.73,0,0,0,.76.08h0c.07.63.15,2.64.16,3.61h-.15a3.75,3.75,0,0,0-.82.05Zm7.33-2.12a3.9,3.9,0,0,0,.79-2.06c0-.73-.33-1-1.28-1.24a5.93,5.93,0,0,1-.59-.17l-.17.87a6.06,6.06,0,0,0,.61.21c.46.12.64.24.64.56a3.1,3.1,0,0,1-.62,1.53Zm5.06-3.35h-2a10.1,10.1,0,0,1-1.37-.05l-.17.88a3,3,0,0,0,.71.07,5,5,0,0,0-.06.95v3.58h4.49c.06-.28.17-.84.17-.9v-2.41C294.85,130.62,294.57,130.21,293.1,130.21Zm1,2.36v2.16h-3.16v-3.61h2.13C294,131.12,294.09,131.58,294.09,132.57Zm8.25,3.07h.77v-3.39c0-1.63-.32-2-1.74-2H300a11,11,0,0,1-1.38,0l-.17.88a6,6,0,0,0,1.15.07h1.7c.94,0,1,.43,1,1.54Zm-3.69,0h.78v-2.86h-.78Zm5.25,0c.23,0,.86,0,1.29,0h3.26l.17-.91h-.73c0-.17,0-.64,0-.85v-1.65c0-1.36-.16-2-1.59-2h-.79a9.52,9.52,0,0,1-1.28,0l-.18.88a5.66,5.66,0,0,0,1.11.07h.87c.95,0,1.07.4,1.09,1.47,0,.51,0,1.46,0,2.14h-1.52a14.11,14.11,0,0,0-1.58.05Zm4.94,0c.2,0,.89,0,1.32,0h1.39l.17-.88v-2.43c0-1.46-.45-1.8-1.61-2a6.28,6.28,0,0,1-.86-.2l-.17.87a5.34,5.34,0,0,0,.87.22c.89.21,1,.45,1,1.32v2.23h-.7a10.94,10.94,0,0,0-1.23,0Zm5.74.05a4,4,0,0,0,3.13-4c0-1.11-.3-1.55-1.58-1.55h-1.4a11.59,11.59,0,0,1-1.47,0l-.17.87a6.35,6.35,0,0,0,1.48.08h1.37c.76,0,1,.22,1,.86a2.71,2.71,0,0,1-2.2,2.66Zm-1.29,1.84h.78v-4.94h-.78Zm5.56-1.92h1a5.72,5.72,0,0,1-.28-1.55,2.8,2.8,0,0,1,.51-1.89,31.27,31.27,0,0,1,2.63,3.44h1.06c-.3-.48-1.15-1.68-1.69-2.34a2.25,2.25,0,0,0,1.14-2,3.46,3.46,0,0,0-.19-1.17l-1,.09a3.39,3.39,0,0,1,.3,1.25,1.45,1.45,0,0,1-.65,1.31c-1.05-1.3-1.79-2.13-2.3-2.65l-1.07.08,0,0c.4.37.91.88,1.35,1.38a3.65,3.65,0,0,0-.94,2.64A5.15,5.15,0,0,0,318.85,135.64Zm6.4-2.08a3.9,3.9,0,0,0,.79-2.06c0-.73-.33-1-1.28-1.24a5.93,5.93,0,0,1-.59-.17L324,131a6.06,6.06,0,0,0,.61.21c.46.12.65.24.65.56a3.14,3.14,0,0,1-.63,1.53Zm2.52,0a3.9,3.9,0,0,0,.79-2.06c0-.73-.33-1-1.28-1.24a5.93,5.93,0,0,1-.59-.17l-.17.87a6.06,6.06,0,0,0,.61.21c.46.12.65.24.65.56a3.14,3.14,0,0,1-.63,1.53Zm5.07-3.35h-2a10.27,10.27,0,0,1-1.38-.05l-.17.88a3.08,3.08,0,0,0,.72.07,4.78,4.78,0,0,0-.07.95v3.58h4.5c.06-.28.17-.84.17-.9v-2.41C334.59,130.62,334.31,130.21,332.84,130.21Zm1,2.36v2.16h-3.16v-3.61h2.13C333.72,131.12,333.83,131.58,333.83,132.57Zm8.19,3.07h.77v-3.39c0-1.63-.32-2-1.74-2h-1.37a10.81,10.81,0,0,1-1.37,0l-.17.88a6,6,0,0,0,1.15.07H341c.94,0,1,.43,1,1.54Zm-3.68,0h.78v-2.86h-.78Zm6.5.07a12.84,12.84,0,0,0,1.48-.2,3,3,0,0,0,2.52-3.15c0-1.28-.58-2.25-1.85-2.25a2.38,2.38,0,0,0-.92.16l-.17.93a2.19,2.19,0,0,1,.91-.19c.76,0,1.25.55,1.25,1.51a2,2,0,0,1-1.75,2.12,8.05,8.05,0,0,1-.84.11c-.25-1.78-.51-3.4-.76-4.59l-.94.09C344.2,131.82,344.54,133.93,344.84,135.71Zm5.91-.07h.78v-3.27c0-1.51-.36-1.88-1.48-2.12a3.74,3.74,0,0,1-.69-.16l-.17.87a4,4,0,0,0,.68.2c.78.18.88.49.88,1.35Zm1.62,0c.23,0,.86,0,1.29,0h3.25l.17-.91h-.73a7.58,7.58,0,0,0,0-.85v-1.65c0-1.36-.16-2-1.58-2H354a9.52,9.52,0,0,1-1.28,0l-.18.88a5.66,5.66,0,0,0,1.11.07h.87c.95,0,1.07.4,1.08,1.47,0,.51,0,1.46,0,2.14h-1.51a14.11,14.11,0,0,0-1.58.05Zm6.17-2.11a3.9,3.9,0,0,0,.79-2.06c0-.73-.33-1-1.28-1.24a5.93,5.93,0,0,1-.59-.17l-.17.87a6.06,6.06,0,0,0,.61.21c.46.12.65.24.65.56a3.14,3.14,0,0,1-.63,1.53Zm5.06-3.35h-2a10.27,10.27,0,0,1-1.38-.05L360,131a3.08,3.08,0,0,0,.72.07,4.78,4.78,0,0,0-.07.95v3.58h4.49c.06-.28.17-.84.17-.9v-2.41C365.35,130.62,365.07,130.21,363.6,130.21Zm1,2.36v2.16h-3.15v-3.61h2.12C364.48,131.12,364.59,131.58,364.59,132.57Zm3.92,3.1c.23,0,.86,0,1.29,0h3.26l.17-.91h-.73c0-.17,0-.64,0-.85v-1.65c0-1.36-.16-2-1.59-2h-.79a9.52,9.52,0,0,1-1.28,0l-.18.88a5.66,5.66,0,0,0,1.11.07h.87c.95,0,1.07.4,1.09,1.47,0,.51,0,1.46,0,2.14h-1.52a14.11,14.11,0,0,0-1.58.05Zm6-2.11a3.9,3.9,0,0,0,.79-2.06c0-.73-.33-1-1.28-1.24a5.93,5.93,0,0,1-.59-.17l-.17.87a6.06,6.06,0,0,0,.61.21c.46.12.65.24.65.56a3.14,3.14,0,0,1-.63,1.53Zm2.83,2.08h.78v-3.27c0-1.51-.36-1.88-1.48-2.12a3.74,3.74,0,0,1-.69-.16l-.17.87a4,4,0,0,0,.68.2c.78.18.88.49.88,1.35Zm1.63,0a8.75,8.75,0,0,1,1,0h.79l.14-.9c0-.7-.1-3-.15-3.62h1.76c.93,0,1,.43,1,1.42v3.1h.78v-3.38c0-1.7-.28-2-1.75-2h-1.64a11.92,11.92,0,0,1-1.57,0l-.18.87a2.73,2.73,0,0,0,.76.08h0c.07.63.15,2.64.16,3.61H380a3.75,3.75,0,0,0-.82.05Zm9.27,0H389v-3.38c0-1.7-.28-2-1.74-2h-.62a11.2,11.2,0,0,1-1.39,0l-.17.88a5.51,5.51,0,0,0,1.11.07h1c.94,0,1.05.43,1.05,1.42Z" transform="translate(-10.37 -9.23)"/></svg>