<svg width="110" height="110" viewBox="0 0 110 110" xmlns="http://www.w3.org/2000/svg" xmlns:xlink="http://www.w3.org/1999/xlink">
    <defs>
        <path d="M110 55c0 30.376-24.623 55-55 55-30.376 0-55-24.624-55-55S24.624 0 55 0c30.377 0 55 24.624 55 55" id="wntdap1baa"/>
        <path id="sga7odcdoc" d="M0 0h101.547v34.275H0z"/>
        <path id="u32vbzwkue" d="M0 0h25v25.074H0z"/>
        <path id="sa0arwqqzg" d="M0 0h42.274v43.77H0z"/>
    </defs>
    <g fill="none" fill-rule="evenodd">
        <mask id="dno8janadb" fill="#fff">
            <use xlink:href="#wntdap1baa"/>
        </mask>
        <use fill="#E9F4FD" xlink:href="#wntdap1baa"/>
        <path d="M55.975 41.114c-6.853-1.089-32.146 1.248-45.584 7.528-5.712 2.67-6.02 5.763-6.484 11.789-.93 12.096 3.779 30.112 6.842 39.063.76 2.225 4.509 11.469 7.821 13.085 2.12 1.035 4.705.817 7.053.59 8.785-.846 17.42-2.94 26.205-3.795 6.035-.586 12.156.139 18.185-.518 3.115-.34 6.205-1.197 9.076-2.453 10.35-4.529 8.25-3.512 5.44-8.77-3.37-6.307-6.791-12.621-9.45-19.26-1.603-4.002-1.91-8.423-3.276-12.512-.973-2.913-.496-3.601-1.803-8.233-1.307-4.632-1.312-8.986-2.909-11.764-1.596-2.778-4.262-3.662-11.116-4.75z" fill="#8AC3AC" mask="url(#dno8janadb)"/>
        <g mask="url(#dno8janadb)">
            <path d="M88.172 77.06c-.05.32-.22.608-.396.879a12.645 12.645 0 0 1-2.234 2.584c-.168.148-.387.3-.598.225-.138-.155-.042-.397.057-.579l1.448-2.634c.199-.362.372-.74.577-1.098.145-.252.335-.443.643-.337.442.152.503.558.503.96" fill="#C69C6D"/>
            <g transform="translate(28.86 84.187)">
                <mask id="ss24puycvd" fill="#fff">
                    <use xlink:href="#sga7odcdoc"/>
                </mask>
                <path d="M3.676 28.583c1.372 1.604 3.212 2.756 5.15 3.601 6.299 2.744 13.512 2.362 20.297 1.256 10.208-1.665 20.189-4.87 29.29-9.763 1.089-.585 2.207-1.207 3.439-1.31 1.285-.107 2.538.363 3.747.81 5.06 1.872 10.22 3.48 15.45 4.814 1.312.335 2.657.655 4.008.554 1.427-.107 2.775-.676 4.072-1.277a69.772 69.772 0 0 0 12.418-7.406c-2.929-.907-5.262-3.068-7.846-4.713-2.96-1.885-6.287-3.106-9.427-4.676-4.606-2.302-8.807-5.35-13.442-7.594C66.197.635 60.882-.786 55.884.469c-2.916.731-5.534 2.323-8.356 3.354-2.495.913-5.128 1.38-7.697 2.058C27.923 9.03 16.969 16.804 4.657 16.334c-1.186-.046-2.446-.113-3.588.273-.96.325-1.194.835-1.013 1.786.44 2.305.727 4.615 1.614 6.81.493 1.22 1.149 2.377 2.006 3.38" fill="#147394" mask="url(#ss24puycvd)"/>
            </g>
            <path d="M30.554 45.891c1.423-.386 2.92-.374 4.396-.36 3.089.029 6.199.06 9.23.655 3.6.707 6.998 2.19 10.535 3.167 5.302 1.463 11.4 2.052 14.956 6.23 1.426 1.675 2.263 3.758 2.992 5.83a82.615 82.615 0 0 1 3.81 15.39c.102.694.195 1.41.034 2.093-.241 1.02-1.007 1.824-1.766 2.549-4.707 4.5-8.522 9.596-14.751 11.819-5.275 1.882-10.626 5.348-15.879 7.156-5.252 1.808-11.044 2.496-16.38.947l-2.147-7.558c-.396-1.395-.814-2.831-1.731-3.956-.671-.822-1.573-1.43-2.27-2.231-2.441-2.807-1.776-7.023-1.295-10.705.83-6.359.533-13.275-3.167-18.523-.78-1.105-1.71-2.143-2.14-3.423-.285-.848-.284-1.847.12-2.658.148-.296.361-.639.67-.792.287-.142.653-.15.964-.208a33.103 33.103 0 0 0 6.173-1.823 33.201 33.201 0 0 0 3.268-1.531c1.425-.766 2.816-1.644 4.378-2.068z" fill="#E09D37"/>
            <g transform="translate(30.738 14.434)">
                <mask id="ie92jy060f" fill="#fff">
                    <use xlink:href="#u32vbzwkue"/>
                </mask>
                <path d="M.046 10.906C-.05 9.143-.097 7.22.957 5.803c.85-1.142 2.243-1.717 3.4-2.547.88-.632 1.638-1.425 2.548-2.013 2.8-1.809 6.488-1.366 9.688-.42 3.148.93 6.485 2.606 7.538 5.703.312.916.395 1.892.475 2.856.306 3.662.61 7.353.185 11.003-.065.559-.156 1.139-.483 1.598-.27.38-.676.638-1.083.868-5.304 3.009-11.938 2.61-17.792.89-1.273-.374-2.633-.886-3.311-2.022-.711-1.191-.536-2.66-.825-3.969-.141-.639-.447-1.074-.793-1.61-.375-.582-.257-1.467-.292-2.131l-.166-3.103" fill="#253D45" mask="url(#ie92jy060f)"/>
            </g>
            <path d="M30.027 49.604c2.156 2.211 5.162 3.459 8.216 3.96 3.053.502 6.177.31 9.256-.01l.005-3.431a25.123 25.123 0 0 1-7.062-7.997c-.644-1.155-1.218-2.39-2.201-3.277-.739-.666-2.035-1.269-3.037-.861-.837.34-.867 1.351-.85 2.118a12.004 12.004 0 0 1-1.756 6.58 11.252 11.252 0 0 1-2.57 2.918" fill="#EFBF9B"/>
            <path d="M53.74 45.526c-1.067 2.374-1.375 3.35-3.58 4.912-1.338.946-2.256.946-3.525.434-.918-.371-4.045-1.776-4.909-2.228-.756-.396-2.43-1.575-2.972-2.232-2.694-3.26-2.498-3.63-3.168-7.8-.621.784-1.901.76-2.718.182-.817-.579-1.255-1.55-1.545-2.505a13.172 13.172 0 0 1-.514-5.017c.028-.304.082-.637.316-.836.543-.462 1.31.222 1.655.846a19.28 19.28 0 0 1 1.582 3.757c.153.508.294 1.039.629 1.451.335.413.931.67 1.413.444.934-.44.463-1.816.47-2.845.009-1.302 1.014-2.362 1.48-3.579.666-1.739.273-2.766.43-4.62.02-.248.062-.514.24-.688.17-.166.422-.208.657-.232 2.08-.213 4.464.783 6.555.734 1.573-.037 3.596-.196 5.006-.89.55-.271 1.172-.842 1.823-.773.614.064.888.679 1.144 1.16.94 1.77 1.53 3.839 1.53 7.124 0 1.764.137 3.734-.032 5.592-.087.961-.898 5.235-1.966 7.609z" fill="#FBD6B7"/>
            <path d="M48.529 80.07c.444-.626 1.003-1.162 1.56-1.694.506-.484 1.027-.978 1.673-1.254.645-.276 4.998-2.276 5.547-1.839.19.152-3.206 2.334-3.01 2.477.452.33 1.057.324 1.614.38.558.058 1.186.256 1.396.774.097.24.084.508.056.764a7.22 7.22 0 0 1-.576 2.137l-1.072-.054c.073.933.14 1.902-.197 2.776-.338.872.141 2.555 0 2.995-.14.442-1.294 1.587-1.758 1.624-.692.055-2.632-1.549-3.323-1.624-.208.843-1.02 1.432-1.867 1.636-.847.204-1.735.097-2.6-.012-.235-.03-.476-.061-.683-.176-.213-.117-.372-.313-.508-.514-.675-.996-.87-2.266-.633-3.434.12-.588.35-1.156.686-1.655.29-.428.564-.61 1.043-.762a3.772 3.772 0 0 0 1.733-1.191c.348-.42.603-.908.919-1.353z" fill="#EFBF9B"/>
            <path d="M58.55 74.818c.072-.002.149-.002.209.037.062.04.093.112.116.181.231.687-.017 1.463-.462 2.036-.444.574-1.063.984-1.67 1.383-.257.168-.518.338-.81.431-.732.233-1.503-.05-2.151-.387-.269-.139-.61-.3-.75-.588-.16-.333.14-.607.358-.826.335-.334.702-.536 1.141-.702.586-.221 1.076-.56 1.614-.87a5.18 5.18 0 0 1 2.406-.695" fill="#E0C79C"/>
            <path d="M75.309 94.19a1145.98 1145.98 0 0 1-22.867-.994c-.138-.007-.283-.017-.4-.09-.313-.195-.226-.666-.1-1.012 2.274-6.255 3.822-12.426 6.56-18.494a2.288 2.288 0 0 1 2.126-1.34c8.419.134 18-.007 26.418.15.76.014 1.295.751 1.077 1.477-1.747 5.803-2.922 9.016-5.19 14.286-.761 1.768-1.707 3.45-2.561 5.175-.158.32-.335.66-.65.83-.288.155-.634.138-.96.117-1.01-.066-2.44-.07-3.453-.105" fill="#DDD"/>
            <g transform="translate(6.968 52.215)">
                <mask id="8ui9v2nl6h" fill="#fff">
                    <use xlink:href="#sa0arwqqzg"/>
                </mask>
                <path d="M2.593 10.181c-2.925 9.662-3.513 20.1-1.055 29.89.056.224.117.455.254.64.25.34.694.464 1.106.553 3.147.684 6.442.655 9.514 1.619.985.309 1.949.72 2.974.843.78.095 1.569.02 2.35-.056l10.19-.981c1.998-.193 4.008-.387 5.943-.921 2.162-.597 4.183-1.604 6.189-2.606.975-.487 2.072-1.139 2.204-2.217.047-.394-.049-.791-.159-1.173a15.516 15.516 0 0 0-2.561-5.099c-.154-.202-.32-.406-.546-.525-.35-.184-.773-.127-1.165-.068-2.277.343-4.586.627-6.88.409-1.02-.097-2.036-.293-3.062-.292-1.84.002-3.65.638-5.487.53-2.408-.14-4.677-1.547-7.076-1.306l.19-10.428c.08-4.422.14-8.966-1.404-13.113-.461-1.24-1.09-2.436-1.933-3.462-.818-.992-1.907-1.904-3.16-2.284-.54-.163-1.271-.215-1.79.062-.374.2-.57.58-.752.945-.653 1.31-1.409 2.558-2.006 3.899a42.362 42.362 0 0 0-1.702 4.57c-.06.19-.118.38-.176.571" fill="#F2B741" mask="url(#8ui9v2nl6h)"/>
            </g>
            <path d="M85.462 80.547c-1.767-.12-3.544.17-5.31.028-.799-.064-1.792-.127-2.2.56-.339.571.01 1.35.57 1.709.559.36 1.256.413 1.922.455-.651.099-1.314.001-1.969-.068-.654-.069-1.333-.107-1.957.103-.624.209-1.187.72-1.271 1.37-.085.65.468 1.363 1.123 1.294-.452-.066-.915-.131-1.363-.04-.447.092-.884.374-1.03.805-.184.544.155 1.154.638 1.469.482.314 1.074.402 1.645.483l6.45.913c.373.053.751.105 1.126.061.787-.092 1.455-.596 2.08-1.08.69-.535 1.378-1.07 2.067-1.603.658-.511 1.333-1.039 1.763-1.752.287-.477.446-1.053.381-1.61-.042-.36-.081-.83-.295-1.137-.59-.843-1.626-1.363-2.588-1.648a8.273 8.273 0 0 0-1.782-.312" fill="#EFBF9B"/>
        </g>
    </g>
</svg>
