<svg width="110" height="110" viewBox="0 0 110 110" xmlns="http://www.w3.org/2000/svg" xmlns:xlink="http://www.w3.org/1999/xlink">
    <defs>
        <circle id="kz1mq1t7ta" cx="55" cy="55" r="55"/>
    </defs>
    <g fill="none" fill-rule="evenodd">
        <mask id="5z8t9xb4qb" fill="#fff">
            <use xlink:href="#kz1mq1t7ta"/>
        </mask>
        <use fill="#E9F4FD" fill-rule="nonzero" xlink:href="#kz1mq1t7ta"/>
        <g fill-rule="nonzero" mask="url(#5z8t9xb4qb)">
            <path d="m91.835 13.34.008.22V33.9c0 .796-.317 1.56-.881 2.121a3.005 3.005 0 0 1-2.125.877 3.003 3.003 0 0 1-2.997-2.774l-.009-.224-.002-8.376L60 63.658a3.01 3.01 0 0 1-3.171 1.282l-.243-.066-33.32-12.923L0 89.586a3.01 3.01 0 0 1-3.911 1.136l-.216-.118a2.994 2.994 0 0 1-1.14-3.9l.12-.216L19.34 46.837a3.01 3.01 0 0 1 3.237-1.376l.236.064 33.402 12.95L82.712 19.33a3 3 0 0 1 .314-.4L71.048 23.4a3.009 3.009 0 0 1-3.777-1.54l-.092-.216a2.996 2.996 0 0 1 1.545-3.768l.217-.09 18.841-7.035c1.895-.706 3.91.616 4.053 2.587z" fill="#97DAC0"/>
            <path d="m90.332 10.341.008.222v20.34c0 .795-.318 1.558-.881 2.12a3.005 3.005 0 0 1-2.126.877 3.003 3.003 0 0 1-2.996-2.775l-.01-.223v-9.877L58.496 59.16a3.01 3.01 0 0 1-3.172 1.281l-.241-.065-33.32-12.923-24.115 40.684a3.01 3.01 0 0 1-3.912 1.136l-.215-.119a2.994 2.994 0 0 1-1.14-3.9l.12-.216 25.335-42.7a3.01 3.01 0 0 1 3.238-1.375l.235.063 33.405 12.95 25.435-37.532-10.603 3.96a3.009 3.009 0 0 1-3.778-1.54l-.091-.217a2.996 2.996 0 0 1 1.545-3.769l.216-.09L86.28 7.754c1.896-.707 3.91.616 4.052 2.587z" fill="#008854"/>
            <path d="M41.427 116.875c5.18.026 9.387-1.668 9.396-3.784.01-2.115-4.178-3.852-9.358-3.878-5.178-.027-9.382 1.668-9.396 3.783-.012 2.118 4.18 3.854 9.357 3.878" fill="#D1903D"/>
            <path d="M41.427 113.611c-5.179-.025-9.369-1.762-9.359-3.878l-.011 2.74c-.014 2.117 4.177 3.852 9.357 3.877 5.178.026 9.384-1.667 9.395-3.784l.014-2.739c-.01 2.115-4.216 3.81-9.396 3.784" fill="#FCB050"/>
            <path d="M41.427 113.611c5.18.026 9.385-1.669 9.396-3.784.01-2.115-4.178-3.852-9.357-3.878-5.18-.027-9.387 1.669-9.398 3.784-.01 2.116 4.18 3.853 9.359 3.878" fill="#D1903D"/>
            <path d="M41.433 112.61c3.824.017 6.93-1.233 6.937-2.796.009-1.56-3.085-2.843-6.91-2.863-3.822-.02-6.93 1.233-6.94 2.795-.007 1.562 3.089 2.845 6.913 2.863" fill="#FFDF33"/>
            <path d="M41.427 110.303c-5.18-.029-9.369-1.763-9.359-3.88l-.011 2.742c-.014 2.116 4.176 3.852 9.357 3.879 5.177.025 9.384-1.667 9.395-3.783l.014-2.743c-.01 2.116-4.218 3.811-9.396 3.785" fill="#FCB050"/>
            <path d="M41.427 110.303c5.178.026 9.385-1.67 9.396-3.785.01-2.115-4.18-3.852-9.357-3.878-5.18-.026-9.387 1.669-9.398 3.784-.01 2.116 4.18 3.85 9.359 3.88" fill="#D1903D"/>
            <path d="M41.431 109.301c3.826.021 6.932-1.232 6.94-2.796.008-1.56-3.086-2.844-6.911-2.862-3.823-.02-6.93 1.232-6.94 2.796-.005 1.56 3.087 2.843 6.911 2.862" fill="#FFDF33"/>
            <path d="M41.427 107.04c-5.179-.027-9.369-1.761-9.357-3.88l-.014 2.744c-.013 2.113 4.178 3.85 9.358 3.877 5.177.026 9.385-1.667 9.395-3.783l.014-2.743c-.01 2.116-4.218 3.81-9.396 3.785" fill="#FCB050"/>
            <path d="M41.427 107.04c5.178.025 9.385-1.669 9.396-3.784.01-2.114-4.18-3.853-9.357-3.88-5.18-.024-9.383 1.671-9.397 3.785-.012 2.117 4.18 3.852 9.357 3.879" fill="#D1903D"/>
            <path d="M41.433 106.039c3.824.019 6.93-1.233 6.937-2.794.01-1.562-3.085-2.846-6.91-2.865-3.822-.02-6.93 1.232-6.94 2.794-.005 1.562 3.089 2.847 6.913 2.865" fill="#FFDF33"/>
            <path d="M41.427 103.732c-5.179-.025-9.369-1.762-9.357-3.879l-.014 2.741c-.013 2.118 4.18 3.852 9.358 3.877 5.177.027 9.385-1.666 9.395-3.783l.014-2.74c-.01 2.115-4.217 3.812-9.396 3.784" fill="#FCB050"/>
            <path d="M41.427 103.732c5.18.028 9.387-1.669 9.396-3.783.01-2.116-4.178-3.855-9.358-3.88-5.178-.026-9.382 1.668-9.396 3.784-.01 2.117 4.18 3.854 9.357 3.88" fill="#D1903D"/>
            <path d="M41.433 102.728c3.824.02 6.93-1.23 6.937-2.792.01-1.562-3.085-2.847-6.91-2.867-3.822-.017-6.93 1.235-6.94 2.797-.005 1.56 3.088 2.844 6.913 2.862" fill="#FFDF33"/>
            <path d="M41.434 100.468c-5.18-.026-9.369-1.762-9.357-3.878l-.013 2.741c-.01 2.115 4.175 3.853 9.357 3.88 5.176.024 9.383-1.67 9.395-3.786l.014-2.74c-.01 2.114-4.216 3.811-9.396 3.783" fill="#FCB050"/>
            <path d="M41.434 100.468c5.18.028 9.386-1.669 9.396-3.782.01-2.118-4.18-3.852-9.358-3.88-5.179-.026-9.385 1.67-9.395 3.784-.012 2.116 4.176 3.852 9.357 3.878" fill="#D1903D"/>
            <path d="M41.44 99.466c3.823.02 6.93-1.23 6.939-2.795.007-1.56-3.086-2.845-6.911-2.863-3.823-.019-6.932 1.232-6.938 2.795-.01 1.562 3.085 2.845 6.91 2.863" fill="#FFDF33"/>
            <path d="M41.44 97.159c-5.177-.024-9.366-1.76-9.355-3.878l-.015 2.743c-.012 2.113 4.178 3.852 9.357 3.877 5.18.025 9.387-1.668 9.398-3.784l.014-2.74c-.01 2.117-4.22 3.81-9.399 3.782" fill="#FCB050"/>
            <path d="M41.44 97.159c5.18.027 9.388-1.666 9.398-3.781.012-2.118-4.18-3.855-9.358-3.88-5.179-.027-9.386 1.669-9.395 3.782-.012 2.118 4.178 3.855 9.355 3.879" fill="#D1903D"/>
            <path d="M41.447 96.158c3.825.02 6.932-1.23 6.938-2.794.01-1.564-3.086-2.844-6.91-2.864-3.824-.02-6.93 1.232-6.94 2.794-.006 1.562 3.088 2.845 6.912 2.864" fill="#FFDF33"/>
            <path d="M41.432 93.754c-5.177-.025-9.366-1.762-9.355-3.88l-.013 2.741c-.013 2.118 4.177 3.855 9.354 3.88 5.181.026 9.387-1.668 9.399-3.786l.013-2.738c-.01 2.115-4.219 3.809-9.398 3.783" fill="#FCB050"/>
            <path d="M41.432 93.754c5.18.026 9.388-1.668 9.398-3.783.01-2.115-4.18-3.853-9.358-3.88-5.179-.026-9.383 1.671-9.395 3.783-.01 2.118 4.178 3.855 9.355 3.88" fill="#D1903D"/>
            <path d="M41.438 92.75c3.826.021 6.932-1.228 6.941-2.791.007-1.566-3.086-2.847-6.912-2.867-3.824-.018-6.93 1.233-6.94 2.797-.006 1.56 3.089 2.844 6.91 2.862" fill="#FFDF33"/>
            <path d="M41.434 90.5c-5.178-.026-9.366-1.762-9.355-3.88l-.014 2.74c-.014 2.117 4.177 3.855 9.356 3.88 5.178.026 9.385-1.67 9.395-3.784l.015-2.74c-.01 2.117-4.217 3.81-9.397 3.784" fill="#FCB050"/>
            <path d="M41.434 90.5c5.18.026 9.387-1.667 9.397-3.785.01-2.116-4.178-3.855-9.358-3.88-5.18-.025-9.385 1.671-9.394 3.785-.01 2.118 4.177 3.854 9.355 3.88" fill="#D1903D"/>
            <path d="M41.44 89.498c3.825.018 6.93-1.233 6.937-2.795.01-1.562-3.084-2.846-6.91-2.865-3.822-.02-6.93 1.233-6.938 2.796-.008 1.563 3.087 2.844 6.91 2.864" fill="#FFDF33"/>
            <path d="M41.434 87.31c-5.178-.026-9.369-1.762-9.357-3.88l-.013 2.741c-.013 2.118 4.177 3.853 9.357 3.88 5.178.025 9.385-1.668 9.395-3.786l.015-2.74c-.01 2.117-4.217 3.81-9.397 3.784" fill="#FCB050"/>
            <path d="M41.434 87.31c5.18.025 9.387-1.668 9.397-3.785.01-2.115-4.18-3.852-9.358-3.877-5.18-.027-9.385 1.667-9.396 3.782-.012 2.118 4.179 3.854 9.357 3.88" fill="#FCB050"/>
            <path d="M41.44 86.306c3.824.02 6.93-1.23 6.937-2.794.01-1.563-3.085-2.842-6.91-2.863-3.82-.02-6.93 1.232-6.938 2.795-.008 1.561 3.087 2.842 6.91 2.862" fill="#E4A555"/>
            <path d="M26.302 115.977c5.178.026 9.385-1.668 9.396-3.784.01-2.114-4.18-3.853-9.357-3.879-5.18-.025-9.383 1.67-9.397 3.784-.012 2.118 4.18 3.852 9.357 3.88" fill="#D1903D"/>
            <path d="M26.308 114.976c3.824.02 6.93-1.233 6.937-2.793.01-1.563-3.085-2.846-6.91-2.866-3.822-.02-6.93 1.233-6.94 2.795-.005 1.561 3.089 2.846 6.913 2.864" fill="#FFDF33"/>
            <path d="M26.302 112.67c-5.179-.026-9.369-1.763-9.357-3.88l-.014 2.742c-.013 2.117 4.18 3.852 9.358 3.877 5.177.026 9.385-1.667 9.395-3.783l.014-2.74c-.01 2.115-4.217 3.812-9.396 3.784" fill="#FCB050"/>
            <path d="M26.302 112.67c5.18.027 9.387-1.669 9.396-3.784.01-2.116-4.178-3.855-9.358-3.88-5.178-.025-9.382 1.669-9.396 3.785-.01 2.116 4.18 3.853 9.357 3.879" fill="#D1903D"/>
            <path d="M26.308 111.666c3.824.02 6.93-1.23 6.937-2.792.01-1.563-3.085-2.848-6.91-2.867-3.822-.017-6.93 1.235-6.94 2.796-.005 1.561 3.088 2.845 6.913 2.863" fill="#FFDF33"/>
            <path d="M26.31 109.405c-5.182-.025-9.37-1.762-9.358-3.877l-.013 2.74c-.01 2.116 4.175 3.854 9.356 3.88 5.177.024 9.383-1.67 9.396-3.786l.014-2.739c-.01 2.114-4.216 3.81-9.396 3.782" fill="#FCB050"/>
            <path d="M26.31 109.405c5.178.028 9.385-1.668 9.395-3.782.01-2.117-4.18-3.852-9.358-3.88-5.179-.025-9.385 1.67-9.395 3.785-.012 2.115 4.176 3.852 9.357 3.877" fill="#D1903D"/>
            <path d="M26.314 108.404c3.824.02 6.931-1.231 6.94-2.796.007-1.56-3.086-2.845-6.911-2.863-3.823-.018-6.932 1.232-6.938 2.795-.01 1.563 3.084 2.845 6.91 2.864" fill="#FFDF33"/>
            <path d="M26.315 106.096c-5.177-.024-9.366-1.76-9.355-3.877l-.015 2.742c-.012 2.114 4.178 3.852 9.357 3.877 5.18.026 9.387-1.667 9.398-3.783l.014-2.741c-.01 2.117-4.22 3.81-9.399 3.782" fill="#FCB050"/>
            <path d="M26.315 106.096c5.18.028 9.388-1.665 9.398-3.78.012-2.118-4.18-3.855-9.358-3.88-5.179-.027-9.386 1.668-9.395 3.781-.012 2.119 4.178 3.855 9.355 3.88" fill="#D1903D"/>
            <path d="M26.322 105.095c3.825.02 6.932-1.23 6.938-2.794.01-1.564-3.086-2.844-6.91-2.864-3.824-.02-6.93 1.232-6.94 2.795-.006 1.562 3.088 2.844 6.912 2.863" fill="#FFDF33"/>
            <path d="M26.307 102.692c-5.177-.026-9.366-1.762-9.355-3.88l-.013 2.74c-.013 2.118 4.177 3.855 9.354 3.88 5.181.026 9.387-1.668 9.399-3.785l.013-2.738c-.01 2.114-4.219 3.808-9.398 3.783" fill="#FCB050"/>
            <path d="M26.307 102.692c5.18.025 9.388-1.669 9.398-3.783.01-2.115-4.18-3.854-9.358-3.88-5.179-.026-9.383 1.67-9.395 3.783-.01 2.117 4.178 3.854 9.355 3.88" fill="#D1903D"/>
            <path d="M26.313 101.688c3.826.02 6.932-1.228 6.941-2.792.007-1.565-3.086-2.846-6.912-2.867-3.824-.018-6.93 1.234-6.94 2.798-.006 1.56 3.089 2.843 6.91 2.861" fill="#FFDF33"/>
            <path d="M26.31 99.437c-5.179-.026-9.367-1.762-9.356-3.88l-.014 2.741c-.014 2.116 4.177 3.854 9.355 3.88 5.179.026 9.386-1.67 9.396-3.784l.015-2.74c-.01 2.117-4.217 3.81-9.397 3.783" fill="#FCB050"/>
            <path d="M26.31 99.437c5.179.026 9.386-1.667 9.396-3.784.01-2.117-4.178-3.855-9.358-3.88-5.18-.025-9.385 1.67-9.394 3.785-.01 2.117 4.177 3.853 9.355 3.88" fill="#D1903D"/>
            <path d="M26.315 98.436c3.825.017 6.93-1.233 6.937-2.795.01-1.563-3.084-2.846-6.91-2.866-3.822-.02-6.93 1.233-6.938 2.796-.008 1.563 3.087 2.845 6.91 2.865" fill="#FFDF33"/>
            <path d="M26.31 96.247c-5.179-.026-9.37-1.761-9.358-3.88l-.013 2.742c-.013 2.117 4.177 3.852 9.357 3.879 5.178.026 9.385-1.668 9.395-3.786l.015-2.74c-.01 2.117-4.217 3.81-9.397 3.785" fill="#FCB050"/>
            <path d="M26.31 96.247c5.179.026 9.386-1.668 9.396-3.784.01-2.116-4.18-3.853-9.358-3.878-5.18-.026-9.385 1.668-9.396 3.783-.012 2.117 4.179 3.853 9.357 3.879" fill="#FCB050"/>
            <path d="M26.315 95.243c3.824.02 6.93-1.23 6.937-2.794.01-1.562-3.085-2.842-6.91-2.862-3.82-.02-6.93 1.232-6.938 2.794-.008 1.562 3.087 2.843 6.91 2.862" fill="#E4A555"/>
            <g>
                <path d="m87.484 52.396 3.508-1c6.209.554 9.314 5.533 9.314 14.935 0 14.105-14.221 23.586-18.527 23.586-2.87 0-4.34-3.963-4.411-11.888l10.117-25.633z" fill="#005031"/>
                <path d="M92.022 56.234s4.211 6.7-5.26 17.952c-.977 1.138-3.437-.62-9.365 2.265-3.542 1.575-16.524-1.516-20.403-4.194-3.88-2.678-12.681-13.835-11.706-18.315.975-4.48 8.6-7.017 13.147-5.955 4.545 1.061 25.85 1.092 33.586 8.247z" fill="#725542"/>
                <path d="M62.98 53.314c0 1.347 1.382 3.691-4.546 6.578-3.542 1.574-6.159 3.392-10.037.715-3.88-2.678-4.084-2.185-3.11-6.666.976-4.48 8.601-7.016 13.148-5.954 1.274.298 4.545.054 4.545 5.327zM44.263 67.24a128.448 128.448 0 0 1 3.319 3.375c1.016 1.074 2.165 1.75 3.446 2.025 5.077-1.669 8.068-2.503 8.97-2.503 1.354 0 3.23 1.94 1.19 3.197-2.04 1.258-6.814 3.74-8.484 3.805-1.668.062-6.285-1.683-7.622-2.559-1.336-.877-4.013-2.6-3.167-5.714.564-2.076 1.347-2.618 2.348-1.626z" fill="#725542"/>
                <path d="M39.366 59.433a178.461 178.461 0 0 1 4.627 4.703c1.417 1.498 3.018 2.439 4.806 2.822h10.003c1.888 0 5.232 3.18 2.385 4.934-2.844 1.754-7.127 1.7-9.455 1.788-2.328.088-9.362-2.795-11.225-4.015-1.863-1.22-5.594-3.623-4.415-7.965.787-2.894 1.878-3.65 3.274-2.267z" fill="#7F614D"/>
                <path d="M44.174 47.157c6.121.741 9.383 1.576 9.784 2.51.389.903-4.467 4.769-4.965 5.259-1.27 1.247-2.324 2.174-3.163 2.78 4.426 4.367 8.362 6.55 11.806 6.55 5.166 0 .806 5.415-3.071 5.415-3.877 0-8.312 1.051-10.391 0-2.078-1.052-6.834-6.984-7.871-8.954-1.038-1.972-3.137-5.881 0-9.107 2.091-2.15 4.715-3.634 7.872-4.453h-.001z" fill="#886854"/>
                <path d="M29.613 63.947c-.426 3.238 1.056 4.202 4.446 2.892 1.776-.686 2.976-2.892 4-7.246.374-1.591 2.502-5.75 4.974-6.352 5.987-1.457 11.51-3.14 13.65-4.117 2.139-.976 3.589 1.088 3.977 1.611.388.524 1.15 1.627.528 3.206-.621 1.58-1.124 2.19-2.889 2.603-4.823 1.13-9.757 1.02-11.777 2.089-2.756 1.46-3.92 3.405-3.489 5.835.47 2.982 2.203 4.64 5.198 4.976 5.05.563 9.72-3.496 15.618-4.057 2.073-.198 1.1 2.615 6.762 4.607 5.664 1.994 8.956.433 9.961 0 3.95-1.698 16.117-8.934 10.998-14.753-1.758-2-2.767-1.564-7.14-3.377-2.917-1.21-8.296-4.15-16.14-8.821l-7.63-5.141c-2.49-1.338-4.95-1.338-7.38 0-2.428 1.337-6.425 2.876-11.987 4.618-2.925.533-5.049 2.58-6.369 6.14-1.98 5.341-4.633 7.362-4.633 10.934 0 2.381-.226 3.833-.678 4.353z" fill="#9A7863"/>
                <path d="M43.546 64.043c.006-1.416.804-2.48 1.762-3.124.96-.643 3.035-.756 3.748-.694.713.063 1.917 1.326 2.086 2.44.167 1.116.415 3.314.372 4.206-.03.594-.485 1.055-1.367 1.384-1.989.135-3.491-.12-4.505-.767-1.522-.97-2.104-2.028-2.097-3.445z" fill="#C5A089"/>
                <path d="M77.616 76.372c3.381 6.281 6.786 9.423 10.217 9.423 3.43 0 5.894-2.084 7.393-6.248l-8.953-5.038c-2.577-.03-4.689.27-6.338.897-1.647.627-2.42.95-2.319.965z" fill="#F6F6F6"/>
                <path d="M87.354 52.966c5.961 2.671 6.349 8.553 1.162 17.644-2.2 3.854-4.105 6.416-5.717 7.687-1.46 1.15.765 1.73 6.675 1.737h5.745a.888.888 0 0 0 .779-.461c6.872-12.529 6.787-21.423-.255-26.683-3.651-1.609-6.447-1.584-8.389.076z" fill="#FFF"/>
                <path d="M33.787 62.258h8.579a.622.622 0 0 1 .62.679 7.863 7.863 0 0 0-.028.7c0 .277.01.523.03.74a.622.622 0 0 1-.62.68h-8.58a.622.622 0 0 1-.623-.622V62.88c0-.344.28-.622.622-.622z" fill="#FCB050"/>
                <path d="M81.779 89.917c10.48-.246 17.79-.952 21.931-2.118 4.14-1.166 8.017-1.363 11.632-.591V47.747c-13.118 1.08-22.403 2.63-27.858 4.65 7.982 0 14.014 3.457 12.822 13.936C98.91 78.61 92.733 86.472 81.78 89.917z" fill="#00915A"/>
            </g>
        </g>
    </g>
</svg>
