<svg width="110" height="110" viewBox="0 0 110 110" xmlns="http://www.w3.org/2000/svg" xmlns:xlink="http://www.w3.org/1999/xlink">
    <defs>
        <path d="M110 55c0 30.376-24.623 55-55 55-30.376 0-55-24.624-55-55S24.624 0 55 0c30.377 0 55 24.624 55 55" id="x1kto5vr5a"/>
        <path id="syfvt1ybed" d="M0 0h51.632v73.148H0z"/>
        <path id="t5bfpqdg4f" d="M0 0h5.71v12.863H0z"/>
        <path d="M2.855 73.148A2.849 2.849 0 0 1 0 70.306V60.285h51.632v12.863H2.855z" id="6ui39g3ubi"/>
        <path d="M.165 6.329h33.26C31.815 3.194 33.259.41 33.259.41L0 0l.165 6.329z" id="9trtkqqafj"/>
        <path d="M.165 6.329H33.38C31.77 3.194 33.214.41 33.214.41L0 0l.165 6.329z" id="kby03k0jol"/>
        <filter x="-12.5%" y="-8.9%" width="123.3%" height="120.4%" filterUnits="objectBoundingBox" id="aq0m9mxdhc">
            <feOffset dx="1" dy="1" in="SourceAlpha" result="shadowOffsetOuter1"/>
            <feGaussianBlur stdDeviation="1" in="shadowOffsetOuter1" result="shadowBlurOuter1"/>
            <feColorMatrix values="0 0 0 0 0 0 0 0 0 0 0 0 0 0 0 0 0 0 0.0439248252 0" in="shadowBlurOuter1" result="shadowMatrixOuter1"/>
            <feMerge>
                <feMergeNode in="shadowMatrixOuter1"/>
                <feMergeNode in="SourceGraphic"/>
            </feMerge>
        </filter>
        <filter x="-3.9%" y="-7.8%" width="107.7%" height="131.1%" filterUnits="objectBoundingBox" id="8mrgb2vn9h">
            <feOffset dy="1" in="SourceAlpha" result="shadowOffsetOuter1"/>
            <feGaussianBlur stdDeviation=".5" in="shadowOffsetOuter1" result="shadowBlurOuter1"/>
            <feColorMatrix values="0 0 0 0 0 0 0 0 0 0 0 0 0 0 0 0 0 0 0.038243007 0" in="shadowBlurOuter1"/>
        </filter>
        <filter x="-10.3%" y="-7.4%" width="120.5%" height="120.6%" filterUnits="objectBoundingBox" id="rk3zzesdmn">
            <feOffset dy="1" in="SourceAlpha" result="shadowOffsetOuter1"/>
            <feGaussianBlur stdDeviation="1" in="shadowOffsetOuter1" result="shadowBlurOuter1"/>
            <feColorMatrix values="0 0 0 0 0 0 0 0 0 0 0 0 0 0 0 0 0 0 0.197279283 0" in="shadowBlurOuter1"/>
        </filter>
        <ellipse id="1bc6ot2hto" cx="17.043" cy="16.984" rx="17.043" ry="16.984"/>
    </defs>
    <g fill="none" fill-rule="evenodd">
        <mask id="pgc9id252b" fill="#fff">
            <use xlink:href="#x1kto5vr5a"/>
        </mask>
        <use fill="#E9F4FD" xlink:href="#x1kto5vr5a"/>
        <g mask="url(#pgc9id252b)">
            <g filter="url(#aq0m9mxdhc)" transform="translate(44.327 37.761)">
                <path fill="#F6F6F6" d="M54.487 0V3.12L57.594.013 57.343 0z"/>
                <g transform="translate(2.855)">
                    <mask id="hqy6dbo6me" fill="#fff">
                        <use xlink:href="#syfvt1ybed"/>
                    </mask>
                    <path d="M48.867 73.148H0V3.666A3.675 3.675 0 0 1 3.683 0h47.95v70.395a2.76 2.76 0 0 1-2.766 2.753" fill="#F9F9F9" mask="url(#hqy6dbo6me)"/>
                </g>
                <g transform="translate(54.487)">
                    <mask id="qczl662v9g" fill="#fff">
                        <use xlink:href="#t5bfpqdg4f"/>
                    </mask>
                    <path d="M5.71 12.863H0V2.843A2.849 2.849 0 0 1 2.855 0 2.849 2.849 0 0 1 5.71 2.842v10.02z" fill="#CAC9C9" mask="url(#qczl662v9g)"/>
                </g>
                <path d="M48.778 60.285h5.71v10.02a2.849 2.849 0 0 1-2.855 2.843 2.849 2.849 0 0 1-2.855-2.842V60.285z" fill="#F9F9F9"/>
                <g transform="translate(39.615 6.227)" stroke="#2491EE" stroke-width=".5">
                    <ellipse cx="2.085" cy="2.076" rx="2.085" ry="2.076"/>
                    <ellipse cx="2.085" cy="10.032" rx="2.085" ry="2.076"/>
                    <ellipse cx="2.085" cy="17.989" rx="2.085" ry="2.076"/>
                    <ellipse cx="2.085" cy="25.253" rx="2.085" ry="2.076"/>
                    <ellipse cx="2.085" cy="32.518" rx="2.085" ry="2.076"/>
                    <ellipse cx="2.085" cy="39.783" rx="2.085" ry="2.076"/>
                    <ellipse cx="2.085" cy="47.048" rx="2.085" ry="2.076"/>
                </g>
                <g fill="#DADADA">
                    <path d="M9.231 9.07h26.642V7.093H9.23zM9.231 16.795h26.642v-1.974H9.23zM9.231 19.995h10.772v-1.974H9.231zM9.231 25.098h26.642v-1.975H9.23zM9.231 31.599h26.642v-1.975H9.23zM9.231 34.799h10.772v-1.975H9.231zM9.231 39.512h26.642v-1.975H9.23zM9.231 42.474h26.642v-1.975H9.23z"/>
                    <g>
                        <path d="M9.231 47.123h26.642v-1.975H9.23zM9.231 50.085h14.305V48.11H9.231z"/>
                    </g>
                    <g>
                        <path d="M9.231 54.24h26.642v-1.975H9.23zM9.231 57.202h14.305v-1.975H9.231z"/>
                    </g>
                </g>
                <use fill="#000" filter="url(#8mrgb2vn9h)" xlink:href="#6ui39g3ubi"/>
                <use fill="#FBFBFB" xlink:href="#6ui39g3ubi"/>
            </g>
            <path stroke="#2491EE" stroke-width=".692" stroke-linecap="round" stroke-linejoin="round" d="m85.043 46.074.753.988 1.158-1.975M85.043 53.894l.753.987 1.158-1.975M85.043 76.485l.753.987 1.158-1.975M85.043 83.585l.753.987 1.158-1.975M85.043 91.33l.753.988 1.158-1.975M85.1 62.157l.753.988 1.159-1.975M85.1 69.307l.753.987 1.159-1.975"/>
            <g>
                <path d="M54.377 103.784s-1.445 2.783.165 5.918h-33.26l-.164-6.329 33.259.411z" fill="#E7E6E6"/>
                <g transform="translate(21.117 103.373)">
                    <mask id="684x3h2htk" fill="#fff">
                        <use xlink:href="#9trtkqqafj"/>
                    </mask>
                    <path fill="#D0D1D1" mask="url(#684x3h2htk)" d="M0 .995h33.191V.737H0zM0 1.511h33.191v-.258H0zM0 2.285h33.191v-.258H0zM0 3.06h33.191V2.8H0zM0 3.575h33.191v-.258H0zM0 4.091h33.191v-.258H0zM0 4.865h33.191v-.258H0zM0 5.64h33.191v-.258H0z"/>
                </g>
                <path d="M21.562 105.994v-.84c0-1.49 1.22-1.37 1.22-1.37h32.261v-1.713H22.45c-.684 0-1.159.196-1.49.48l-.002.001a1.635 1.635 0 0 0-.09.085l-.045.043c-.616.617-3.002 3.412-.255 7.363.302.516.859.952 1.882.952h32.593v-1.713h-32.26s-1.221.12-1.221-1.37v-1.919z" fill="#FCB050"/>
                <path d="M52.974 87.35s-1.444 2.783.165 5.917H19.925l-.165-6.328 33.214.41z" fill="#E7E6E6"/>
                <g transform="translate(19.76 86.939)">
                    <mask id="qnf2t6ry8m" fill="#fff">
                        <use xlink:href="#kby03k0jol"/>
                    </mask>
                    <path fill="#D0D1D1" mask="url(#qnf2t6ry8m)" d="M0 .995h33.146V.737H0zM0 1.511h33.146v-.258H0zM0 2.285h33.146v-.258H0zM0 3.06h33.146V2.8H0zM0 3.575h33.146v-.258H0zM0 4.091h33.146v-.258H0zM0 4.865h33.146v-.258H0zM0 5.64h33.146V5.38H0z"/>
                </g>
                <g>
                    <path d="M20.203 89.56v-.84c0-1.49 1.22-1.37 1.22-1.37H53.64v-1.713H21.091c-.684 0-1.158.196-1.488.48v-.001l-.002.002c-.03.024-.056.05-.082.076l-.009.008-.044.044c-.616.616-2.999 3.411-.255 7.363.301.515.858.952 1.88.952h32.548v-1.713H21.423s-1.22.12-1.22-1.37V89.56z" fill="#00915A"/>
                    <path fill="#2491EE" d="M19.068 102.071h36.18v-7.51h-36.18z"/>
                    <path fill="#3185D0" d="M19.068 102.071h36.18v-3.755h-36.18z"/>
                    <path fill="#FFF" opacity=".152" d="M21.278 100.495h9.306V96.38h-9.306z"/>
                    <path fill="#1E9F88" d="M25.044 85.655h24.229v-7.51H25.044z"/>
                    <path fill="#1DA78F" d="M25.044 85.655h24.229V81.9H25.044z"/>
                    <path fill="#FFF" opacity=".146" d="M46.34 85.655h.632v-7.51h-.632zM43.63 85.655h.632v-7.51h-.633zM26.825 84.3h4.793v-4.746h-4.793z"/>
                </g>
            </g>
            <g>
                <g transform="translate(17.92 34.537)">
                    <use fill="#000" filter="url(#rk3zzesdmn)" xlink:href="#1bc6ot2hto"/>
                    <use fill="#FFF" xlink:href="#1bc6ot2hto"/>
                </g>
                <path d="m41.633 48.797-5.852 5.737a.265.265 0 0 1-.05.074L33.902 56.4c-.102.1-.267.1-.368 0l-4.886-4.79a.252.252 0 0 1 0-.361l1.828-1.792c.102-.1.267-.1.369 0l2.86 2.803 5.73-5.617c.102-.1.267-.1.37 0l1.828 1.792c.101.1.101.262 0 .362" fill="#2491EE"/>
            </g>
            <g fill="#2491EE">
                <path d="M19.323 25.803a.162.162 0 0 0-.162-.161h-1.765c-.396 0-.69-.105-.874-.311-.274-.308-.223-.755-.223-.76l.002-.02v-2.987a.162.162 0 0 0-.163-.161h-.012a.162.162 0 0 0-.162.161v2.987l.001.02c0 .005.052.452-.223.76-.184.206-.477.31-.873.31h-1.766a.162.162 0 0 0-.162.162v.007c0 .09.073.161.162.161h1.766c.396 0 .69.105.873.311.275.308.224.755.223.76a.174.174 0 0 0 0 .02v3.148c0 .09.072.162.161.162l.006-.001h.006c.09 0 .163-.071.163-.16v-3.15l-.002-.02c0-.004-.053-.446.222-.757.183-.208.478-.313.875-.313h1.765c.09 0 .162-.072.162-.161v-.007M22.665 23.638c0-.026-.022-.047-.05-.047h-.538c-.12 0-.21-.03-.266-.09a.296.296 0 0 1-.067-.224v-.86c0-.025-.022-.046-.05-.046h-.003c-.028 0-.05.02-.05.046v.866c0 .001.016.13-.067.219-.056.06-.146.09-.267.09h-.538c-.027 0-.049.02-.049.046v.002c0 .025.022.046.05.046h.537c.121 0 .21.03.267.09a.296.296 0 0 1 .067.224v.906c0 .026.022.047.05.047h.003c.028 0 .05-.021.05-.047v-.912a.292.292 0 0 1 .067-.218c.056-.06.145-.09.266-.09h.538c.028 0 .05-.02.05-.046v-.002M14.886 32.674c0-.026-.022-.047-.05-.047h-.538c-.12 0-.21-.03-.266-.089a.296.296 0 0 1-.067-.224v-.86c0-.026-.022-.047-.05-.047h-.003c-.028 0-.05.021-.05.047v.865c0 .002.016.13-.067.219-.056.06-.146.09-.266.09h-.538c-.028 0-.05.02-.05.046v.002c0 .026.022.046.05.046h.538c.12 0 .21.03.266.09a.296.296 0 0 1 .067.224v.907c0 .025.022.046.05.046h.003c.028 0 .05-.02.05-.046v-.913a.292.292 0 0 1 .067-.218c.056-.06.146-.09.266-.09h.539c.027 0 .049-.02.049-.046v-.002M40.815 27.17a.082.082 0 0 0-.082-.082h-.897c-.2 0-.35-.052-.443-.156-.14-.156-.114-.38-.113-.383v-1.515a.082.082 0 0 0-.082-.081h-.006a.082.082 0 0 0-.083.081v1.505a.08.08 0 0 0 .001.01c0 .002.026.227-.113.383-.094.104-.243.156-.444.156h-.896a.082.082 0 0 0-.083.081v.004c0 .045.037.081.083.081h.896c.201 0 .35.053.444.157.14.155.113.38.113.382v1.597c0 .045.036.08.082.08h.006a.082.082 0 0 0 .082-.08v-1.596a.53.53 0 0 1 .112-.382c.093-.105.243-.158.444-.158h.897a.082.082 0 0 0 .082-.081v-.004"/>
            </g>
        </g>
    </g>
</svg>
