<svg width="110" height="110" viewBox="0 0 110 110" xmlns="http://www.w3.org/2000/svg" xmlns:xlink="http://www.w3.org/1999/xlink">
    <defs>
        <filter x="-14.4%" y="-6.8%" width="128.7%" height="117%" filterUnits="objectBoundingBox" id="vhz94kk6xc">
            <feOffset dy="1" in="SourceAlpha" result="shadowOffsetOuter1"/>
            <feGaussianBlur stdDeviation="1.5" in="shadowOffsetOuter1" result="shadowBlurOuter1"/>
            <feColorMatrix values="0 0 0 0 0 0 0 0 0 0 0 0 0 0 0 0 0 0 0.192990603 0" in="shadowBlurOuter1"/>
        </filter>
        <filter x="-14.4%" y="-6.8%" width="128.7%" height="117%" filterUnits="objectBoundingBox" id="jhd3xxho2e">
            <feOffset dy="1" in="SourceAlpha" result="shadowOffsetOuter1"/>
            <feGaussianBlur stdDeviation="1.5" in="shadowOffsetOuter1" result="shadowBlurOuter1"/>
            <feColorMatrix values="0 0 0 0 0 0 0 0 0 0 0 0 0 0 0 0 0 0 0.192990603 0" in="shadowBlurOuter1"/>
        </filter>
        <filter x="-14.4%" y="-6.8%" width="128.7%" height="117%" filterUnits="objectBoundingBox" id="fnvaidub9g">
            <feOffset dy="1" in="SourceAlpha" result="shadowOffsetOuter1"/>
            <feGaussianBlur stdDeviation="1.5" in="shadowOffsetOuter1" result="shadowBlurOuter1"/>
            <feColorMatrix values="0 0 0 0 0 0 0 0 0 0 0 0 0 0 0 0 0 0 0.192990603 0" in="shadowBlurOuter1"/>
        </filter>
        <filter x="-6.6%" y="-6.9%" width="113.3%" height="113.8%" filterUnits="objectBoundingBox" id="nncocr467i">
            <feOffset dx="-1" dy="1" in="SourceAlpha" result="shadowOffsetOuter1"/>
            <feGaussianBlur stdDeviation=".5" in="shadowOffsetOuter1" result="shadowBlurOuter1"/>
            <feColorMatrix values="0 0 0 0 0 0 0 0 0 0 0 0 0 0 0 0 0 0 0.11366368 0" in="shadowBlurOuter1" result="shadowMatrixOuter1"/>
            <feMerge>
                <feMergeNode in="shadowMatrixOuter1"/>
                <feMergeNode in="SourceGraphic"/>
            </feMerge>
        </filter>
        <rect id="w2vl54medd" x="0" y="0" width="34.842" height="58.733" rx="2.489"/>
        <rect id="jhg33pg8hf" x="0" y="0" width="34.842" height="58.733" rx="2.489"/>
        <rect id="aqgru9p4oh" x="0" y="0" width="34.842" height="58.733" rx="2.489"/>
        <path d="M110 55c0 30.376-24.623 55-55 55-30.376 0-55-24.624-55-55S24.624 0 55 0c30.377 0 55 24.624 55 55" id="1ugpqkuzta"/>
    </defs>
    <g fill="none" fill-rule="evenodd">
        <mask id="3vhb9bfq1b" fill="#fff">
            <use xlink:href="#1ugpqkuzta"/>
        </mask>
        <use fill="#E9F4FD" xlink:href="#1ugpqkuzta"/>
        <g mask="url(#3vhb9bfq1b)">
            <g transform="translate(-1.493 21.403)">
                <use fill="#000" filter="url(#vhz94kk6xc)" xlink:href="#w2vl54medd"/>
                <use fill="#FFF" xlink:href="#w2vl54medd"/>
                <text font-family="BNPPType" font-size="19.91">
                                    <tspan x="10.452" y="49.869" fill="#F2B741">€</tspan>
                                </text>
                <rect fill="#C1C1C1" x="5.973" y="5.973" width="23.394" height="4.977" rx="2.489"/>
                <rect fill="#E4E4E4" x="2.489" y="15.928" width="27.376" height="1.991" rx=".995"/>
                <rect fill="#E4E4E4" x="2.489" y="19.412" width="22.398" height="1.991" rx=".995"/>
                <rect fill="#E4E4E4" x="2.489" y="31.357" width="14.434" height="1.991" rx=".995"/>
                <rect fill="#E4E4E4" x="2.489" y="23.394" width="25.882" height="1.991" rx=".995"/>
                <rect fill="#E4E4E4" x="2.489" y="27.376" width="28.371" height="1.991" rx=".995"/>
            </g>
        </g>
        <g mask="url(#3vhb9bfq1b)">
            <g transform="translate(37.33 21.403)">
                <use fill="#000" filter="url(#jhd3xxho2e)" xlink:href="#jhg33pg8hf"/>
                <use fill="#FFF" xlink:href="#jhg33pg8hf"/>
                <text font-family="BNPPType" font-size="19.91">
                                    <tspan x="6.474" y="49.869" fill="#F2B741">€€</tspan>
                                </text>
                <rect fill="#C1C1C1" x="5.973" y="5.973" width="23.394" height="4.977" rx="2.489"/>
                <rect fill="#E4E4E4" x="2.489" y="15.928" width="27.376" height="1.991" rx=".995"/>
                <rect fill="#E4E4E4" x="2.489" y="19.412" width="22.398" height="1.991" rx=".995"/>
                <rect fill="#E4E4E4" x="2.489" y="31.357" width="14.434" height="1.991" rx=".995"/>
                <rect fill="#E4E4E4" x="2.489" y="23.394" width="25.882" height="1.991" rx=".995"/>
                <rect fill="#E4E4E4" x="2.489" y="27.376" width="28.371" height="1.991" rx=".995"/>
            </g>
        </g>
        <g mask="url(#3vhb9bfq1b)">
            <g transform="translate(76.154 21.403)">
                <use fill="#000" filter="url(#fnvaidub9g)" xlink:href="#aqgru9p4oh"/>
                <use fill="#FFF" xlink:href="#aqgru9p4oh"/>
                <text font-family="BNPPType" font-size="19.91">
                                    <tspan x="3.241" y="49.869" fill="#F2B741">€€€</tspan>
                                </text>
                <rect fill="#C1C1C1" x="5.973" y="5.973" width="23.394" height="4.977" rx="2.489"/>
                <rect fill="#E4E4E4" x="2.489" y="15.928" width="27.376" height="1.991" rx=".995"/>
                <rect fill="#E4E4E4" x="2.489" y="19.412" width="22.398" height="1.991" rx=".995"/>
                <rect fill="#E4E4E4" x="2.489" y="31.357" width="14.434" height="1.991" rx=".995"/>
                <rect fill="#E4E4E4" x="2.489" y="23.394" width="25.882" height="1.991" rx=".995"/>
                <rect fill="#E4E4E4" x="2.489" y="27.376" width="28.371" height="1.991" rx=".995"/>
            </g>
        </g>
        <g filter="url(#nncocr467i)" mask="url(#3vhb9bfq1b)">
            <path d="M53.18 67.124c1.757-1.846 3.875.252 5.576 1.33 1.702 1.079 6.032 5.226 7.468 6.487 2.135 1.873 4.044 4.242 4.678 4.95.633.71-.396-.882.196-1.346.593-.463 6.284-4.846 13.006-4.107 6.722.74 8.83 15.767 11.242 18.605 2.413 2.839 8.49 6.037 6.378 8.302-2.112 2.266-6.634 8.757-8.584 8.703-1.95-.054-8.872-6.51-14.66-8.378-5.787-1.869-12.398-6.387-14.403-8.022-2.005-1.635-6.318-2.698-8.292-3.851-1.034-.604-3.293-3.66 2.766-4.48 6.059-.821 7.99 2.156 10.577 3.04 2.428.83-14.368-16.06-15.238-16.872-.869-.813-2.468-2.515-.71-4.361z" fill="#EBCDAE" fill-rule="nonzero"/>
            <path d="M67.094 76.16s.775-2.7 4.768-1.573c3.993 1.129 3.715 2.862 3.715 2.862s-3.51 3.194-4.953 2.569c-1.444-.625-3.53-3.857-3.53-3.857" fill="#EBCDAE" fill-rule="nonzero"/>
            <path d="M67.094 76.16s.775-2.7 4.768-1.573c3.993 1.129 3.715 2.862 3.715 2.862s-3.51 3.194-4.953 2.569c-1.444-.625-3.53-3.857-3.53-3.857z"/>
            <path d="M79.353 74.392s1.239-2.79 4.671-.838c3.615 2.057 3.192 3.398 3.192 3.398s-3.764 2.312-5.039 1.532c-1.275-.78-2.824-4.093-2.824-4.093" fill="#EBCDAE" fill-rule="nonzero"/>
            <path d="M79.353 74.392s1.239-2.79 4.671-.838c3.615 2.057 3.192 3.398 3.192 3.398s-3.764 2.312-5.039 1.532c-1.275-.78-2.824-4.093-2.824-4.093z"/>
            <path d="M72.738 74.503s.775-2.7 4.769-1.572c3.993 1.128 3.715 2.861 3.715 2.861s-3.51 3.195-4.953 2.57c-1.444-.625-3.53-3.858-3.53-3.858" fill="#EBCDAE" fill-rule="nonzero"/>
            <path d="M69.395 78.326s.841 1 1.157 1.58c.283.52 1.13.29 1.384-.118.254-.407.003-1.061-.632-1.162-.86-.135-1.916-.289-1.909-.3m4.136-2.743s1.854.917 2.207 1.473c.314.499.656.472.945.079.289-.394.138-.995-.577-1.088-.965-.126-2.575-.464-2.575-.464m5.65-1.604s1.462.964 1.705 1.493c.217.474.504.474.781.139.277-.336.207-.891-.38-1.026-.794-.184-2.106-.606-2.106-.606" fill="#E2C2A2" fill-rule="nonzero"/>
            <path d="M53.866 67.107c-.479.3-1.103 1.574-.274 2.796.828 1.222 1.506 1.681 2.034 1.82.622.163 2.616-2.277 2.358-2.963-.26-.686-2.875-2.433-4.118-1.652M55.101 87.651c-.47.365-.817 1.578.523 2.403 1.34.826 2.124 1.001 2.783.993.778-.01 2.53-2.477 2.02-2.99-.51-.512-4.104-1.353-5.326-.406" fill="#F2DCC4" fill-rule="nonzero"/>
            <path d="M61.451 75.746c.118-.462.718-.952 1.508-1.23a.677.677 0 0 1 .285-.054c.108.013.14.087.1.155a.403.403 0 0 1-.218.186c-.712.25-1.011.548-1.4.93a.327.327 0 0 1-.187.08c-.07.006-.112-.05-.045-.074m1.355.464c.073-.46.467-.944.99-1.213.061-.03.132-.06.19-.05.072.015.094.09.069.156-.026.067-.068.145-.143.184-.473.241-.669.536-.923.913a.19.19 0 0 1-.124.078c-.048.005-.076-.051-.031-.075m.298 16.439a1.083 1.083 0 0 1 .267-1.184c.037-.036.083-.072.14-.072.07.001.126.061.136.122.011.06.013.135-.033.179-.293.277-.319.559-.355.918a.102.102 0 0 1-.07.085c-.038.012-.092-.031-.063-.058m.73.535a1.084 1.084 0 0 1 .267-1.185c.038-.035.084-.072.14-.071.07 0 .126.06.137.122.01.06.013.134-.034.178-.292.279-.318.559-.355.919a.103.103 0 0 1-.07.085c-.038.012-.09-.032-.063-.059m10.68-11.695c.483.14.976.744 1.237 1.518.03.09.058.193.044.276-.018.103-.098.129-.168.087a.409.409 0 0 1-.187-.22c-.234-.697-.536-1.002-.923-1.396a.305.305 0 0 1-.076-.184c-.004-.07.056-.106.08-.04m4.134-2.739c.482.14.975.744 1.236 1.518.03.09.059.194.044.277-.018.103-.098.128-.167.087a.411.411 0 0 1-.188-.22c-.234-.698-.536-1.002-.923-1.397a.31.31 0 0 1-.076-.184c-.004-.07.057-.106.08-.04m4.36-1.465c.482.14.975.745 1.236 1.518a.61.61 0 0 1 .044.277c-.018.103-.098.128-.167.087a.409.409 0 0 1-.188-.22c-.234-.698-.536-1.002-.923-1.396a.309.309 0 0 1-.076-.185c-.004-.069.057-.105.08-.04M67.25 87.663c.354.221.588.33 1.06.666.137.098.47.218.702.327.152.071.601.35.699.21.112-.159-.132-.464-.255-.695-.092-.172.14-.349.333-.363.195-.014.6.2.717.36.228.31.358.605.478.89.125.295.132.603-.008.892-.15.312-.539.411-.88.412-.815.002-1.607-.367-2.217-.92-.61-.553-1.072-1.296-1.323-1.873-.062-.145-.246-.46.107-.238.02.012.568.319.587.331" fill="#E2C2A2" fill-rule="nonzero"/>
        </g>
    </g>
</svg>
